<?xml version="1.0" encoding="utf-8"?>
<!-- Generator: Adobe Illustrator 16.0.3, SVG Export Plug-In . SVG Version: 6.00 Build 0)  -->
<!DOCTYPE svg PUBLIC "-//W3C//DTD SVG 1.1//EN" "http://www.w3.org/Graphics/SVG/1.1/DTD/svg11.dtd">
<svg version="1.1" xmlns="http://www.w3.org/2000/svg" xmlns:xlink="http://www.w3.org/1999/xlink" x="0px" y="0px" width="1000px"
	 height="1000px" viewBox="0 0 1000 1000" enable-background="new 0 0 1000 1000" xml:space="preserve">
<g id="BACKGROUND">
	<g>
		<rect display="none" fill="#D1CBCB" width="1000" height="1000"/>
		
			<linearGradient id="SVGID_1_" gradientUnits="userSpaceOnUse" x1="232.332" y1="1231.9014" x2="847.6436" y2="616.5898" gradientTransform="matrix(-1 0 0 1 1000 0)">
			<stop  offset="0" style="stop-color:#FFBB03"/>
			<stop  offset="0.9959" style="stop-color:#FF7D74"/>
		</linearGradient>
		<path fill="url(#SVGID_1_)" d="M122,685c127-247,108.8-32.499,151-9.111c83,46,159-98.889,211-172.433
			c60.922-86.163,116.121,33.207,152,117.312C661.304,680.086,686.72,785.242,739,823c54,39,96.259-11.262,143,19
			s45.926,48.384,81.933,90.856c16.293,19.217,29.039,42.683,35.637,67.144H190.821H0v-82.5C6.01,924.333,117.42,693.908,122,685z"
			/>
		
			<linearGradient id="SVGID_2_" gradientUnits="userSpaceOnUse" x1="0.4307" y1="791.3047" x2="1000" y2="791.3047" gradientTransform="matrix(-1 0 0 1 1000 0)">
			<stop  offset="0" style="stop-color:#F0AF00"/>
			<stop  offset="0.9959" style="stop-color:#F05C51"/>
		</linearGradient>
		<path fill="url(#SVGID_2_)" d="M973.202,893.938c26.112,19.888,24.965,73.07,26.367,106.093H477.974L0,1000
			c4.202,3.57,223-300,335-344.441c89.393-35.471,165,48.441,208.974,0c64.104-70.617,69.053-97.446,128-46.9
			C775,697,850.505,665.731,889,736.799C928,808.799,884,826,973.202,893.938z"/>
	</g>
</g>
<g id="OBJECTS">
	<g>
		<defs>
			<rect id="SVGID_3_" x="2.54" y="0.001" width="1000.002" height="999.999"/>
		</defs>
		<clipPath id="SVGID_4_">
			<use xlink:href="#SVGID_3_"  overflow="visible"/>
		</clipPath>
		<g clip-path="url(#SVGID_4_)">
			<g opacity="0.2">
				<path d="M1126.036,660.285L973.163,530.973l0,0l-0.229-0.191l-19.414-6.641l0,0l-11.369-3.889l5.676,10.484l0,0l9.814,18.127
					l0.301,0.252l0,0l152.801,129.25c4.992,4.225,12.463,3.6,16.686-1.393l0,0C1131.653,671.979,1131.03,664.508,1126.036,660.285z"
					/>
				<path d="M850.53,436.939c-8.086,2.748-15.625,6.965-22.287,12.293c-0.078-10.389-4.385-20.91-10.238-29.473
					c-12.029,13.588-18.617,31.713-18.73,49.832c-4.553-0.943-9.355-0.82-13.813,0.465c-10.982,3.166-19.604,12.461-23.516,23.199
					c-3.91,10.74-3.486,22.717-0.484,33.742c3.654,13.428,11.707,26.369,24.248,32.396c8.078,3.885,18.105,4.027,26.16,0.463
					c8.055,3.564,18.084,3.422,26.162-0.463c12.539-6.027,20.594-18.969,24.248-32.396c3.002-11.025,3.426-23.002-0.484-33.742
					c-3.422-9.395-10.449-17.684-19.51-21.732c0.201-0.271,0.396-0.547,0.59-0.822C849.519,461.205,851.468,448.49,850.53,436.939z"
					/>
				<path d="M482.806,784.65c-4.92-11.672-18.367-17.146-30.039-12.229l-153.588,64.711c-11.672,4.918-17.146,18.365-12.229,30.037
					l3.105,7.369l-14.904,6.279c-3.322,1.398-4.879,5.227-3.48,8.549c1.398,3.32,5.227,4.879,8.549,3.479l14.904-6.279l9.033,21.441
					l-14.904,6.279c-3.322,1.4-4.879,5.227-3.48,8.549c1.4,3.322,5.227,4.881,8.549,3.48l14.904-6.279l9.033,21.441l-14.904,6.279
					c-3.322,1.4-4.879,5.229-3.48,8.549c1.4,3.32,5.227,4.881,8.549,3.48l14.904-6.279l9.035,21.441l-14.906,6.279
					c-3.32,1.4-4.879,5.227-3.479,8.549l0,0c1.398,3.32,5.227,4.879,8.547,3.48l14.906-6.281l9.033,21.441l-14.906,6.283
					c-3.32,1.396-4.877,5.225-3.48,8.547c1.4,3.322,5.229,4.879,8.549,3.479l14.906-6.277l9.033,21.441l-14.904,6.279
					c-3.322,1.398-4.881,5.227-3.48,8.547c1.398,3.322,5.227,4.881,8.549,3.48l14.904-6.279l9.035,21.441l-14.906,6.281
					c-3.322,1.398-4.879,5.225-3.48,8.547l0,0c1.4,3.322,5.227,4.881,8.549,3.482l14.904-6.281l2.004,4.754
					c4.918,11.672,18.365,17.146,30.037,12.23l153.588-64.713c11.67-4.918,17.146-18.365,12.229-30.037L482.806,784.65z"/>
				<path d="M840.015,914.953l-5.938,29.828l12.713-5.074l9.799,9.557l5.938-29.826l17.373,3.457
					c12.318,2.451,24.291-5.545,26.742-17.861l48.371-242.979c2.451-12.316-5.547-24.289-17.863-26.74l-135.557-26.986l0,0
					l-9.496-1.891c-1.539-0.307-3.072-0.449-4.584-0.441c-0.756,0.004-1.506,0.045-2.248,0.125
					c-0.371,0.037-0.738,0.086-1.105,0.143c-7.33,1.143-13.74,5.842-16.992,12.604c-0.035,0.074-0.068,0.15-0.102,0.225
					c-0.195,0.418-0.377,0.844-0.547,1.275c-0.496,1.254-0.891,2.566-1.164,3.934l-28.977,145.563l-19.393,97.414
					c-1.686,8.469,1.566,16.771,7.768,21.934c0.563,0.469,1.15,0.912,1.762,1.326c0.611,0.416,1.244,0.803,1.9,1.158
					c0.328,0.18,0.66,0.348,0.998,0.512c0.676,0.326,1.373,0.619,2.09,0.877c1.072,0.391,2.189,0.705,3.344,0.936l9.494,1.889l0,0
					L840.015,914.953z"/>
				<path d="M597.397,68.621c-10.242,19.734-12.594,43.5-4.576,66.108l57.941,163.355c7.947,22.406,32.553,34.127,54.957,26.18
					l138.195-49.016c22.406-7.946,34.127-32.552,26.18-54.958L812.155,56.934c-8.07-22.752-25.035-39.795-45.598-48.619
					l-13.229-37.299c-3.082-8.687-12.621-13.231-21.307-10.15l-25.939,9.2c-8.688,3.081-13.23,12.621-10.15,21.307l5.848,16.483
					l-54.467,19.319l-5.848-16.483c-3.08-8.687-12.621-13.23-21.307-10.15L594.22,9.742c-8.686,3.081-13.23,12.621-10.148,21.307
					L597.397,68.621z"/>
				<path d="M724.651,544.012l4.742-3.734l-18.213-11.869c4.953-24.248-0.395-50.432-16.904-71.396
					c-6.973-8.855-15.318-15.992-24.496-21.35l8.047,0.955c0.045-0.385,0.086-0.77,0.123-1.154c0.07-0.768,0.123-1.535,0.154-2.299
					c0.033-0.764,0.045-1.523,0.039-2.281c-0.119-14.756-7.484-28.162-19.033-36.336c-0.295-0.209-0.596-0.416-0.896-0.619
					c-0.602-0.406-1.217-0.797-1.842-1.174c-0.623-0.377-1.258-0.738-1.902-1.086c-1.291-0.693-2.619-1.328-3.986-1.896
					c-0.342-0.143-0.686-0.281-1.031-0.416c-0.691-0.27-1.393-0.52-2.102-0.756c-2.84-0.941-5.813-1.611-8.898-1.979
					c-0.355-0.041-0.709-0.078-1.064-0.111c-0.113-0.012-0.229-0.021-0.342-0.031c-0.24-0.021-0.48-0.041-0.723-0.059
					c-0.133-0.01-0.266-0.018-0.398-0.025c-0.225-0.016-0.451-0.027-0.676-0.037c-0.135-0.006-0.268-0.014-0.4-0.02
					c-0.24-0.008-0.479-0.016-0.717-0.02c-0.115-0.004-0.229-0.008-0.342-0.01c-0.338-0.006-0.676-0.008-1.012-0.004
					c-0.123,0-0.246,0.004-0.369,0.006c-0.223,0.004-0.441,0.008-0.662,0.014c-0.156,0.004-0.311,0.012-0.467,0.018
					c-0.188,0.008-0.375,0.016-0.561,0.025c-0.166,0.008-0.332,0.02-0.498,0.029c-0.174,0.012-0.35,0.023-0.523,0.037
					c-0.172,0.014-0.342,0.025-0.512,0.039c-0.17,0.016-0.342,0.033-0.514,0.051c-0.32,0.031-0.641,0.066-0.961,0.105
					c-0.152,0.018-0.303,0.035-0.455,0.055c-0.189,0.025-0.381,0.053-0.57,0.08c-0.141,0.021-0.281,0.041-0.424,0.063
					c-0.191,0.029-0.385,0.061-0.576,0.094c-0.135,0.021-0.271,0.047-0.406,0.068c-0.195,0.035-0.389,0.07-0.584,0.107
					c-0.127,0.023-0.252,0.051-0.379,0.074c-0.201,0.041-0.404,0.082-0.604,0.123c-0.002,0.002-0.004,0.002-0.004,0.002l0,0
					c-18.299,3.92-32.924,19.082-35.254,38.701l12.26,1.457c-8.115,2.438-15.98,6.1-23.324,11.02l-7.232-9.184l4.77-3.758
					l-6.85-8.697l-20.201,15.91l6.85,8.697l4.77-3.756l7.232,9.184c-6.504,5.986-11.908,12.773-16.18,20.092l1.457-12.262
					c-19.619-2.33-37.787,8.332-45.887,25.201l0,0c0,0.002-0.002,0.002-0.002,0.004c-0.244,0.512-0.479,1.029-0.705,1.553
					c-0.027,0.063-0.057,0.125-0.082,0.188c-0.223,0.52-0.438,1.043-0.641,1.574c-0.01,0.025-0.02,0.049-0.027,0.074
					c-0.199,0.521-0.389,1.047-0.568,1.578c-0.016,0.045-0.033,0.092-0.049,0.137c-0.176,0.527-0.342,1.059-0.502,1.594
					c-0.025,0.088-0.051,0.176-0.074,0.262c-0.156,0.541-0.305,1.084-0.439,1.631c-0.008,0.027-0.014,0.053-0.02,0.078
					c-0.129,0.527-0.248,1.059-0.359,1.592c-0.02,0.092-0.039,0.184-0.057,0.273c-0.109,0.537-0.207,1.076-0.297,1.619
					c-0.018,0.107-0.033,0.217-0.051,0.324c-0.088,0.561-0.17,1.125-0.236,1.693c-0.459,3.857-0.416,7.656,0.078,11.334
					c0.1,0.736,0.217,1.467,0.352,2.193c0.066,0.361,0.139,0.725,0.213,1.084c0.305,1.439,0.68,2.855,1.119,4.248
					c0.219,0.695,0.455,1.385,0.709,2.064c5.557,14.99,18.938,26.49,35.752,28.922c0.381,0.055,0.766,0.105,1.15,0.15l0.957-8.045
					c3.057,10.178,8.039,19.963,15.012,28.818c16.475,20.918,40.605,32.252,65.281,33.164l7.307,20.592l4.744-3.734l0.148-17.256
					c15.854-1.635,31.449-7.631,44.898-18.221c13.412-10.563,22.881-24.273,28.193-39.258L724.651,544.012z"/>
				<path d="M951.175,132.911c-24.965,12.972-44.186,36.561-51.846,63.631c-7.123,25.172-3.82,53.995,12.256,74.632
					c16.078,20.636,45.783,30.895,70.01,21.027c26.754-10.896,40.371-41.096,64.607-56.814c19.934-12.93,46.119-15.42,63.404-31.727
					c28.467-26.857,15.984-84.799-26.613-85.073c-20.303-0.129-40.342,1.216-60.764,0.678
					C997.896,118.623,973.04,121.549,951.175,132.911z"/>
				<polygon points="1150.667,437.684 863.249,322.49 855.64,341.473 855.64,341.473 838.476,384.299 1125.894,499.494 
					1143.058,456.668 1143.058,456.668 				"/>
				<path d="M882.62,103.18l17.547-10.817l0.238-0.314l0,0l120.461-159.82c3.936-5.222,2.895-12.646-2.328-16.582l0,0
					c-5.223-3.937-12.646-2.894-16.582,2.328L881.435,77.873l0,0l-0.178,0.236l-8.783,31.325L882.62,103.18L882.62,103.18z"/>
				<path d="M635.544,721.104L635.544,721.104l-0.051-0.293l-10.564-17.588l0,0l-6.188-10.301l-2.416,11.674l0,0l-4.178,20.184
					l0.064,0.389l0,0l33.543,197.303c1.096,6.447,7.209,10.785,13.656,9.688l0,0c6.447-1.096,10.785-7.209,9.689-13.656
					L635.544,721.104z"/>
				<path d="M978.554,949.494l-20.26,3.787l-0.336,0.207l0,0L788.097,1059.32c-5.549,3.459-7.246,10.762-3.787,16.313l0,0
					c3.459,5.551,10.762,7.246,16.311,3.787l169.943-105.883l0,0l0.252-0.158l19.457-26.074L978.554,949.494L978.554,949.494z"/>
				<path d="M540.606,620.73c-9.156-2.568-19.4-1.902-27.756,2.469c-3.455-11.039-12.303-20.344-21.994-26.664
					c-6.191,18.002-4.939,38.313,2.846,55.645c-7.49,2.92-13.734,9.359-16.463,17.023c-3.834,10.768-1.313,23.193,5.131,32.633
					c6.439,9.441,16.416,16.082,27.125,20.074c13.037,4.861,28.246,5.869,40.457-0.801c7.867-4.299,13.83-12.361,15.635-20.98
					c7.592-4.465,13.326-12.693,14.883-21.521c2.416-13.703-3.4-27.791-12.172-38.592
					C561.091,631.145,551.61,623.816,540.606,620.73z"/>
			</g>
			<g>
				<g>
					<path fill="#69B700" d="M1092.106,666.936L939.003,537.434l-15.488-28.609l30.783,10.527l153.102,129.504
						c4.992,4.223,5.617,11.695,1.393,16.688l0,0C1104.569,670.535,1097.099,671.16,1092.106,666.936z"/>
					<path fill="#EBCB95" d="M923.515,508.824l15.488,28.609l0.301,0.254c3.412-1.881,6.543-4.402,9.209-7.553
						c2.729-3.225,4.725-6.822,6.012-10.59l-0.227-0.193L923.515,508.824z"/>
					<path fill="#4F3D19" d="M929.19,519.307c1.314-0.695,2.523-1.646,3.545-2.85c0.965-1.143,1.678-2.414,2.146-3.744
						l-11.367-3.889L929.19,519.307z"/>
				</g>
				<g>
					<path fill="#A8BD00" d="M783.257,478.186c-6.674-24.002-0.402-51.201,16.111-69.855c6.539,9.566,11.15,21.576,10.09,33.115
						c-1.061,11.541-6.258,22.658-14.432,30.871C792.021,475.338,787.515,478.371,783.257,478.186z"/>
					<path fill="#839400" d="M783.272,478.189c6.1-24.152,25.031-44.664,48.621-52.68c0.936,11.553-1.012,24.266-7.654,33.762
						s-16.666,16.574-27.838,19.656C792.294,480.061,786.876,480.465,783.272,478.189z"/>
					<path fill="#C43007" d="M843.159,481.828c-3.912-10.738-12.533-20.033-23.516-23.199c-9.035-2.604-19.477-0.445-26.41,5.705
						c-6.934-6.15-17.375-8.309-26.41-5.705c-10.98,3.166-19.604,12.461-23.514,23.199s-3.488,22.715-0.484,33.742
						c3.654,13.426,11.707,26.369,24.246,32.396c8.08,3.885,18.107,4.025,26.162,0.463c8.055,3.563,18.082,3.422,26.162-0.463
						c12.539-6.027,20.594-18.971,24.248-32.396C846.646,504.543,847.069,492.566,843.159,481.828z"/>
					<g>
						<path fill="#FFFFFF" d="M756.618,489.598c-0.203,0-0.41-0.035-0.611-0.109c-0.926-0.336-1.404-1.361-1.066-2.289
							c3.215-8.826,10.275-15.77,18.43-18.119c0.947-0.271,1.936,0.273,2.209,1.221c0.273,0.949-0.273,1.938-1.221,2.211
							c-7.076,2.039-13.232,8.137-16.063,15.91C758.032,489.146,757.347,489.598,756.618,489.598z"/>
					</g>
				</g>
				<g>
					<g>
						<path fill="#0089E0" d="M546.728,1028.232l-153.59,64.711c-11.67,4.918-25.119-0.559-30.037-12.23L268.313,855.74
							c-4.918-11.672,0.557-25.119,12.229-30.037l153.588-64.711c11.672-4.918,25.119,0.557,30.037,12.229l94.789,224.973
							C563.874,1009.867,558.397,1023.314,546.728,1028.232z"/>
						
							<rect x="315.147" y="816.771" transform="matrix(0.9215 -0.3883 0.3883 0.9215 -300.099 218.2216)" fill="#3A9FE0" width="149.535" height="69.801"/>
						<g>
							<g>
								<path fill="#007DCC" d="M300.362,857.996c2.615,6.211-0.297,13.365-6.506,15.98c-6.211,2.617-13.365-0.295-15.982-6.506
									s0.297-13.363,6.506-15.982C290.591,848.875,297.745,851.787,300.362,857.996z"/>
								<path fill="#20577A" d="M291.392,868.857l-29.811,12.561c-3.322,1.4-7.148-0.16-8.549-3.48l0,0
									c-1.398-3.322,0.16-7.148,3.48-8.549l29.811-12.559c3.32-1.4,7.148,0.158,8.549,3.479l0,0
									C296.271,863.631,294.712,867.459,291.392,868.857z"/>
							</g>
							<g>
								<circle fill="#007DCC" cx="303.22" cy="896.204" r="12.201"/>
								<path fill="#20577A" d="M305.493,902.328l-29.811,12.559c-3.322,1.4-7.148-0.158-8.547-3.479l0,0
									c-1.4-3.322,0.156-7.148,3.48-8.549l29.809-12.561c3.322-1.398,7.148,0.16,8.547,3.48l0,0
									C310.372,897.102,308.813,900.93,305.493,902.328z"/>
							</g>
							<g>
								<circle fill="#007DCC" cx="317.322" cy="929.675" r="12.2"/>
								<path fill="#20577A" d="M319.595,935.799l-29.811,12.559c-3.32,1.4-7.148-0.156-8.547-3.48l0,0
									c-1.4-3.32,0.158-7.148,3.479-8.547l29.811-12.561c3.322-1.398,7.148,0.16,8.549,3.48l0,0
									C324.476,930.572,322.917,934.398,319.595,935.799z"/>
							</g>
							<g>
								<circle fill="#007DCC" cx="331.425" cy="963.145" r="12.202"/>
								<path fill="#20577A" d="M333.696,969.27l-29.809,12.561c-3.322,1.398-7.148-0.16-8.549-3.48l0,0
									c-1.4-3.322,0.16-7.148,3.48-8.549l29.811-12.561c3.32-1.398,7.148,0.158,8.547,3.482l0,0
									C338.577,964.043,337.019,967.869,333.696,969.27z"/>
							</g>
							<g>
								<circle fill="#007DCC" cx="345.526" cy="996.614" r="12.201"/>
								<path fill="#20577A" d="M347.8,1002.74l-29.811,12.561c-3.322,1.396-7.148-0.16-8.547-3.482l0,0
									c-1.4-3.322,0.156-7.148,3.479-8.547l29.811-12.561c3.32-1.4,7.148,0.158,8.547,3.48l0,0
									C352.679,997.512,351.12,1001.34,347.8,1002.74z"/>
							</g>
							<g>
								<circle fill="#007DCC" cx="359.628" cy="1030.085" r="12.201"/>
								<path fill="#20577A" d="M361.901,1036.209l-29.811,12.561c-3.32,1.4-7.148-0.158-8.549-3.48l0,0
									c-1.398-3.32,0.16-7.148,3.482-8.547l29.809-12.561c3.322-1.4,7.148,0.158,8.547,3.48l0,0
									C366.78,1030.982,365.222,1034.811,361.901,1036.209z"/>
							</g>
							<g>
								<circle fill="#007DCC" cx="373.73" cy="1063.558" r="12.2"/>
								<path fill="#20577A" d="M376.003,1069.68l-29.809,12.561c-3.322,1.398-7.148-0.158-8.549-3.48l0,0
									c-1.4-3.322,0.158-7.148,3.48-8.549l29.809-12.561c3.322-1.398,7.148,0.16,8.549,3.482l0,0
									C380.884,1064.453,379.325,1068.279,376.003,1069.68z"/>
							</g>
						</g>
					</g>
					<g>
						<polygon fill="#FFCD5A" points="837.95,937.834 828.151,928.279 815.438,933.354 833.198,844.152 855.708,848.635 						"/>
						<g>
							<path fill="#00DBF9" d="M794.079,668.68"/>
							<g>
								<path fill="#0089E0" d="M794.079,670.18c1.935,0,1.935-3,0-3S792.145,670.18,794.079,670.18L794.079,670.18z"/>
							</g>
						</g>
						<path fill="#00DBF9" d="M861.263,911.467L716.21,882.59c-12.316-2.453-20.314-14.424-17.863-26.742l48.371-242.977
							c2.451-12.316,14.424-20.314,26.742-17.861l145.053,28.875c12.316,2.451,20.314,14.426,17.861,26.742l-48.369,242.977
							C885.552,905.922,873.579,913.92,861.263,911.467z"/>
						<path fill="#00AFC7" d="M782.954,596.898l-9.494-1.889c-12.318-2.453-24.291,5.545-26.742,17.861l-48.371,242.977
							c-2.451,12.318,5.547,24.289,17.863,26.742l9.494,1.891L782.954,596.898z"/>
						
							<rect x="781.808" y="646.358" transform="matrix(0.9808 0.1952 -0.1952 0.9808 148.7263 -152.4193)" fill="#00CAE6" width="131.406" height="63.694"/>
					</g>
					<g>
						<g>
							<g>
								<path fill="#784504" d="M644.522,110.346l-25.939,9.2c-8.688,3.082-18.227-1.463-21.307-10.15L565.433,19.62
									c-3.08-8.686,1.463-18.226,10.15-21.308l25.939-9.2c8.686-3.082,18.227,1.463,21.307,10.15l31.842,89.777
									C657.753,97.726,653.208,107.265,644.522,110.346z"/>
							</g>
							<g>
								<path fill="#784504" d="M756.384,70.67l-25.939,9.2c-8.686,3.081-18.225-1.463-21.307-10.149l-31.842-89.776
									c-3.08-8.687,1.463-18.227,10.148-21.307l25.939-9.201c8.688-3.081,18.227,1.463,21.307,10.15l31.844,89.776
									C769.614,58.05,765.071,67.589,756.384,70.67z"/>
							</g>
						</g>
						<g>
							<path fill="#A15D05" d="M825.278,263.819l-138.195,49.016c-22.406,7.947-47.012-3.773-54.957-26.18l-57.941-163.355
								c-15.352-43.281,7.291-90.812,50.572-106.163l62.598-22.203c43.281-15.352,90.813,7.29,106.162,50.571l57.941,163.356
								C859.403,231.266,847.685,255.872,825.278,263.819z"/>
						</g>
						<g>
							<path fill="#784504" d="M806.622,111.433l-5.857,2.078l-19.785-55.786c-6.332-17.849-19.234-32.165-36.332-40.309
								s-36.344-9.143-54.191-2.813l-55.715,19.762c-17.848,6.33-32.164,19.233-40.309,36.331
								c-8.145,17.097-9.143,36.343-2.813,54.192l19.787,55.785l-5.857,2.078l-19.787-55.787
								c-6.885-19.413-5.799-40.345,3.061-58.942c8.857-18.596,24.428-32.628,43.842-39.514l55.713-19.762
								c19.414-6.886,40.346-5.799,58.941,3.059c18.598,8.858,32.631,24.429,39.516,43.842L806.622,111.433z"/>
						</g>
						<g>
							<path fill="#784504" d="M807.155,241.566l-120.133,42.608c-19.477,6.908-40.867-3.28-47.775-22.758l-4.355-12.277
								c-13.344-37.625,6.338-78.943,43.963-92.287l54.414-19.301c37.625-13.345,78.943,6.336,92.289,43.961l4.354,12.279
								C836.819,213.268,826.632,234.658,807.155,241.566z"/>
						</g>
						<g>
							<path fill="#784504" d="M704.999,67.947L682.86,57.401c-5.816-2.77-12.777-0.301-15.547,5.514l-10.545,22.138
								c-2.771,5.815-0.301,12.776,5.514,15.546l22.139,10.546c5.816,2.77,12.775,0.301,15.547-5.514l10.545-22.139
								C713.282,77.678,710.813,70.718,704.999,67.947z M682.021,94.574c0.43,1.212-0.207,2.545-1.418,2.975
								c-1.215,0.43-2.545-0.204-2.977-1.417l-6.854-19.327c-0.432-1.212,0.203-2.545,1.416-2.975
								c1.213-0.431,2.545,0.204,2.977,1.417L682.021,94.574z M696.075,89.588c0.43,1.213-0.205,2.545-1.418,2.976
								c-1.213,0.43-2.545-0.204-2.975-1.417l-6.854-19.327c-0.432-1.213,0.203-2.545,1.416-2.976
								c1.213-0.43,2.545,0.205,2.975,1.418L696.075,89.588z"/>
						</g>
					</g>
					<g>
						<g>
							<g>
								<polygon fill="#A15D05" points="616.046,603.436 611.304,607.17 599.579,574.127 616.413,560.869 								"/>
								<polygon fill="#A15D05" points="706.015,532.584 710.755,528.848 681.382,509.705 664.546,522.963 								"/>
							</g>
							
								<rect x="561.944" y="409.964" transform="matrix(0.7856 -0.6187 0.6187 0.7856 -156.9142 448.4785)" fill="#B56906" width="13.571" height="81.428"/>
							
								<rect x="529.909" y="412.175" transform="matrix(0.7856 -0.6187 0.6187 0.7856 -142.0832 425.3401)" fill="#A15D05" width="25.713" height="11.07"/>
							<g>
								<circle fill="#FF9308" cx="607.177" cy="499.498" r="87.143"/>
								<circle fill="#FFC67D" cx="607.177" cy="499.498" r="74.642"/>
							</g>
							<g>
								<g>
									<path fill="#FF7208" d="M569.817,414.568c2.934-24.68,25.318-42.309,49.998-39.375
										c24.678,2.934,42.307,25.316,39.373,49.996L569.817,414.568z"/>
									<path fill="#DB6207" d="M619.815,375.193c-5.061-0.602-10.023-0.338-14.742,0.674
										c16.869,8.098,27.533,26.266,25.201,45.887l28.914,3.436C662.122,400.51,644.493,378.127,619.815,375.193z"/>
								</g>
								<g>
									<path fill="#FF7208" d="M533.37,443.271c-24.68-2.934-47.064,14.695-49.998,39.375
										c-2.934,24.678,14.695,47.063,39.375,49.996L533.37,443.271z"/>
									<path fill="#DB6207" d="M483.372,482.646c0.602-5.061,2.021-9.822,4.111-14.174c3.918,18.299,19.08,32.924,38.699,35.256
										l-3.436,28.914C498.067,529.709,480.438,507.324,483.372,482.646z"/>
								</g>
							</g>
							<g>
								<g>
									<path fill="#A15D05" d="M571.603,454.324L571.603,454.324c-1.24,0.977-3.037,0.764-4.014-0.475l-5.303-6.734
										c-0.977-1.24-0.764-3.037,0.477-4.014l0,0c1.24-0.977,3.035-0.764,4.012,0.477l5.305,6.734
										C573.054,451.553,572.843,453.35,571.603,454.324z"/>
									<path fill="#A15D05" d="M562.003,535.074L562.003,535.074c0.977,1.24,0.764,3.035-0.477,4.012l-6.734,5.303
										c-1.238,0.977-3.035,0.764-4.012-0.477l0,0c-0.977-1.238-0.762-3.035,0.477-4.012l6.734-5.303
										C559.231,533.621,561.026,533.834,562.003,535.074z"/>
									<path fill="#A15D05" d="M642.753,544.672L642.753,544.672c1.24-0.977,3.035-0.764,4.012,0.477l5.303,6.734
										c0.979,1.238,0.764,3.037-0.477,4.012l0,0c-1.238,0.977-3.035,0.764-4.012-0.477l-5.303-6.734
										C641.3,547.445,641.513,545.648,642.753,544.672z"/>
									<path fill="#A15D05" d="M652.349,463.922L652.349,463.922c-0.975-1.238-0.762-3.035,0.479-4.012l6.734-5.303
										c1.238-0.977,3.035-0.764,4.012,0.477l0,0c0.977,1.24,0.764,3.037-0.477,4.012l-6.734,5.305
										C655.122,465.377,653.327,465.162,652.349,463.922z"/>
								</g>
								<g>
									<path fill="#A15D05" d="M550.079,492.713L550.079,492.713c-0.186,1.566-1.607,2.686-3.174,2.498l-8.512-1.012
										c-1.568-0.186-2.688-1.607-2.5-3.174l0,0c0.186-1.566,1.607-2.686,3.174-2.5l8.512,1.012
										C549.146,489.725,550.265,491.145,550.079,492.713z"/>
									<path fill="#A15D05" d="M600.39,556.596L600.39,556.596c1.568,0.188,2.688,1.607,2.5,3.176l-1.01,8.51
										c-0.188,1.568-1.609,2.688-3.176,2.502l0,0c-1.566-0.188-2.686-1.607-2.5-3.176l1.012-8.512
										C597.403,557.529,598.823,556.41,600.39,556.596z"/>
									<path fill="#A15D05" d="M664.276,506.285L664.276,506.285c0.186-1.566,1.605-2.688,3.174-2.5l8.512,1.012
										c1.566,0.186,2.686,1.607,2.498,3.174l0,0c-0.184,1.568-1.605,2.686-3.174,2.5l-8.512-1.012
										C665.208,509.273,664.089,507.852,664.276,506.285z"/>
									<path fill="#A15D05" d="M613.964,442.4L613.964,442.4c-1.566-0.186-2.688-1.607-2.5-3.174l1.012-8.512
										c0.186-1.566,1.607-2.688,3.174-2.5l0,0c1.566,0.186,2.688,1.607,2.5,3.174l-1.012,8.512
										C616.952,441.467,615.532,442.586,613.964,442.4z"/>
								</g>
							</g>
						</g>
						<g>
							<polygon fill="#784504" points="609.562,503.16 566.786,501.588 567.048,494.451 604.794,495.838 628.483,436.504 
								635.118,439.152 							"/>
						</g>
					</g>
					<g>
						<path fill="#FFFFFF" d="M932.536,121.482c-24.963,12.971-44.184,36.561-51.844,63.631
							c-7.123,25.172-3.822,53.994,12.256,74.631s45.781,30.896,70.01,21.029c26.752-10.896,40.371-41.096,64.605-56.814
							c19.936-12.93,46.121-15.421,63.404-31.728c28.469-26.858,15.986-84.8-26.611-85.072c-20.305-0.13-40.342,1.216-60.766,0.678
							C979.257,107.194,954.403,110.121,932.536,121.482z"/>
						<circle fill="#FF3000" cx="933.659" cy="243.797" r="23.364"/>
						<circle fill="#75FF29" cx="921.099" cy="177.237" r="23.364"/>
						<circle fill="#0049E9" cx="975.933" cy="150.783" r="23.364"/>
						<circle fill="#F3F900" cx="1053.56" cy="148.96" r="23.363"/>
						<circle fill="#FF75C3" cx="1001.767" cy="203.901" r="23.364"/>
					</g>
					<g>
						
							<rect x="821.112" y="366.268" transform="matrix(0.9282 0.372 -0.372 0.9282 218.6934 -334.3883)" fill="#FF3DB0" width="309.643" height="66.589"/>
						
							<rect x="829.694" y="367.923" transform="matrix(0.9282 0.372 -0.372 0.9282 211.3422 -339.1168)" fill="#C9308A" width="309.643" height="20.452"/>
					</g>
					<g>
						<path fill="#FFDC08" d="M1002.229-79.2L881.53,80.936l-27.695,17.07l8.783-31.324L983.317-93.454
							c3.936-5.221,11.361-6.264,16.582-2.328l0,0C1005.122-91.845,1006.165-84.422,1002.229-79.2z"/>
						<path fill="#EBCB95" d="M853.835,98.006l27.695-17.07l0.236-0.314c-2.07-3.3-4.762-6.286-8.059-8.77
							c-3.371-2.542-7.076-4.334-10.91-5.408l-0.18,0.238L853.835,98.006z"/>
						<path fill="#4F3D19" d="M863.983,91.751c-0.768-1.274-1.785-2.428-3.045-3.379c-1.195-0.9-2.504-1.54-3.859-1.934
							l-3.244,11.567L863.983,91.751z"/>
					</g>
					<g>
						<path fill="#FF5020" d="M627.116,911.043l-33.607-197.691l6.596-31.857l16.752,27.889l33.605,197.689
							c1.098,6.447-3.24,12.563-9.688,13.658l0,0C634.327,921.826,628.212,917.49,627.116,911.043z"/>
						<path fill="#EBCB95" d="M600.104,681.494l-6.596,31.857l0.066,0.389c3.82,0.758,7.84,0.85,11.908,0.158
							c4.164-0.707,8.01-2.17,11.422-4.223l-0.049-0.293L600.104,681.494z"/>
						<path fill="#4F3D19" d="M597.688,693.166c1.453,0.318,2.99,0.369,4.547,0.105c1.475-0.25,2.838-0.764,4.055-1.479
							l-6.186-10.299L597.688,693.166z"/>
					</g>
					<g>
						<path fill="#1BCAFF" d="M769.46,1047.893l170.195-106.041l31.98-5.975l-19.457,26.072l-170.195,106.043
							c-5.551,3.459-12.854,1.762-16.311-3.787l0,0C762.214,1058.654,763.909,1051.352,769.46,1047.893z"/>
						<path fill="#EBCB95" d="M971.636,935.877l-31.98,5.975l-0.334,0.207c0.744,3.824,2.184,7.578,4.365,11.082
							c2.234,3.584,5.047,6.588,8.24,8.967l0.252-0.158L971.636,935.877z"/>
						<path fill="#4F3D19" d="M959.917,938.066c0.258,1.465,0.793,2.906,1.629,4.246c0.789,1.271,1.781,2.338,2.904,3.193
							l7.186-9.629L959.917,938.066z"/>
					</g>
					<g>
						<path fill="#A8BD00" d="M484.116,655.803c-15.367-19.609-19.998-47.137-11.898-70.695c9.709,6.33,18.57,15.654,22.014,26.719
							s2.904,23.324-1.498,34.045C491.116,649.813,488.118,654.342,484.116,655.803z"/>
						<path fill="#C43007" d="M521.968,609.301c-11.004-3.086-23.584-1.506-32.561,5.57c-7.383,5.818-11.721,15.561-10.768,24.781
							c-9.041,2.043-16.885,9.266-20.039,18.123c-3.834,10.766-1.313,23.191,5.131,32.633c6.441,9.439,16.416,16.082,27.125,20.072
							c13.037,4.863,28.248,5.869,40.459-0.799c7.867-4.299,13.83-12.361,15.635-20.98c7.592-4.467,13.324-12.695,14.883-21.521
							c2.416-13.703-3.4-27.793-12.174-38.592C542.452,619.717,532.972,612.389,521.968,609.301z"/>
						<g>
							<path fill="#FFFFFF" d="M477.804,684.129c-0.117,0.164-0.266,0.311-0.443,0.432c-0.816,0.557-1.928,0.348-2.482-0.467
								c-5.295-7.76-6.816-17.547-3.969-25.539c0.332-0.928,1.352-1.414,2.281-1.084s1.414,1.352,1.082,2.281
								c-2.471,6.939-1.107,15.494,3.555,22.326C478.263,682.717,478.229,683.537,477.804,684.129z"/>
						</g>
					</g>
				</g>
			</g>
		</g>
	</g>
</g>
<g id="TEXT">
	<g>
		<text transform="matrix(1 0 0 1 93.562 531.9473)"><tspan x="0" y="0" fill="#6D6D6D" font-family="'Gabriola'" font-size="51.5735">A</tspan><tspan x="25.548" y="0" fill="#6D6D6D" font-family="'Gabriola'" font-size="48.9977">pache</tspan><tspan x="113.71" y="0" fill="#FF7208" font-family="'Gabriola'" font-size="50.7801">V</tspan><tspan x="136.905" y="0" fill="#FF7208" font-family="'Gabriola'" font-size="48.9977">irtual</tspan></text>
		<rect x="54.312" y="540.287" fill="none" width="393.253" height="40.661"/>
		<text transform="matrix(1 0 0 1 54.312 550.5156)" fill="#232222" font-family="'Arial-ItalicMT'" font-size="14.2857">Una herramienta de interacción entre apoderados y docentes</text>
		<g>
			<circle fill="#FF7208" cx="64.278" cy="524.44" r="3.616"/>
			<circle fill="#8C8C8C" cx="74.195" cy="525.827" r="5.397"/>
			<circle fill="#89DD05" cx="84.588" cy="520.176" r="6.456"/>
			<circle fill="#0089E0" cx="84.691" cy="508.42" r="7.982"/>
		</g>
		
			<text transform="matrix(1 -0.0046 0.0046 1 119.3452 476.2939)" fill="#111111" font-family="'Arial-BoldItalicMT'" font-size="17.1429">Licencia MIT administrado por:</text>
	</g>
	<g>
		<path display="none" fill-rule="evenodd" clip-rule="evenodd" fill="#FCFAFA" d="M296.832,71.595
			c41.925,0,83.845,0.021,125.768-0.062c2.193-0.003,2.635,0.43,2.623,2.622c-0.104,23.361-0.092,46.724-0.006,70.084
			c0.006,1.909-0.389,2.294-2.297,2.293c-84.06-0.062-168.118-0.061-252.178,0c-1.906,0.001-2.3-0.382-2.291-2.293
			c0.081-23.468,0.081-46.936,0-70.405c-0.009-1.909,0.385-2.295,2.291-2.293C212.774,71.612,254.802,71.595,296.832,71.595z
			 M255.424,99.716c0,1.935-0.064,4.278,0.018,6.619c0.081,2.323-1.295,4.375-2.961,4.774c-1.143,0.276-3.499-1.101-4.164-3.221
			c-0.315-1.006-0.888-1.93-1.345-2.892c-2.606-5.478-5.018-11.056-8.201-16.24c-1.118-1.821-2.303-3.613-4.292-4.627
			c-3.083-1.565-6.96-0.114-6.944,2.959c0.036,7.143-3.641,13.035-5.891,19.409c-0.612,1.74-1.486,3.316-3.37,4.025
			c-0.914,0.345-1.333,0.996-1.222,1.985c0.116,0.985,0.761,1.578,1.625,1.756c2.842,0.583,5.716,0.667,8.563,0.033
			c0.945-0.211,1.808-0.761,1.963-1.866c0.136-1.009-0.489-1.569-1.354-1.902c-0.928-0.356-1.377-0.96-1.066-1.976
			c0.306-0.995,1.105-1.245,2-1.24c2.13,0.013,4.259,0.063,6.389,0.12c0.894,0.026,1.712,0.306,2.101,1.191
			c0.474,1.074-0.368,1.459-1.075,1.972c-2.093,1.523-1.095,3.253,0.579,3.467c5.106,0.656,10.465,2.513,15.163-1.445
			c0.469-0.396,0.534-0.418,1.104,0.064c4.063,3.445,8.781,2.357,13.337,1.496c1.645-0.311,2.253-2.155,0.914-3.201
			c-2.129-1.666-2.164-3.777-2.164-6.001c-0.002-1.078-0.618-2.666,0.904-3.038c1.554-0.381,2.577,0.781,3.062,2.213
			c0.71,2.116,1.212,4.311,2.02,6.386c1.743,4.471,8.01,6.479,12.079,3.878c1.448-0.926,2.735-2.5,0.636-3.695
			c-1.821-1.037-2.164-2.455-2.478-4.113c-0.513-2.718-1.435-5.136-4.211-6.357c-1.902-0.837-1.284-1.541-0.066-2.672
			c3.927-3.645,3.104-9.453-1.587-12.096c-2.104-1.184-4.412-1.679-6.775-1.492c-4.043,0.318-8.072,0.499-12.125,0.141
			c-0.932-0.082-1.948,0.045-2.831,0.344c-2.117,0.708-2.483,2.396-0.672,3.708c1.513,1.096,1.892,2.445,1.963,4.101
			C255.147,94.624,255.282,96.964,255.424,99.716z M296.249,84.326c-2.766,0-5.535-0.033-8.303,0.015
			c-1.23,0.021-2.364,0.475-2.851,1.697c-0.499,1.252,0.348,1.965,1.32,2.557c1.478,0.899,1.663,2.409,1.706,3.914
			c0.122,4.471,0.221,8.946,0.261,13.419c0.017,1.595-0.098,3.149-1.559,4.317c-2.058,1.643-1.138,3.136,0.751,3.832
			c3.902,1.438,7.975,1.389,11.928,0.194c1.617-0.487,2.217-2.167,0.776-3.22c-2.232-1.63-1.968-3.856-2.148-6.016
			c-0.09-1.072-0.553-2.599,1.037-2.947c1.443-0.316,2.432,0.731,2.894,2.004c0.72,1.999,1.189,4.089,1.915,6.086
			c1.755,4.839,7.603,6.988,12.074,4.47c1.442-0.813,2.727-2.606,1.147-3.469c-2.62-1.427-2.553-3.694-3.139-5.858
			c-0.621-2.279-1.782-4.062-4.039-5.029c-1.208-0.518-1.789-1.186-0.351-2.231c2.901-2.106,3.45-5.027,2.445-8.246
			c-1.036-3.326-3.767-4.75-6.942-5.408C302.209,83.794,299.226,84.425,296.249,84.326z M375.568,84.263
			c-1.721,0.093-2.69,0.065-3.633,0.216c-1.263,0.204-2.613,0.457-3.109,1.875c-0.547,1.579,0.566,2.342,1.724,2.991
			c1.519,0.849,1.768,2.39,1.937,3.841c0.528,4.557,0.854,9.133,0.492,13.723c-0.09,1.158-0.212,2.254-1.131,3.218
			c-2.214,2.323-1.726,4.134,1.336,4.83c2.402,0.546,4.897,0.648,7.256-0.25c1.759-0.67,2.911-2.31,1.206-3.628
			c-2.694-2.083-2.463-4.747-2.525-7.48c-0.02-0.943-0.109-2.099,0.919-2.536c1.025-0.435,1.781,0.437,2.482,1.082
			c4.076,3.76,8.125,7.548,12.217,11.289c1.059,0.97,2.064,2.516,3.787,1.677c1.557-0.759,1.396-2.5,1.549-3.959
			c0.088-0.845,0.063-1.705,0.037-2.557c-0.146-4.904-0.348-9.804-0.445-14.706c-0.037-1.919,0.146-3.666,2.088-5.004
			c1.828-1.262,1.252-3.333-1.014-4.033c-2.586-0.798-5.307-0.739-7.91-0.164c-2.316,0.51-2.93,2.687-1.053,3.96
			c2.201,1.491,2.148,3.501,2.211,5.608c0.023,0.801,0.287,1.83-0.684,2.273c-0.951,0.438-1.592-0.361-2.205-0.91
			c-3.257-2.915-6.564-5.783-9.708-8.819C379.497,84.969,377.478,83.899,375.568,84.263z M352.091,115.34
			c8.686,0.029,15.391-6.315,15.42-14.585c0.032-9.083-7.178-16.657-15.916-16.714c-8.798-0.059-15.278,6.309-15.282,15.019
			C336.304,108.235,343.161,115.31,352.091,115.34z M187.419,99.421c0.32,5.595,3.103,10.546,8.891,13.64
			c6.076,3.244,11.832,1.491,17.328-1.44c1.691-0.9,2.292-3.047,2.244-5.058c-0.054-2.341-1.312-2.953-3.256-1.558
			c-1.524,1.094-3.144,1.753-5.009,1.846c-5.582,0.28-9.803-4.675-9.744-11.444c0.018-2.239,0.446-4.314,2.731-5.334
			c2.211-0.985,4.156-0.088,5.967,1.173c1.545,1.078,2.224,2.815,3.234,4.308c1.616,2.383,4.635,2.246,5.944-0.202
			c2.1-3.929-0.854-9.409-5.245-9.827c-0.82-0.077-1.618-0.479-2.399-0.797C198.24,80.715,187.464,87.92,187.419,99.421z
			 M326.631,115.105c2.149,0.094,4.281-0.117,6.317-0.758c2.489-0.782,2.912-2.61,0.854-4.126c-1.289-0.948-1.814-2.069-1.871-3.472
			c-0.193-4.782-0.332-9.569-0.419-14.355c-0.022-1.267,0.206-2.457,1.3-3.444c2.188-1.973,1.805-3.619-1.078-4.286
			c-4.006-0.927-8.059-0.77-11.971,0.543c-1.99,0.668-2.486,2.065-0.76,3.563c1.09,0.947,2.02,1.888,2.182,3.368
			c0.59,5.409,0.619,10.831,0.373,16.259c-0.05,1.057-0.711,1.694-1.426,2.376c-1.701,1.624-0.971,2.846,0.84,3.634
			C322.767,115.189,324.711,115.157,326.631,115.105z M293.765,130.709c-0.827-2.161-4.373-3.088-1.908-6.539
			c0.848-1.185-0.147-2.727-1.487-3.46c-2.252-1.236-4.541-1.169-6.571,0.458c-1.146,0.915-1.865,2.21-0.713,3.604
			c1.205,1.458,0.859,2.265-0.721,3.125c-1.87,1.015-3.215,2.558-2.829,4.905c0.419,2.518,2.219,3.844,4.485,4.478
			c2.082,0.581,4.206,0.496,6.282-0.278c0.724-0.267,1.341-0.921,2.338-0.281c1.807,1.163,3.817,0.476,5.925,0.582
			c-2.451-4.919-2.338-4.903-2.185-6.048c0.184-1.369,1.29-3.539-0.439-3.918C293.724,126.847,295.599,129.626,293.765,130.709z
			 M292.999,118.995c-0.003,0.223-0.003,0.448-0.006,0.671c35.606,0,71.211,0,106.816,0c0-0.224,0.004-0.448,0.004-0.671
			C364.207,118.995,328.601,118.995,292.999,118.995z M282.867,119.131c-0.011-0.201-0.019-0.404-0.026-0.604
			c-31.208,0-62.412,0-93.62,0c-0.002,0.2-0.005,0.403-0.005,0.604C220.431,119.131,251.649,119.131,282.867,119.131z
			 M380.104,131.763c0.261,0.069,0.523,0.14,0.781,0.21c0,1.35,0.071,2.705-0.018,4.049c-0.11,1.608,0.864,1.582,2.014,1.623
			c1.357,0.049,1.925-0.4,1.821-1.821c-0.175-2.437-0.185-4.884-0.337-7.323c-0.06-0.941,0.441-2.292-1.312-2.34
			c-1.288-0.035-2.527-0.169-3.12,1.449c-0.516,1.407-1.251,2.737-2.116,4.586c-1.104-2.115-1.901-3.594-2.656-5.094
			c-0.628-1.244-1.758-0.936-2.79-0.976c-0.781-0.031-1.206,0.334-1.188,1.112c0.065,3.08,0.15,6.159,0.234,9.239
			c0.023,0.773,0.431,1.139,1.214,1.069c0.735-0.067,0.753-0.619,0.758-1.15c0.014-1.462,0.005-2.924,0.005-4.389
			c1.062,0.931,1.504,1.902,2.078,2.787c0.543,0.836,0.633,2.011,1.873,2.598C378.284,135.474,379.195,133.619,380.104,131.763z
			 M254.139,137.458c4.039,0.015,7.065-2.552,6.981-5.921c-0.089-3.448-3.242-6.054-7.351-6.075c-4.043-0.018-7.06,2.54-6.974,5.92
			C246.882,134.829,250.039,137.442,254.139,137.458z M345.596,131.513c0,1.488-0.017,2.975,0.007,4.462
			c0.01,0.747,0.014,1.573,1.109,1.525c2.64-0.111,5.318,0.431,7.915-0.44c2.107-0.708,3.423-2.168,3.759-4.341
			c0.345-2.232-0.762-3.893-2.508-5.156c-1.428-1.034-3.089-1.371-4.809-1.488C345.138,125.677,345.138,125.676,345.596,131.513z
			 M195.963,125.293c-4.147-0.019-7.026,2.392-6.976,5.84c0.052,3.473,3.139,6.046,7.291,6.076c4.13,0.029,6.993-2.39,6.939-5.868
			C203.166,127.816,200.161,125.311,195.963,125.293z M233.245,137.399c1.826-0.125,3.676-0.52,5.373-1.523
			c1.338-0.794,0.952-2.059,0.759-3.14c-0.214-1.181-1.342-0.724-2.125-0.813c-1.346-0.153-1.648,0.627-1.528,1.76
			c0.117,1.105-0.2,1.856-1.456,1.998c-1.768,0.198-3.232-0.315-4.018-1.942c-0.99-2.047-1.11-4.212,0.534-5.962
			c1.251-1.327,2.884-1.14,4.404-0.225c0.812,0.492,1.771,2.087,2.52,0.665c0.68-1.292-1.098-1.798-2.09-2.239
			c-1.925-0.856-3.934-0.805-5.924-0.116c-2.438,0.846-4.014,2.478-4.155,5.103c-0.142,2.626,1.287,4.418,3.575,5.553
			C230.374,137.144,231.736,137.367,233.245,137.399z M344.318,137.276c-0.245-0.663-0.395-1.169-0.612-1.644
			c-1.232-2.707-2.542-5.376-3.696-8.113c-0.563-1.339-1.489-1.487-2.755-1.552c-1.555-0.08-1.977,0.797-2.387,1.984
			c-0.831,2.405-1.771,4.775-2.62,7.175c-0.26,0.733-1.183,1.754-0.155,2.231c1.181,0.552,1.439-0.753,1.86-1.605
			c1.015-2.059,4.65-2.441,5.468-0.431C340.4,137.736,341.984,137.765,344.318,137.276z M317.868,137.176
			c-1.606-3.48-3.173-6.712-4.581-10.01c-0.567-1.329-1.549-1.158-2.602-1.244c-1.282-0.105-1.889,0.434-2.291,1.631
			c-0.846,2.514-1.9,4.958-2.746,7.469c-0.231,0.69-1.248,1.688-0.17,2.217c1.24,0.607,1.468-0.721,1.886-1.549
			c1.076-2.124,4.643-2.564,5.475-0.504C313.81,137.604,315.351,137.688,317.868,137.176z M405.504,137.489
			c-1.57-3.399-3.072-6.429-4.359-9.547c-0.613-1.476-1.559-1.701-2.959-1.755c-1.627-0.061-1.898,1.038-2.305,2.121
			c-0.855,2.281-1.801,4.54-2.492,6.869c-0.211,0.701-1.564,1.738-0.133,2.342c1.287,0.543,1.549-0.823,1.77-1.675
			c0.35-1.321,1.176-1.633,2.373-1.507c1.18,0.127,2.729-0.514,3.191,1.234C401.295,138.224,403.196,137.793,405.504,137.489z
			 M266.875,137.545c2.209-0.157,4.245-0.551,4.829-2.979c0.596-2.455-1.178-3.38-3.035-4.165c-0.686-0.288-1.37-0.601-2.007-0.98
			c-0.566-0.338-1.009-0.832-0.712-1.571c0.298-0.737,0.989-0.693,1.621-0.709c0.813-0.02,1.388,0.461,1.935,0.98
			c0.538,0.508,0.967,0.2,1.325-0.213c0.366-0.43,0.05-0.813-0.263-1.077c-1.589-1.347-3.399-1.671-5.382-1.064
			c-1.551,0.477-2.626,1.38-2.745,3.124c-0.135,1.988,1.254,2.782,2.74,3.499c0.479,0.232,0.984,0.418,1.438,0.691
			c0.792,0.475,1.978,0.882,1.321,2.102c-0.559,1.036-1.666,0.869-2.538,0.365c-0.857-0.494-1.888-1.877-2.513-0.395
			c-0.564,1.342,1.205,1.64,2.205,2.053C265.666,137.442,266.335,137.45,266.875,137.545z M410.842,138.08
			c1.988-0.194,3.988-0.734,4.484-3.146c0.463-2.266-1.229-3.179-2.971-3.923c-0.393-0.167-0.795-0.32-1.162-0.532
			c-0.863-0.499-2.363-0.806-1.6-2.184c0.617-1.113,1.873-0.769,2.82-0.133c0.699,0.469,1.432,1.36,1.994,0.105
			c0.365-0.821-0.637-1.224-1.238-1.57c-0.939-0.538-1.992-0.756-3.084-0.654c-1.936,0.182-3.604,0.863-4.072,2.955
			c-0.467,2.08,0.953,3.094,2.576,3.882c0.67,0.326,1.373,0.592,2.014,0.97c0.648,0.378,1.363,0.876,0.965,1.756
			c-0.432,0.954-1.35,0.957-2.195,0.659c-0.477-0.169-0.893-0.546-1.299-0.876c-0.633-0.514-1.225-0.371-1.646,0.196
			c-0.568,0.767,0.217,1.098,0.662,1.425C408.153,137.791,409.391,138.071,410.842,138.08z M181.71,125.257
			c-0.906,0.223-2.036-0.151-3.177,0.494c-3.403,1.924-4.578,5.35-2.67,8.307c1.996,3.093,7.622,4.169,10.494,1.923
			c0.595-0.467,1.802-1.097,1.218-1.961c-0.739-1.094-1.375,0.158-2.019,0.563c-3.123,1.963-6.062,0.621-6.427-2.987
			c-0.179-1.735-0.057-3.498,1.718-4.477c1.6-0.882,3.099-0.483,4.382,0.736c0.571,0.543,1.161,1.164,1.835,0.34
			c0.889-1.081-0.333-1.424-0.896-1.849C184.925,125.416,183.447,125.18,181.71,125.257z M215.367,130.878
			c0.205,6.684,0.205,6.687,6.654,6.121c0.577-0.05,1.457,0.236,1.526-0.643c0.095-1.224-0.97-0.819-1.615-0.869
			c-1.219-0.091-2.604,0.353-2.681-1.725c-0.079-2.156,1.365-1.657,2.56-1.772c0.65-0.062,1.732,0.341,1.677-0.818
			c-0.056-1.116-1.146-0.752-1.778-0.703c-1.795,0.142-3.074-0.281-2.515-2.374c0.432-1.619,1.949-0.629,2.96-0.862
			c0.585-0.136,1.418,0.095,1.432-0.809c0.012-0.881-0.785-0.791-1.408-0.875C215.658,124.662,215.188,125.024,215.367,130.878z
			 M330.617,134.54c-1.583-0.568-2.158,0.695-3.004,1.112c-1.45,0.713-2.656,0.567-3.855-0.292c-1.799-1.29-2.401-4.829-1.024-6.65
			c1.646-2.175,3.609-1.873,5.492-0.279c0.617,0.519,1.12,1.081,1.851,0.309c0.912-0.967-0.207-1.289-0.673-1.666
			c-2.747-2.237-8.315-1.532-10.397,1.269c-1.88,2.523-1.144,6.059,1.674,8.052C324.009,138.749,328.238,138.045,330.617,134.54z
			 M353.39,74.737c-1.854,0.246-3.804-0.11-3.637,2.595c0.026,0.438-0.753,0.946-1.193,1.389c-0.669,0.672-1.544,1.28-1.031,2.408
			c0.543,1.198,1.674,1.179,2.737,1.088c2.635-0.225,4.923-1.259,6.779-3.15c1.556-1.584,1.148-2.86-0.798-3.643
			C355.282,75.037,354.205,74.925,353.39,74.737z M368.359,126.611c-1.184,0-2.135,0.002-3.087,0
			c-5.154-0.018-5.154-0.018-4.966,4.979c0.226,6.132,0.228,6.147,6.409,5.965c0.76-0.023,2.076,0.484,2.162-0.587
			c0.134-1.591-1.396-0.905-2.148-0.896c-1.855,0.021-3.603,0.055-2.952-2.566c0.478-1.927,2.149-0.594,3.225-0.94
			c0.559-0.18,1.396,0.09,1.315-0.882c-0.057-0.694-0.706-0.643-1.224-0.663c-0.426-0.019-0.852-0.04-1.277-0.009
			c-1.081,0.079-1.796-0.088-1.846-1.478c-0.049-1.333,0.47-1.653,1.661-1.614C366.519,127.949,367.581,128.248,368.359,126.611z
			 M204.993,130.836c0.253,6.314,0.253,6.313,6.668,6.139c0.421-0.013,0.849,0.009,1.267-0.031c0.402-0.038,0.876-0.053,0.928-0.607
			c0.069-0.736-0.513-0.959-1.014-0.862c-4.478,0.861-3.957-2.224-3.945-4.928c0.001-1.059-0.125-2.124-0.05-3.175
			c0.121-1.629-0.715-1.9-2.12-1.916c-1.44-0.018-1.852,0.56-1.754,1.891C205.058,128.503,204.993,129.672,204.993,130.836z
			 M244.882,131.542c-0.039,0-0.077,0-0.115,0c0-1.371-0.083-2.749,0.018-4.112c0.13-1.753-0.926-1.753-2.197-1.787
			c-1.49-0.039-1.739,0.702-1.661,1.967c0.156,2.526,0.318,5.059,0.286,7.588c-0.024,1.584,0.609,1.912,2.051,1.931
			c1.651,0.023,1.979-0.687,1.803-2.112C244.922,133.87,244.937,132.701,244.882,131.542z M387.231,131.651c0.06,0,0.118,0,0.176,0
			c0,1.267,0.073,2.537-0.019,3.799c-0.113,1.571,0.354,2.249,2.096,2.243c1.721-0.005,1.842-0.817,1.778-2.145
			c-0.125-2.529-0.223-5.066-0.203-7.597c0.016-1.713-0.986-1.739-2.266-1.796c-1.621-0.073-1.63,0.853-1.573,2.014
			C387.275,129.326,387.231,130.49,387.231,131.651z"/>
		<path fill-rule="evenodd" clip-rule="evenodd" fill="#DF0A11" d="M255.424,99.716c-0.142-2.752-0.277-5.092-0.375-7.433
			c-0.071-1.656-0.45-3.005-1.963-4.101c-1.811-1.313-1.445-3,0.672-3.708c0.883-0.298,1.899-0.426,2.831-0.344
			c4.053,0.358,8.082,0.178,12.125-0.141c2.363-0.187,4.671,0.309,6.775,1.492c4.691,2.644,5.514,8.452,1.587,12.096
			c-1.218,1.131-1.836,1.834,0.066,2.672c2.776,1.221,3.698,3.639,4.211,6.357c0.313,1.658,0.656,3.076,2.478,4.113
			c2.1,1.196,0.813,2.77-0.636,3.695c-4.069,2.601-10.336,0.593-12.079-3.878c-0.808-2.076-1.31-4.27-2.02-6.386
			c-0.485-1.432-1.508-2.594-3.062-2.213c-1.522,0.372-0.907,1.959-0.904,3.038c0,2.224,0.035,4.335,2.164,6.001
			c1.339,1.045,0.731,2.89-0.914,3.201c-4.556,0.861-9.273,1.949-13.337-1.496c-0.57-0.482-0.635-0.46-1.104-0.064
			c-4.698,3.958-10.057,2.101-15.163,1.445c-1.674-0.214-2.672-1.944-0.579-3.467c0.707-0.513,1.549-0.898,1.075-1.972
			c-0.388-0.885-1.207-1.165-2.101-1.191c-2.13-0.057-4.259-0.107-6.389-0.12c-0.895-0.005-1.694,0.245-2,1.24
			c-0.312,1.016,0.138,1.62,1.066,1.976c0.865,0.333,1.491,0.893,1.354,1.902c-0.155,1.105-1.019,1.655-1.963,1.866
			c-2.847,0.634-5.721,0.55-8.563-0.033c-0.863-0.178-1.509-0.771-1.625-1.756c-0.111-0.989,0.308-1.64,1.222-1.985
			c1.884-0.709,2.758-2.285,3.37-4.025c2.25-6.374,5.926-12.266,5.891-19.409c-0.016-3.073,3.861-4.524,6.944-2.959
			c1.989,1.014,3.175,2.806,4.292,4.627c3.183,5.184,5.595,10.762,8.201,16.24c0.457,0.961,1.03,1.885,1.345,2.892
			c0.665,2.12,3.021,3.497,4.164,3.221c1.666-0.399,3.042-2.451,2.961-4.774C255.36,103.994,255.424,101.65,255.424,99.716z
			 M264.452,93.036c0.754,1.325-1.199,3.813,1.582,4.054c2.478,0.214,3.086-1.759,3.008-3.874c-0.075-1.916-0.094-4.255-2.618-4.298
			C263.358,88.864,265.211,91.632,264.452,93.036z M231.917,101.97c0.848-0.744,3.059,0.873,2.741-1.279
			c-0.276-1.839-1.224-4.634-3.106-4.695c-2.084-0.069-2.105,2.868-2.375,4.554C228.818,102.817,230.993,101.283,231.917,101.97z"/>
		<path fill-rule="evenodd" clip-rule="evenodd" fill="#DF0A11" d="M296.249,84.326c2.977,0.099,5.96-0.531,8.924,0.083
			c3.176,0.659,5.906,2.082,6.942,5.408c1.005,3.218,0.456,6.14-2.445,8.246c-1.438,1.045-0.857,1.713,0.351,2.231
			c2.257,0.967,3.418,2.75,4.039,5.029c0.586,2.164,0.519,4.431,3.139,5.858c1.579,0.862,0.295,2.655-1.147,3.469
			c-4.472,2.518-10.319,0.369-12.074-4.47c-0.726-1.998-1.195-4.088-1.915-6.086c-0.462-1.273-1.45-2.32-2.894-2.004
			c-1.59,0.348-1.127,1.875-1.037,2.947c0.181,2.16-0.084,4.386,2.148,6.016c1.44,1.053,0.841,2.733-0.776,3.22
			c-3.953,1.195-8.025,1.244-11.928-0.194c-1.889-0.696-2.809-2.189-0.751-3.832c1.461-1.167,1.575-2.722,1.559-4.317
			c-0.04-4.474-0.139-8.948-0.261-13.419c-0.043-1.505-0.229-3.015-1.706-3.914c-0.973-0.591-1.819-1.304-1.32-2.557
			c0.486-1.223,1.62-1.676,2.851-1.697C290.714,84.292,293.483,84.326,296.249,84.326z M297.434,93.29
			c1.211,1.008-1.31,3.604,1.656,3.899c2.386,0.238,3.046-1.664,3.009-3.635c-0.036-2.02-0.076-4.58-2.818-4.536
			C296.493,89.062,298.275,91.709,297.434,93.29z"/>
		<path fill-rule="evenodd" clip-rule="evenodd" fill="#DF0A11" d="M375.568,84.263c1.909-0.363,3.929,0.706,5.824,2.537
			c3.144,3.036,6.45,5.905,9.708,8.819c0.613,0.549,1.254,1.348,2.205,0.91c0.971-0.443,0.707-1.472,0.684-2.273
			c-0.063-2.106-0.01-4.117-2.211-5.608c-1.877-1.274-1.264-3.451,1.053-3.96c2.604-0.576,5.324-0.635,7.91,0.164
			c2.266,0.699,2.842,2.771,1.014,4.033c-1.941,1.338-2.125,3.085-2.088,5.004c0.098,4.902,0.299,9.802,0.445,14.706
			c0.025,0.852,0.051,1.712-0.037,2.557c-0.152,1.458,0.008,3.2-1.549,3.959c-1.723,0.839-2.729-0.707-3.787-1.677
			c-4.092-3.741-8.141-7.529-12.217-11.289c-0.701-0.645-1.457-1.517-2.482-1.082c-1.028,0.437-0.938,1.593-0.919,2.536
			c0.063,2.733-0.169,5.398,2.525,7.48c1.705,1.318,0.553,2.958-1.206,3.628c-2.358,0.897-4.854,0.795-7.256,0.25
			c-3.062-0.696-3.55-2.506-1.336-4.83c0.919-0.964,1.041-2.061,1.131-3.218c0.362-4.589,0.036-9.166-0.492-13.723
			c-0.169-1.452-0.418-2.992-1.937-3.841c-1.157-0.648-2.271-1.412-1.724-2.991c0.496-1.418,1.847-1.671,3.109-1.875
			C372.878,84.328,373.848,84.355,375.568,84.263z"/>
		<path fill-rule="evenodd" clip-rule="evenodd" fill="#DF0A11" d="M352.091,115.34c-8.93-0.03-15.787-7.105-15.778-16.281
			c0.004-8.71,6.484-15.078,15.282-15.019c8.738,0.057,15.948,7.631,15.916,16.714C367.481,109.025,360.776,115.369,352.091,115.34z
			 M357.185,104.333c-0.41-4.117-1.301-8.143-3.771-11.623c-1.067-1.504-2.463-2.838-4.542-2.071
			c-1.991,0.733-2.492,2.523-2.38,4.428c0.24,4.104,1.601,7.882,3.688,11.395c0.985,1.662,2.408,2.822,4.47,2.25
			C356.782,108.12,357.038,106.248,357.185,104.333z"/>
		<path fill-rule="evenodd" clip-rule="evenodd" fill="#DF0A11" d="M187.419,99.421c0.045-11.501,10.821-18.706,20.686-14.693
			c0.782,0.317,1.58,0.72,2.399,0.797c4.392,0.418,7.345,5.897,5.245,9.827c-1.309,2.448-4.328,2.585-5.944,0.202
			c-1.01-1.492-1.688-3.23-3.234-4.308c-1.811-1.261-3.756-2.158-5.967-1.173c-2.285,1.02-2.714,3.095-2.731,5.334
			c-0.059,6.769,4.162,11.724,9.744,11.444c1.865-0.093,3.485-0.752,5.009-1.846c1.944-1.396,3.203-0.783,3.256,1.558
			c0.048,2.011-0.553,4.158-2.244,5.058c-5.496,2.931-11.252,4.684-17.328,1.44C190.521,109.968,187.739,105.017,187.419,99.421z"/>
		<path fill-rule="evenodd" clip-rule="evenodd" fill="#DF0A11" d="M326.634,115.11c-1.923,0.047-3.867,0.08-5.662-0.701
			c-1.811-0.789-2.541-2.01-0.84-3.634c0.715-0.682,1.376-1.319,1.426-2.376c0.246-5.428,0.217-10.85-0.373-16.259
			c-0.162-1.48-1.092-2.42-2.182-3.368c-1.727-1.498-1.23-2.895,0.76-3.563c3.912-1.313,7.965-1.471,11.971-0.543
			c2.883,0.667,3.267,2.313,1.078,4.286c-1.094,0.987-1.322,2.177-1.3,3.444c0.087,4.786,0.226,9.573,0.419,14.355
			c0.057,1.403,0.582,2.523,1.871,3.472c2.059,1.516,1.636,3.344-0.854,4.126C330.912,114.988,328.78,115.2,326.634,115.11z"/>
		<path fill-rule="evenodd" clip-rule="evenodd" fill="#DF0A11" d="M293.765,130.709c1.834-1.083-0.041-3.862,2.177-3.374
			c1.729,0.38,0.623,2.55,0.439,3.918c-0.153,1.145-0.267,1.128,2.185,6.048c-2.107-0.105-4.118,0.581-5.925-0.582
			c-0.997-0.64-1.614,0.014-2.338,0.281c-2.076,0.774-4.2,0.859-6.282,0.278c-2.267-0.634-4.066-1.96-4.485-4.478
			c-0.386-2.347,0.959-3.89,2.829-4.905c1.58-0.86,1.926-1.667,0.721-3.125c-1.152-1.394-0.434-2.689,0.713-3.604
			c2.03-1.627,4.319-1.694,6.571-0.458c1.34,0.734,2.335,2.275,1.487,3.46C289.392,127.621,292.938,128.548,293.765,130.709z
			 M290.255,133.889c-1.217-1.407-2.393-3.057-3.877-4.352c-0.64-0.554-1.209,0.48-1.396,1.209c-0.471,1.818,1.265,3.924,3.429,4.12
			C289.082,134.924,289.934,135.17,290.255,133.889z M286.651,121.943c1.199,0.718,1.129,2.217,2.54,2.042
			c0.526-0.064,0.784-0.733,0.59-1.274C289.332,121.474,288.416,121.249,286.651,121.943z"/>
		<path fill-rule="evenodd" clip-rule="evenodd" fill="#DF0A11" d="M292.999,118.995c35.602,0,71.208,0,106.814,0
			c0,0.223-0.004,0.448-0.004,0.671c-35.605,0-71.209,0-106.816,0C292.996,119.443,292.996,119.218,292.999,118.995z"/>
		<path fill-rule="evenodd" clip-rule="evenodd" fill="#DF0A11" d="M282.867,119.131c-31.218,0-62.437,0-93.651,0
			c0-0.201,0.002-0.404,0.005-0.604c31.208,0,62.411,0,93.62,0C282.849,118.728,282.856,118.93,282.867,119.131z"/>
		<path fill-rule="evenodd" clip-rule="evenodd" fill="#191819" d="M380.104,131.763c-0.908,1.856-1.819,3.711-2.759,5.628
			c-1.24-0.587-1.33-1.761-1.873-2.598c-0.574-0.885-1.017-1.856-2.078-2.787c0,1.465,0.009,2.926-0.005,4.389
			c-0.005,0.531-0.022,1.083-0.758,1.15c-0.783,0.069-1.19-0.296-1.214-1.069c-0.084-3.08-0.169-6.159-0.234-9.239
			c-0.018-0.777,0.407-1.143,1.188-1.112c1.032,0.04,2.162-0.268,2.79,0.976c0.755,1.5,1.553,2.979,2.656,5.094
			c0.865-1.85,1.601-3.18,2.116-4.586c0.593-1.618,1.832-1.484,3.12-1.449c1.753,0.048,1.252,1.399,1.312,2.34
			c0.152,2.439,0.162,4.887,0.337,7.323c0.104,1.421-0.464,1.87-1.821,1.821c-1.149-0.041-2.124-0.014-2.014-1.623
			c0.089-1.344,0.018-2.699,0.018-4.049C380.627,131.902,380.364,131.832,380.104,131.763z"/>
		<path fill-rule="evenodd" clip-rule="evenodd" fill="#191819" d="M254.139,137.458c-4.101-0.016-7.257-2.629-7.344-6.077
			c-0.085-3.38,2.931-5.938,6.974-5.92c4.109,0.021,7.262,2.627,7.351,6.075C261.205,134.906,258.178,137.473,254.139,137.458z
			 M250.938,131.357c0.177,2.138,0.407,4.542,3.266,4.491c2.522-0.044,2.782-2.24,2.729-4.231c-0.057-2.198-0.334-4.572-3.227-4.526
			C251.126,127.131,251.036,129.342,250.938,131.357z"/>
		<path fill-rule="evenodd" clip-rule="evenodd" fill="#191819" d="M345.596,131.513c-0.458-5.837-0.458-5.836,5.474-5.438
			c1.72,0.117,3.381,0.454,4.809,1.488c1.746,1.264,2.853,2.924,2.508,5.156c-0.336,2.173-1.651,3.633-3.759,4.341
			c-2.597,0.872-5.275,0.329-7.915,0.44c-1.096,0.048-1.1-0.778-1.109-1.525C345.579,134.488,345.596,133.001,345.596,131.513z
			 M348.815,131.534c1.693,1.049-1.313,4.136,2.123,4.3c2.516,0.118,3.437-1.726,3.348-4.074c-0.088-2.324-1.108-3.971-3.602-3.98
			C347.612,127.767,349.939,130.242,348.815,131.534z"/>
		<path fill-rule="evenodd" clip-rule="evenodd" fill="#191819" d="M195.963,125.293c4.197,0.018,7.203,2.523,7.254,6.049
			c0.054,3.478-2.81,5.896-6.939,5.868c-4.151-0.03-7.238-2.604-7.291-6.076C188.937,127.685,191.816,125.274,195.963,125.293z
			 M199.222,131.241c-0.313-1.936-0.423-4.417-3.297-4.416c-2.559,0-2.874,2.255-2.816,4.2c0.064,2.131,0.297,4.608,3.224,4.594
			C198.926,135.607,199.032,133.394,199.222,131.241z"/>
		<path fill-rule="evenodd" clip-rule="evenodd" fill="#191819" d="M233.245,137.399c-1.509-0.032-2.872-0.255-4.13-0.881
			c-2.288-1.135-3.717-2.927-3.575-5.553c0.141-2.625,1.717-4.257,4.155-5.103c1.99-0.689,3.999-0.741,5.924,0.116
			c0.992,0.441,2.77,0.946,2.09,2.239c-0.749,1.423-1.708-0.172-2.52-0.665c-1.52-0.916-3.152-1.102-4.404,0.225
			c-1.645,1.75-1.524,3.915-0.534,5.962c0.785,1.627,2.25,2.14,4.018,1.942c1.255-0.142,1.573-0.892,1.456-1.998
			c-0.12-1.133,0.182-1.914,1.528-1.76c0.783,0.089,1.91-0.368,2.125,0.813c0.193,1.082,0.579,2.346-0.759,3.14
			C236.921,136.879,235.071,137.273,233.245,137.399z"/>
		<path fill-rule="evenodd" clip-rule="evenodd" fill="#191819" d="M344.318,137.276c-2.334,0.488-3.918,0.46-4.897-1.955
			c-0.817-2.01-4.453-1.628-5.468,0.431c-0.421,0.852-0.68,2.157-1.86,1.605c-1.027-0.477-0.104-1.498,0.155-2.231
			c0.849-2.399,1.789-4.77,2.62-7.175c0.41-1.187,0.832-2.064,2.387-1.984c1.266,0.064,2.191,0.213,2.755,1.552
			c1.154,2.737,2.464,5.407,3.696,8.113C343.924,136.107,344.073,136.613,344.318,137.276z M337.955,132.359
			c-0.255-1.184-0.524-2.259-1.616-3.071C335.894,130.885,333.931,133.098,337.955,132.359z"/>
		<path fill-rule="evenodd" clip-rule="evenodd" fill="#191819" d="M317.868,137.176c-2.518,0.512-4.059,0.427-5.029-1.989
			c-0.832-2.06-4.398-1.619-5.475,0.504c-0.418,0.828-0.646,2.156-1.886,1.549c-1.078-0.529-0.062-1.527,0.17-2.217
			c0.846-2.511,1.9-4.956,2.746-7.469c0.402-1.197,1.009-1.736,2.291-1.631c1.053,0.086,2.034-0.085,2.602,1.244
			C314.695,130.464,316.262,133.696,317.868,137.176z M310.049,129.38c-0.595,0.946-1.586,1.784-0.908,2.89
			c0.18,0.291,1.449,0.362,1.716,0.072C311.884,131.226,310.415,130.421,310.049,129.38z"/>
		<path fill-rule="evenodd" clip-rule="evenodd" fill="#191819" d="M405.504,137.489c-2.309,0.304-4.209,0.734-4.914-1.917
			c-0.463-1.748-2.012-1.106-3.191-1.234c-1.197-0.126-2.023,0.186-2.373,1.507c-0.221,0.852-0.482,2.218-1.77,1.675
			c-1.432-0.604-0.078-1.641,0.133-2.342c0.691-2.33,1.637-4.588,2.492-6.869c0.406-1.083,0.678-2.182,2.305-2.121
			c1.4,0.054,2.346,0.279,2.959,1.755C402.432,131.061,403.934,134.09,405.504,137.489z M397.948,129.241
			c-1.094,1.254-1.74,2.211-1.146,3.426c0.125,0.259,1.459,0.342,1.721,0.047C399.553,131.552,398.086,130.757,397.948,129.241z"/>
		<path fill-rule="evenodd" clip-rule="evenodd" fill="#191819" d="M266.875,137.545c-0.54-0.095-1.209-0.103-1.781-0.34
			c-1-0.413-2.769-0.711-2.205-2.053c0.625-1.482,1.655-0.1,2.513,0.395c0.873,0.503,1.979,0.67,2.538-0.365
			c0.656-1.219-0.529-1.627-1.321-2.102c-0.453-0.272-0.959-0.458-1.438-0.691c-1.486-0.717-2.875-1.511-2.74-3.499
			c0.119-1.743,1.193-2.646,2.745-3.124c1.982-0.607,3.792-0.283,5.382,1.064c0.313,0.264,0.629,0.646,0.263,1.077
			c-0.358,0.414-0.788,0.721-1.325,0.213c-0.547-0.519-1.122-1-1.935-0.98c-0.632,0.016-1.323-0.027-1.621,0.709
			c-0.297,0.739,0.146,1.233,0.712,1.571c0.637,0.379,1.321,0.692,2.007,0.98c1.857,0.784,3.631,1.71,3.035,4.165
			C271.12,136.994,269.084,137.388,266.875,137.545z"/>
		<path fill-rule="evenodd" clip-rule="evenodd" fill="#191819" d="M410.842,138.08c-1.451-0.009-2.689-0.29-3.752-1.07
			c-0.445-0.327-1.23-0.658-0.662-1.425c0.422-0.567,1.014-0.71,1.646-0.196c0.406,0.33,0.822,0.707,1.299,0.876
			c0.846,0.298,1.764,0.295,2.195-0.659c0.398-0.88-0.316-1.378-0.965-1.756c-0.641-0.378-1.344-0.644-2.014-0.97
			c-1.623-0.788-3.043-1.802-2.576-3.882c0.469-2.092,2.137-2.772,4.072-2.955c1.092-0.102,2.145,0.116,3.084,0.654
			c0.602,0.346,1.604,0.749,1.238,1.57c-0.563,1.255-1.295,0.364-1.994-0.105c-0.947-0.636-2.203-0.98-2.82,0.133
			c-0.764,1.378,0.736,1.685,1.6,2.184c0.367,0.211,0.77,0.365,1.162,0.532c1.742,0.744,3.434,1.657,2.971,3.923
			C414.831,137.346,412.831,137.886,410.842,138.08z"/>
		<path fill-rule="evenodd" clip-rule="evenodd" fill="#191819" d="M181.71,125.257c1.737-0.077,3.215,0.159,4.458,1.089
			c0.564,0.424,1.786,0.768,0.896,1.849c-0.675,0.824-1.265,0.203-1.835-0.34c-1.283-1.219-2.782-1.618-4.382-0.736
			c-1.775,0.979-1.897,2.741-1.718,4.477c0.366,3.608,3.305,4.951,6.427,2.987c0.644-0.406,1.28-1.657,2.019-0.563
			c0.584,0.865-0.623,1.495-1.218,1.961c-2.872,2.246-8.498,1.17-10.494-1.923c-1.907-2.958-0.732-6.383,2.67-8.307
			C179.675,125.105,180.805,125.479,181.71,125.257z"/>
		<path fill-rule="evenodd" clip-rule="evenodd" fill="#191819" d="M215.367,130.878c-0.179-5.854,0.292-6.216,6.812-5.328
			c0.623,0.084,1.419-0.006,1.408,0.875c-0.013,0.903-0.847,0.673-1.432,0.809c-1.011,0.233-2.528-0.757-2.96,0.862
			c-0.559,2.093,0.72,2.516,2.515,2.374c0.632-0.049,1.723-0.413,1.778,0.703c0.056,1.159-1.026,0.756-1.677,0.818
			c-1.195,0.115-2.639-0.384-2.56,1.772c0.077,2.077,1.462,1.633,2.681,1.725c0.645,0.049,1.709-0.355,1.615,0.869
			c-0.07,0.878-0.95,0.593-1.526,0.643C215.571,137.564,215.571,137.562,215.367,130.878z"/>
		<path fill-rule="evenodd" clip-rule="evenodd" fill="#191819" d="M330.617,134.54c-2.379,3.505-6.608,4.208-9.938,1.854
			c-2.817-1.994-3.554-5.529-1.674-8.052c2.082-2.8,7.65-3.506,10.397-1.269c0.466,0.377,1.585,0.699,0.673,1.666
			c-0.73,0.772-1.233,0.21-1.851-0.309c-1.883-1.593-3.846-1.896-5.492,0.279c-1.377,1.822-0.774,5.361,1.024,6.65
			c1.199,0.859,2.405,1.005,3.855,0.292C328.459,135.235,329.034,133.972,330.617,134.54z"/>
		<path fill-rule="evenodd" clip-rule="evenodd" fill="#DF0A11" d="M353.39,74.737c0.815,0.188,1.893,0.3,2.857,0.688
			c1.946,0.782,2.354,2.059,0.798,3.643c-1.856,1.892-4.145,2.926-6.779,3.15c-1.063,0.091-2.194,0.11-2.737-1.088
			c-0.513-1.128,0.362-1.736,1.031-2.408c0.44-0.443,1.22-0.951,1.193-1.389C349.586,74.627,351.535,74.983,353.39,74.737z"/>
		<path fill-rule="evenodd" clip-rule="evenodd" fill="#191819" d="M368.359,126.611c-0.778,1.637-1.841,1.338-2.728,1.308
			c-1.191-0.039-1.71,0.281-1.661,1.614c0.05,1.39,0.765,1.557,1.846,1.478c0.426-0.031,0.852-0.01,1.277,0.009
			c0.518,0.02,1.167-0.031,1.224,0.663c0.081,0.972-0.757,0.703-1.315,0.882c-1.075,0.346-2.747-0.986-3.225,0.94
			c-0.65,2.622,1.097,2.588,2.952,2.566c0.752-0.009,2.282-0.695,2.148,0.896c-0.086,1.072-1.402,0.564-2.162,0.587
			c-6.182,0.182-6.184,0.167-6.409-5.965c-0.188-4.997-0.188-4.997,4.966-4.979C366.225,126.614,367.176,126.611,368.359,126.611z"
			/>
		<path fill-rule="evenodd" clip-rule="evenodd" fill="#191819" d="M204.993,130.836c0-1.165,0.065-2.333-0.019-3.489
			c-0.097-1.332,0.314-1.909,1.754-1.891c1.405,0.016,2.241,0.287,2.12,1.916c-0.076,1.051,0.051,2.116,0.05,3.175
			c-0.012,2.705-0.533,5.789,3.945,4.928c0.501-0.097,1.083,0.126,1.014,0.862c-0.052,0.555-0.526,0.569-0.928,0.607
			c-0.418,0.04-0.846,0.018-1.267,0.031C205.246,137.15,205.246,137.151,204.993,130.836z"/>
		<path fill-rule="evenodd" clip-rule="evenodd" fill="#191819" d="M244.882,131.542c0.055,1.159,0.041,2.328,0.185,3.475
			c0.175,1.426-0.152,2.135-1.803,2.112c-1.441-0.02-2.075-0.347-2.051-1.931c0.033-2.529-0.129-5.062-0.286-7.588
			c-0.078-1.265,0.171-2.005,1.661-1.967c1.271,0.033,2.327,0.033,2.197,1.787c-0.101,1.363-0.018,2.741-0.018,4.112
			C244.805,131.542,244.843,131.542,244.882,131.542z"/>
		<path fill-rule="evenodd" clip-rule="evenodd" fill="#191819" d="M387.231,131.651c0-1.161,0.044-2.325-0.012-3.481
			c-0.057-1.161-0.048-2.087,1.573-2.014c1.28,0.058,2.282,0.083,2.266,1.796c-0.02,2.531,0.078,5.068,0.203,7.597
			c0.064,1.328-0.057,2.14-1.778,2.145c-1.741,0.005-2.209-0.672-2.096-2.243c0.092-1.263,0.019-2.533,0.019-3.799
			C387.35,131.651,387.291,131.651,387.231,131.651z"/>
		<path fill-rule="evenodd" clip-rule="evenodd" fill="#FCFAFA" d="M264.452,93.036c0.759-1.404-1.094-4.172,1.972-4.119
			c2.524,0.043,2.543,2.382,2.618,4.298c0.078,2.115-0.53,4.088-3.008,3.874C263.253,96.85,265.207,94.361,264.452,93.036z"/>
		<path fill-rule="evenodd" clip-rule="evenodd" fill="#FCFAFA" d="M231.917,101.97c-0.924-0.688-3.1,0.847-2.74-1.421
			c0.27-1.686,0.291-4.623,2.375-4.554c1.882,0.061,2.83,2.856,3.106,4.695C234.976,102.843,232.766,101.227,231.917,101.97z"/>
		<path fill-rule="evenodd" clip-rule="evenodd" fill="#FCFAFA" d="M297.434,93.29c0.842-1.581-0.94-4.229,1.847-4.272
			c2.742-0.043,2.782,2.517,2.818,4.536c0.037,1.971-0.623,3.873-3.009,3.635C296.124,96.894,298.645,94.298,297.434,93.29z"/>
		<path fill-rule="evenodd" clip-rule="evenodd" fill="#FCFAFA" d="M357.185,104.333c-0.146,1.915-0.402,3.787-2.535,4.38
			c-2.062,0.571-3.484-0.588-4.47-2.25c-2.087-3.513-3.447-7.291-3.688-11.395c-0.112-1.905,0.389-3.695,2.38-4.428
			c2.079-0.767,3.475,0.567,4.542,2.071C355.884,96.19,356.774,100.216,357.185,104.333z"/>
		<path fill-rule="evenodd" clip-rule="evenodd" fill="#FCFAFA" d="M290.255,133.889c-0.321,1.282-1.173,1.035-1.845,0.977
			c-2.164-0.195-3.899-2.302-3.429-4.12c0.188-0.729,0.757-1.763,1.396-1.209C287.862,130.832,289.038,132.482,290.255,133.889z"/>
		<path fill-rule="evenodd" clip-rule="evenodd" fill="#FCFAFA" d="M286.651,121.943c1.765-0.694,2.681-0.469,3.13,0.768
			c0.194,0.541-0.063,1.21-0.59,1.274C287.78,124.16,287.851,122.661,286.651,121.943z"/>
		<path fill-rule="evenodd" clip-rule="evenodd" fill="#FCFAFA" d="M250.938,131.357c0.097-2.015,0.188-4.226,2.768-4.267
			c2.893-0.046,3.169,2.328,3.227,4.526c0.053,1.992-0.206,4.188-2.729,4.231C251.346,135.898,251.115,133.495,250.938,131.357z"/>
		<path fill-rule="evenodd" clip-rule="evenodd" fill="#FCFAFA" d="M348.815,131.534c1.124-1.292-1.203-3.767,1.869-3.754
			c2.493,0.009,3.514,1.656,3.602,3.98c0.089,2.348-0.832,4.192-3.348,4.074C347.502,135.67,350.509,132.583,348.815,131.534z"/>
		<path fill-rule="evenodd" clip-rule="evenodd" fill="#FCFAFA" d="M199.222,131.241c-0.189,2.152-0.296,4.366-2.889,4.379
			c-2.927,0.014-3.16-2.463-3.224-4.594c-0.058-1.945,0.257-4.2,2.816-4.2C198.799,126.824,198.909,129.306,199.222,131.241z"/>
		<path fill-rule="evenodd" clip-rule="evenodd" fill="#FCFAFA" d="M337.955,132.359c-4.024,0.739-2.062-1.475-1.616-3.071
			C337.431,130.101,337.7,131.175,337.955,132.359z"/>
		<path fill-rule="evenodd" clip-rule="evenodd" fill="#FCFAFA" d="M310.049,129.38c0.366,1.041,1.835,1.846,0.808,2.962
			c-0.267,0.29-1.536,0.219-1.716-0.072C308.463,131.165,309.454,130.326,310.049,129.38z"/>
		<path fill-rule="evenodd" clip-rule="evenodd" fill="#FCFAFA" d="M397.948,129.241c0.139,1.517,1.605,2.312,0.574,3.473
			c-0.262,0.294-1.596,0.212-1.721-0.047C396.208,131.452,396.854,130.495,397.948,129.241z"/>
	</g>
	<g>
		<text transform="matrix(1 0 0 1 59.7656 176.0361)"><tspan x="0" y="0" fill="#6D6D6D" font-family="'Arial-ItalicMT'" font-size="20.3725">Tu Aula virtual es una combinacion de facilidad de uso </tspan><tspan x="16.408" y="24.447" fill="#6D6D6D" font-family="'Arial-ItalicMT'" font-size="20.3725">y funcionalidad ofreciendo un completo proceso de </tspan><tspan x="-15.861" y="48.894" fill="#6D6D6D" font-family="'Arial-ItalicMT'" font-size="20.3725">interaccion de docentes y apoderados a traves actividades</tspan><tspan x="-6.754" y="73.341" fill="#6D6D6D" font-family="'Arial-ItalicMT'" font-size="20.3725">y respuestas con herramientas muy intuitivas y de ultima</tspan><tspan x="193.643" y="97.788" fill="#6D6D6D" font-family="'Arial-ItalicMT'" font-size="20.3725">teconología.</tspan><tspan x="176.687" y="146.682" fill="#6D6D6D" font-family="'Arial-BoldItalicMT'" font-size="20.3725">Desarrollador :</tspan><tspan x="151.769" y="171.129" fill="#6D6D6D" font-family="'Arial-ItalicMT'" font-size="20.3725">Elias Champi Hancco</tspan><tspan x="208.39" y="220.023" fill="#6D6D6D" font-family="'Arial-BoldItalicMT'" font-size="20.3725">Versión:</tspan><tspan x="202.715" y="244.47" fill="#6D6D6D" font-family="'Arial-BoldItalicMT'" font-size="20.3725">1.0.0 beta</tspan></text>
	</g>
</g>
</svg>
