<?xml version="1.0" encoding="utf-8"?>
<!-- Generator: Adobe Illustrator 19.0.0, SVG Export Plug-In . SVG Version: 6.00 Build 0)  -->
<svg version="1.1" id="Layer_1" xmlns="http://www.w3.org/2000/svg" xmlns:xlink="http://www.w3.org/1999/xlink" x="0px" y="0px"
	 width="1400px" height="976.7px" viewBox="0 0 1400 976.7" enable-background="new 0 0 1400 976.7" xml:space="preserve">
<g>
	<rect id="XMLID_152_" fill-rule="evenodd" clip-rule="evenodd" fill="#DBC3AA" width="1400" height="976.7"/>
	<polygon id="XMLID_151_" fill-rule="evenodd" clip-rule="evenodd" fill="#E8DFD5" points="657.8,252.4 1400,685.4 1400,0 657.8,0 
		648.8,57.4 	"/>
	<g>
		<defs>
			<polygon id="XMLID_143_" points="657.8,252.4 1400,685.4 1400,0 657.8,0 648.8,57.4 			"/>
		</defs>
		<clipPath id="XMLID_167_">
			<use xlink:href="#XMLID_143_"  overflow="visible"/>
		</clipPath>
		<polygon id="XMLID_150_" clip-path="url(#XMLID_167_)" fill-rule="evenodd" clip-rule="evenodd" fill="#D2AC82" points="
			769.4,228.6 769.4,-545.7 2375.4,370.6 2375.4,1150.7 		"/>
		<path id="XMLID_149_" clip-path="url(#XMLID_167_)" fill="#C1BBB6" d="M2204.7,365.1l-33.5-19.7l-77.7-45.7l-6.2-3.7l-218.5-122.4
			L1581,12.4l-123.4-69.1l-108.8-60.9C1334.3-60,1315-3.6,1291.4,51c23.6-54.6,42.8-111,57.4-168.7l-94-52.7
			c-19,36.1-40.2,71-63.4,104.4c23.2-33.5,44.4-68.4,63.4-104.4l-173.4-97.2l-9.3-5.5L887.3-381.6v225.2v79.3v15.1v82.3v38.9v121.2
			l29.3,17.5l23.5,14l83.7,49.9l30.8,18.3l28.6,17l42.9,24.3l0,0l254.3,144.3l0,0l253.5,143.8v0l181.6,103l104.2,59.1
			c-5.3-7.1-10.6-14.5-15.9-22.3c5.3,7.7,10.6,15.2,15.9,22.3l389.6,221v-0.8V655.3v-25.6V622V586v-97.8v-61.8L2204.7,365.1z"/>
		<polygon id="XMLID_148_" clip-path="url(#XMLID_167_)" fill-rule="evenodd" clip-rule="evenodd" fill="#D2AC82" points="
			2375.4,370.6 2283.3,422.9 861.4,-385.2 769.4,-545.7 		"/>
		<polygon id="XMLID_147_" clip-path="url(#XMLID_167_)" fill-rule="evenodd" clip-rule="evenodd" fill="#D2AC82" points="
			2375.4,1150.7 2283.3,988.9 861.4,176.7 769.4,228.6 		"/>
		<polygon id="XMLID_146_" clip-path="url(#XMLID_167_)" fill-rule="evenodd" clip-rule="evenodd" fill="#F1D4AA" points="
			861.4,176.7 887.4,154.8 2283.3,951.8 2283.3,988.9 		"/>
		<polygon id="XMLID_145_" clip-path="url(#XMLID_167_)" fill-rule="evenodd" clip-rule="evenodd" fill="#C58F5A" points="
			887.4,154.8 887.4,-369.9 861.4,-385.2 861.4,176.7 		"/>
		<polygon id="XMLID_144_" clip-path="url(#XMLID_167_)" fill-rule="evenodd" clip-rule="evenodd" fill="#F1D4AA" points="
			769.4,-545.7 803.8,-570.4 2410.9,346.5 2375.4,370.6 		"/>
	</g>
	<polygon id="XMLID_142_" fill-rule="evenodd" clip-rule="evenodd" fill="#C6B4B0" points="657.8,0 0,0 0,636.2 657.8,252.4 	"/>
	<polygon id="XMLID_141_" fill-rule="evenodd" clip-rule="evenodd" fill="#4E402A" points="995.6,810.7 995.5,803.2 985.8,797.5 
		977.6,800.3 	"/>
	<path id="XMLID_140_" fill-rule="evenodd" clip-rule="evenodd" fill="#5E4F33" d="M1024.5,779.3l0,7.3l179.8-103.8l0.1-0.1l0.1-0.1
		l0.1-0.1l0.1-0.1l0.1-0.1l0.1-0.1l0.1-0.1l0.1-0.1l0.1-0.1l0.1-0.1l0.1-0.1l0.1-0.1l0.1-0.1l0.1-0.1l0.1-0.1l0.1-0.1l0.1-0.1
		l0.1-0.1h0l0.1-0.1l0.1-0.1l0.1-0.1h0l0.1-0.1l0.1-0.1l0.1-0.1l0.1-0.1l0.1-0.1l0.1-0.1h0l0.1-0.1h0l0.1-0.1h0l0.1-0.1h0l0.1-0.1h0
		l0.1-0.1l0.1-0.1l0.1-0.1h0l0.1-0.1l0.1-0.1h0l0.1-0.1l0.1-0.1h0l0.1-0.1h0l0.1-0.1h0l0.1-0.1h0l0-0.1h0l0-0.1h0
		c0-0.1,0.1-0.2,0.1-0.3h0l0-0.1h0c0.2-0.6,0.3-1.2,0.3-1.8l0-7.3c0,2.3-1.5,4.5-4.5,6.2L1024.5,779.3z"/>
	<polygon id="XMLID_139_" fill-rule="evenodd" clip-rule="evenodd" fill="#4E402A" points="766.8,629.6 766.8,636.9 1024.5,786.6 
		1024.5,779.3 	"/>
	<path id="XMLID_138_" fill-rule="evenodd" clip-rule="evenodd" fill="#74603D" d="M766.8,629.6l257.6,149.7l179.8-103.8
		c5.9-3.4,6-9,0.1-12.4L968,525.8c-5.9-3.4-15.5-3.4-21.4,0L766.8,629.6z"/>
	<polygon id="XMLID_137_" fill-rule="evenodd" clip-rule="evenodd" fill="#BC6F41" points="737.9,646.3 737.9,653.6 995.6,803.3 
		995.5,796 	"/>
	<polygon id="XMLID_136_" fill-rule="evenodd" clip-rule="evenodd" fill="#5E4F33" points="995.5,803.4 995.6,810.7 1024.5,794 
		1024.5,786.6 	"/>
	<polygon id="XMLID_135_" fill-rule="evenodd" clip-rule="evenodd" fill="#74603D" points="737.9,653.8 995.5,803.5 1024.5,786.6 
		766.8,637.1 	"/>
	<path fill-rule="evenodd" clip-rule="evenodd" fill="#5E4F33" d="M553.7,763.8L553.7,763.8 M553.7,763.8l0-7.3 M558.1,769.8
		L558.1,769.8l236.3,137.3l0.2,0.1l0,0l0,0l0,0l0.1,0.1l0,0l0,0l0,0l0.2,0.1l0,0l0,0l0.3,0.1l0,0l0.3,0.1l0,0l0.3,0.1l0,0l0,0l0.1,0
		l0.1,0l0.2,0.1l0,0l0.3,0.1l0,0l0,0l0.1,0l0.2,0.1l0,0l0,0l0.3,0.1l0,0l0.2,0.1l0.1,0v0h0l0,0l0,0l0.3,0.1l0,0l0,0l0,0l0,0l0.2,0.1
		l0,0l0,0l0,0l0,0l0.3,0.1l0,0h0c0.2,0.1,0.4,0.1,0.7,0.2l0,0c0.4,0.1,0.8,0.2,1.2,0.2v0c0.6,0.1,1.3,0.2,1.9,0.3
		c0.6,0.1,1.1,0.1,1.7,0.1c0.5,0,1,0,1.6,0h0l0.1,0l0,0c0.5,0,1,0,1.4-0.1c0.5,0,1-0.1,1.5-0.2h0c0.5-0.1,1-0.2,1.5-0.3
		c0.5-0.1,1-0.2,1.5-0.4l0,0l0,0h0v0l0,0l0,0l0,0l0,0l0,0l0.2-0.1l0,0c0.5-0.2,1-0.3,1.5-0.5v0c0.8-0.3,1.7-0.7,2.2-1v0l179.8-103.6
		V796L815.7,899.8c-0.7,0.4-1.4,0.7-2.1,1l0,0l0,0l0,0l0,0l-0.1,0v0c-0.5,0.2-1.1,0.4-1.7,0.6l0,0l0,0l0,0l0,0l0,0l0,0l0,0
		c-0.3,0.1-0.6,0.2-1,0.2l0,0l-0.3,0.1l0,0l0,0l-0.2,0l-0.1,0l0,0l0,0c-0.2,0-0.5,0.1-0.7,0.1l0,0l-0.3,0.1h0l0,0l0,0l0,0l0,0l0,0
		l0,0l0,0l-0.1,0l0,0l0,0l0,0l0,0l0,0l0,0l0,0l0,0l0,0l0,0l0,0l0,0l0,0l0,0l0,0l0,0l0,0l0,0l0,0l0,0l0,0l0,0c-0.3,0-0.7,0.1-1,0.1
		c-0.3,0-0.7,0.1-1,0.1h0l-0.3,0l0,0l0,0h0l0,0l0,0l0,0l0,0l0,0l0,0l0,0l0,0l0,0l0,0l0,0l0,0l0,0h0l0,0h0l0,0h0l0,0h0l-0.2,0h0h0h0
		h0h0h0l-0.3,0l0,0l0,0l-0.2,0l0,0l0,0l0,0h0l0,0l0,0l0,0l0,0l0,0l0,0l0,0l0,0l0,0l0,0l0,0l0,0l0,0l-0.1,0l0,0l0,0l0,0l0,0l0,0l0,0
		l0,0l0,0l0,0l0,0l0,0l0,0l0,0l0,0l0,0l0,0l0,0l0,0l0,0l0,0l0,0l0,0l0,0l0,0l0,0l0,0l0,0l0,0l0,0l0,0l-0.2,0l0,0l-0.1,0l0,0l0,0l0,0
		l-0.1,0l0,0l-0.2,0l0,0l0,0l0,0l0,0l0,0l0,0l0,0l0,0l0,0l0,0l0,0l0,0l0,0l0,0l0,0l0,0l-0.1,0l0,0l0,0l0,0l0,0l0,0l0,0l0,0l0,0l0,0
		l0,0l0,0l0,0l0,0l0,0l0,0l-0.3,0l0,0l-0.3,0l0,0l0,0l0,0l0,0l0,0l0,0l-0.2,0l0,0l0,0l0,0l-0.2,0c-0.2,0-0.3-0.1-0.5-0.1l0,0l0,0
		l-0.3-0.1l0,0l0,0l-0.3-0.1l0,0l0,0l0,0l-0.3-0.1l0,0l0,0l-0.3-0.1l0,0l-0.3-0.1l0,0l-0.3-0.1l0,0l0,0l0,0l0,0l-0.1,0l0,0l0,0l0,0
		l0,0l-0.1,0l0,0l-0.2-0.1l-0.1,0l0,0l0,0c-0.2-0.1-0.4-0.1-0.6-0.2l0,0c-0.8-0.3-1.6-0.7-2.4-1.1l0,7.3l0-7.3L558,762.5l-0.1-0.1
		l-0.1,0l0,0l0,0l0,0l0,0l0,0l0,0l0,0l0,0l0,0l-0.1,0l0,0l0,0l0,0l0,0l0,0l0,0l0,0l0,0l0,0l0,0l0,0l0,0l0,0l0,0l0,0l0,0l0,0l0,0l0,0
		l0,0l0,0l0,0l0,0l0,0l0,0l0,0l0,0l0,0l0,0l0,0l0,0l0,0l-0.1-0.1l0,0l0,0l0,0l-0.1-0.1l0,0l0,0l0,0l0,0l0,0l0,0l-0.1,0l0,0
		c-0.1-0.1-0.2-0.2-0.3-0.3c-0.2-0.2-0.4-0.4-0.6-0.6l0,0l0,0l0,0l0,0l0,0l0,0l0,0l0,0l0,0l0,0l0,0l0,0l0,0l0,0l0,0l0,0l0,0l0,0l0,0
		l0,0v0l0,0l0,0l0,0l0,0l0,0l0,0l0,0l0,0l0,0l0,0l0,0l0,0l0,0l0,0l0,0l0,0l0,0l0,0l0,0l0,0l0,0l0,0l0,0l0,0l0,0l0,0l0,0l0,0l0,0l0,0
		l0,0l0,0l0,0l0,0l0,0l0,0l0,0l0,0l-0.1-0.1l0,0l0,0l-0.1-0.2l0,0l0,0l0,0l-0.1-0.2l-0.1-0.1l0,0l0,0l0,0l0,0l0,0l0,0l0,0l0,0l0,0
		l0,0l0,0l0,0l0-0.1l0,0l0,0l0,0l0,0l0,0l0,0l0,0l0,0l0,0l0,0l0,0l0,0l0,0l0,0l0,0l0,0l0,0l0,0l0,0l0,0l0,0l0,0l0,0l0,0l0,0l0,0l0,0
		l0,0l0,0l0,0l0,0l0,0l0,0l0,0l0,0l0,0l0,0l0,0l0,0l0,0l0,0l0,0l0,0l0,0l0,0l0,0v0l0,0l0,0l0,0l0-0.1l0,0l0,0l0,0l0-0.1l0,0l0,0
		c-0.1-0.2-0.1-0.3-0.1-0.5l0,0l0-0.1h0l0,0l0-0.1l0,0l0,0l0-0.1l0,0l0,0l0,0l0,0l0,0l0-0.1l0,0l0,0l0,0l0,0l0,0l0,0l0,0l0,0l0,0
		l0-0.2l0,0l0,0l0-0.1l0,0l0,0l0,0l0-0.1l0,0l0,7.3v0l0,0.1l0,0l0,0l0,0.2l0,0l0,0.1l0,0l0,0l0,0.1v0l0,0l0,0l0,0l0,0l0,0l0,0l0,0
		l0,0l0,0.1l0,0l0,0l0,0l0,0l0,0l0,0l0,0l0,0l0,0l0,0l0,0l0,0l0,0.1l0,0l0,0l0,0l0,0v0l0,0l0,0v0l0,0l0,0.1v0l0,0l0,0l0,0l0,0l0,0
		l0,0l0,0l0,0l0,0l0,0l0,0l0,0.2l0,0l0,0l0,0.1l0,0l0,0v0l0,0l0,0l0,0l0,0l0,0l0,0l0,0l0,0l0,0l0,0l0,0l0,0l0,0l0,0l0,0l0,0l0,0l0,0
		l0,0l0,0l0,0l0,0l0,0l0,0l0,0l0,0l0,0l0,0l0,0l0,0l0,0l0,0l0,0l0,0l0,0l0,0l0,0l0,0l0,0l0,0l0,0l0,0l0,0l0,0l0,0l0,0l0,0l0,0l0,0
		l0,0l0,0l0,0l0,0l0,0l0,0l0,0l0,0l0,0l0,0l0,0l0,0l0,0l0,0l0,0l0,0l0,0l0,0l0,0l0,0l0,0l0,0l0,0l0,0l0,0l0,0l0,0l0,0l0,0l0,0l0,0
		l0,0l0,0l0,0l0,0l0,0l0,0l0,0l0,0l0,0l0,0l0,0l0,0l0,0l0,0l0,0l0,0l0,0v0l0,0l0,0l0,0l0,0l0,0l0,0l0,0l0,0.1l0,0l0,0l0,0.1l0,0l0,0
		l0,0l0,0l0,0l0,0l0,0.1l0,0l0,0.1l0,0l0,0l0,0l0,0l0,0l0,0l0,0l0,0l0,0l0,0l0,0l0,0l0,0l0,0l0,0l0,0l0,0l0,0l0,0l0,0l0,0l0,0l0,0
		l0,0l0,0l0,0l0,0l0,0l0,0l0,0l0,0l0,0l0,0l0,0l0,0l0-7.3l0,7.3l0.1,0.2l0,0l0,0l0,0l0,0l0,0l0,0l0,0l0,0l0,0l0,0l0,0l0,0l0,0l0,0
		l0,0l0,0l0,0l0,0l0,0l0,0l0,0l0,0l0,0l0,0l0,0l0,0l0,0l0,0l0,0l0,0l0,0l0,0l0,0l0,0l0,0l0,0l0,0l0,0l0,0l0,0l0,0l0,0l0,0l0,0l0,0
		l0,0l0,0l0,0l0,0l0,0l0,0l0,0l0,0l0,0l0,0l0,0l0,0l0,0l0,0v0l0,0l0,0l0,0l0,0l0,0l0,0l0,0l0,0l0,0l0,0l0,0l0,0l0,0l0,0l0,0l0.1,0
		l0,0l0,0l0,0l0,0l0,0l0,0l0,0c0.4,0.3,0.9,0.7,1.4,1v0L558.1,769.8z"/>
	<path id="XMLID_131_" fill-rule="evenodd" clip-rule="evenodd" fill="#74603D" d="M558.1,750.1c-5.9,3.4-6,9-0.1,12.4l236.3,137.3
		c5.9,3.4,15.5,3.4,21.4,0L995.5,796L737.9,646.3L558.1,750.1z"/>
	<path id="XMLID_130_" fill="none" stroke="#5E4F33" stroke-width="0.216" stroke-miterlimit="22.9256" d="M558.1,750.1
		c-5.9,3.4-6,9-0.1,12.4l236.3,137.3c5.9,3.4,15.5,3.4,21.4,0L995.5,796L737.9,646.3L558.1,750.1z"/>
	<polygon id="XMLID_129_" fill-rule="evenodd" clip-rule="evenodd" fill="#B5C3A2" points="763.8,617.2 763.9,639.4 1010.8,783 
		1010.7,760.7 	"/>
	<path id="XMLID_128_" fill-rule="evenodd" clip-rule="evenodd" fill="#EFE7E2" d="M833.2,559.7c-28.7,16.6-52.2,36-69.4,57.5
		l246.9,143.5c17.1-21.5,40.7-41,69.4-57.5c16.4-9.5,34.6-18,54.2-25.5l59.1-22.4L946.4,511.8l-59.1,22.4
		C867.7,541.6,849.6,550.2,833.2,559.7"/>
	<path id="XMLID_127_" fill-rule="evenodd" clip-rule="evenodd" fill="#D4CACB" d="M1134.3,699.9l59.1-22.4l-0.1-22.2l-59.1,22.4
		l-0.1,0l-0.1,0l-0.1,0l-0.1,0l-0.1,0l-0.1,0l-0.1,0l-0.1,0l-0.1,0l-0.1,0l-0.1,0l-0.1,0l0,0l0,0l-0.1,0l-0.1,0l-0.1,0l-0.1,0
		l-0.1,0l-0.1,0l-0.1,0l-0.2,0.1l-0.1,0l-0.1,0l0,0l-0.1,0l-0.1,0.1l-0.1,0l-0.3,0.1l-0.1,0l-0.1,0l-0.1,0l-0.1,0l0,0l0,0l-0.1,0
		l-0.1,0l-0.1,0l-0.1,0l-0.1,0l-0.1,0l-0.1,0l-0.1,0l-0.1,0l-0.1,0l-0.1,0l-0.1,0l0,0l-0.1,0l-0.1,0l-0.1,0l-0.1,0l-0.1,0l-0.1,0
		l-0.1,0l-0.1,0l-0.1,0l-0.1,0l-0.1,0l-0.1,0l0,0l0,0l-0.1,0l-0.8,0.3l0,0l-0.9,0.3l-0.8,0.3l-0.1,0l-0.7,0.3l-0.2,0.1l-0.6,0.3
		l-0.3,0.1l-0.6,0.2l-0.3,0.1l-0.5,0.2l-0.4,0.2l-0.4,0.2l-0.5,0.2c-0.9,0.4-1.8,0.7-2.7,1.1l-0.1,0.1l-0.7,0.3l-0.1,0l-0.8,0.3l0,0
		l-0.8,0.3l-0.1,0l-0.7,0.3l-0.1,0.1l-0.7,0.3l-0.2,0.1l-0.1,0l-0.8,0.4l-0.5,0.2l-0.4,0.2l-0.9,0.4l-0.4,0.2l-0.5,0.2l0,0l-0.9,0.4
		l-0.2,0.1l-0.6,0.3l-0.2,0.1l-0.7,0.3c-0.6,0.3-1.1,0.5-1.7,0.8l0,0l-1.7,0.8l-0.6,0.3l-0.2,0.1l-0.5,0.3l-0.3,0.1l-1.6,0.8
		l-0.1,0.1l-1.6,0.8l0,0l-0.2,0.1l-0.6,0.3l-0.1,0.1l-0.7,0.3l-0.8,0.4l0,0l-0.8,0.4l-0.7,0.3l-0.1,0.1l-0.6,0.3l-0.2,0.1l-0.6,0.3
		l-0.3,0.1c-0.8,0.4-1.6,0.8-2.4,1.3l0,0l-0.3,0.2l-0.5,0.3l-0.2,0.1l-0.6,0.3l-0.2,0.1l-0.6,0.3l-0.8,0.4l0,0l-0.7,0.4l0,0
		l-0.7,0.4l-0.1,0.1l-0.6,0.3l-0.2,0.1l-0.6,0.3l-0.2,0.1l-0.5,0.3l-0.3,0.2l-0.4,0.2l-0.3,0.2l-0.1,0c-0.7,0.4-1.5,0.8-2.2,1.3l0,0
		l-0.2,0.1l-0.6,0.3l-0.1,0.1l-0.7,0.4l-0.1,0l-0.7,0.4c-28.7,16.6-52.2,36-69.4,57.5l0.1,22.2c17.1-21.5,40.7-41,69.4-57.5l0.7-0.4
		l0.1,0l0.7-0.4l0.1-0.1l0.6-0.3l0.2-0.1l0.5-0.3l0.2-0.1l0.5-0.3l0.3-0.2l0.4-0.2l0.4-0.2l0.3-0.2l0.4-0.2l0.3-0.2l0.5-0.3l0.2-0.1
		l0.6-0.3l0.8-0.4l0,0l0.1-0.1l0.7-0.4l0.8-0.4l0,0l0.8-0.4l0.6-0.3l0.2-0.1c1.1-0.6,2.2-1.1,3.2-1.7l0.3-0.2l0.5-0.2
		c0.5-0.3,1.1-0.6,1.6-0.8l0.1-0.1l0.7-0.3l0.1,0l0.8-0.4l0,0c4.4-2.2,8.9-4.3,13.5-6.4l0,0c1.1-0.5,2.3-1,3.4-1.5l0.1,0l0.2-0.1
		l0.7-0.3l0.1-0.1l0.7-0.3l0.9-0.4l0,0l0.9-0.4l0.7-0.3l0.1-0.1c0.9-0.4,1.8-0.7,2.7-1.1l0.5-0.2l0.4-0.2l0.4-0.2l0.5-0.2l1.7-0.7
		l0.1,0l0.2-0.1l0.7-0.3l0.1,0l0.8-0.3l0.9-0.3l0,0l0.8-0.3l0.1,0l0,0l0,0l0.1,0l0.1,0c0.9-0.3,1.7-0.7,2.6-1l0.1,0l0.3-0.1l0.1,0
		l0.1,0l0.1,0l0.1,0l0.1,0l0.1,0l0,0l0,0l0.1,0l0.1,0l0.1,0l0.1,0l0.1,0l0.1,0l0.1,0l0.1,0l0.1,0l0.1,0L1134.3,699.9L1134.3,699.9
		L1134.3,699.9z"/>
	<polygon id="XMLID_126_" fill-rule="evenodd" clip-rule="evenodd" fill="#889480" points="783.9,823.5 784,845.7 810.4,822.6 
		810.3,800.3 	"/>
	<polygon id="XMLID_125_" fill-rule="evenodd" clip-rule="evenodd" fill="#6D7173" points="783.9,823.5 784,845.7 786.4,846.6 
		786.3,824.4 	"/>
	<polygon id="XMLID_124_" fill-rule="evenodd" clip-rule="evenodd" fill="#6D7173" points="786.3,824.4 786.4,846.6 812.7,823.5 
		812.7,801.3 	"/>
	<path id="XMLID_123_" fill-rule="evenodd" clip-rule="evenodd" fill="#FFF6F0" d="M620.1,688.5l-38.9,34.1l246.9,143.5L867,832
		c12.9-11.3,27.7-21.8,44.2-31.3c28.7-16.6,62.4-30.1,99.5-40L763.8,617.2c-37.2,9.8-70.8,23.4-99.5,40
		C647.8,666.7,633,677.2,620.1,688.5"/>
	<polygon id="XMLID_122_" fill-rule="evenodd" clip-rule="evenodd" fill="#CBC1C1" points="581.2,722.6 581.2,744.9 828.2,888.4 
		828.1,866.1 	"/>
	<path fill-rule="evenodd" clip-rule="evenodd" fill="#D4CACB" d="M894.2,833.6c0.5-0.3,1-0.6,1.4-1 M828.1,866.1l0.1,22.2
		l38.9-34.1l0.6-0.5l0.6-0.5l0.6-0.5l0.6-0.5l0.6-0.5l0.6-0.5l0.6-0.5l0.6-0.5l0.6-0.5l0.6-0.5l0.6-0.5l0.6-0.5l0.6-0.5l0.6-0.5
		l0.6-0.5l0.6-0.5l0.7-0.5l0.7-0.5l0.7-0.5v0l0.7-0.5l0.7-0.5l0.7-0.5l0.7-0.5l0.7-0.5l0.7-0.5l0.7-0.5l0.7-0.5l0.7-0.5l0.7-0.5v0
		l0.7-0.5l0.7-0.5v0l0.7-0.5v0l0.7-0.5l0.7-0.5l0.7-0.5v0l0.7-0.5v0l0.7-0.5v0l0.7-0.5v0l0.7-0.5v0l0.7-0.5v0l0.7-0.5v0
		c0.5-0.3,1-0.6,1.4-1v0c0.7-0.5,1.4-0.9,2.2-1.4v0l0.7-0.5v0c4.1-2.7,8.4-5.2,12.8-7.8c3.8-2.2,7.6-4.3,11.6-6.4l0.2-0.1
		c1.2-0.6,2.4-1.3,3.7-1.9l0.8-0.4l0,0l0.7-0.4l0.8-0.4l0.8-0.4l0.8-0.4l0.6-0.3l0.2-0.1l0.8-0.4l0.3-0.1l0.2-0.1l1.1-0.5l0.2-0.1
		l0.2-0.1l1-0.5l0.7-0.3l0.3-0.1l0.8-0.4l0,0l0.1,0l1.3-0.6l0.1-0.1l0.1,0l1.2-0.5l0.6-0.3l1-0.4l0.2-0.1l0.2-0.1l0.8-0.4l0.5-0.2
		l0.3-0.1l0.8-0.4l0.1-0.1l0.5-0.2l1.2-0.6l0.1,0l1.3-0.6l0.2-0.1l0.1,0l1.3-0.6l0.1-0.1l0,0l1.5-0.6l0,0l1.2-0.5l0.3-0.1l0.1,0
		l0.3-0.1c1.3-0.5,2.5-1.1,3.8-1.6l0.5-0.2l0.1,0l1-0.4l0.4-0.2l0.4-0.2l0.8-0.3l0.3-0.1l0.1,0l1.2-0.5l0.2-0.1l0.4-0.2l0.6-0.2
		l0.3-0.1l0.4-0.1l0.6-0.2c0.8-0.3,1.7-0.6,2.5-1l0,0c1-0.4,2.1-0.8,3.1-1.2l0.1,0l0.6-0.2l0.6-0.2l0.4-0.1l0.2-0.1
		c1-0.4,2-0.7,3-1.1l0,0l0.2-0.1c3.7-1.3,7.5-2.6,11.3-3.9l0,0c1.6-0.5,3.3-1.1,4.9-1.6l0.1,0c3.9-1.2,7.9-2.4,11.9-3.6
		c1.7-0.5,3.4-1,5.1-1.4l0,0l1.6-0.4l0.1,0l0,0l0.1,0l0.1,0l1.2-0.3l0.1,0l0.1,0l-0.1-22.2l-0.1,0l-0.1,0l-1.1,0.3l-0.1,0l-0.1,0
		l-0.1,0l0,0l-0.1,0l-1.4,0.4l-0.1,0l-0.1,0l-0.1,0l-0.1,0l-0.1,0l-0.1,0l-0.1,0l-0.3,0.1l-0.1,0l-0.1,0l-0.1,0l-0.1,0l-0.1,0
		l-0.1,0l-0.1,0l-0.1,0l-0.1,0l-0.1,0l-0.3,0.1l-0.1,0l-0.3,0.1l-0.1,0l-0.1,0l-0.1,0l-0.1,0l-0.5,0.2l-0.1,0l-0.1,0l-0.1,0l-0.1,0
		l-0.1,0l-0.1,0l-0.5,0.2l-0.7,0.2l-0.7,0.2l-0.7,0.2l-0.7,0.2l-0.1,0l-1.2,0.4l-0.7,0.2c-0.9,0.3-1.8,0.5-2.7,0.8l-0.7,0.2
		l-1.3,0.4l0,0l-0.7,0.2l-0.7,0.2l-0.7,0.2l-0.1,0l-1.2,0.4l-0.1,0l-0.7,0.2l-0.7,0.2l-0.7,0.2l-1.3,0.4l-0.7,0.2l-0.7,0.2l-0.7,0.2
		l-0.1,0l-1.2,0.4l0,0l-0.6,0.2l0,0l-0.6,0.2l-0.6,0.2l-0.6,0.2l-0.1,0l-0.6,0.2l-0.6,0.2l-0.6,0.2l-0.6,0.2l-0.6,0.2l-0.6,0.2
		l-0.6,0.2l0,0l-0.6,0.2l-0.6,0.2l-0.6,0.2l-0.6,0.2l-0.6,0.2l-0.5,0.2l-0.1,0l-0.6,0.2l-0.6,0.2l-0.6,0.2l-0.6,0.2l-0.6,0.2l-0.1,0
		l-0.1,0l-1.2,0.4l-0.5,0.2l-0.1,0l-0.6,0.2L966,775l-0.8,0.3l-0.2,0.1l-0.6,0.2l-0.3,0.1l-0.3,0.1l-1.2,0.5l-0.1,0l0,0l-1.1,0.4
		l-0.4,0.2l-0.2,0.1l-1,0.4l-0.7,0.3l-1.1,0.4l-0.2,0.1l-1.2,0.5l-0.3,0.1l-0.2,0.1l-1.2,0.5l-0.2,0.1l-0.2,0.1l-1.2,0.5l-0.1,0.1
		l-0.1,0l-1,0.4l-0.8,0.3l-0.9,0.4l-0.2,0.1l0,0l-0.8,0.3l-0.2,0.1l-0.9,0.4l-1,0.4l-0.1,0l-0.2,0.1l-0.8,0.4l-0.1,0.1l-0.7,0.3
		l-1.1,0.5l-0.2,0.1l-1.4,0.6l-0.1,0l-1.2,0.5l-0.5,0.3l-0.2,0.1l-0.8,0.4l-0.1,0.1l-0.1,0.1l-1,0.4l-0.7,0.3l-0.9,0.4l-0.2,0.1l0,0
		l-0.2,0.1l-1.1,0.5l-0.2,0.1l-0.1,0.1l-1.3,0.6l0,0l-0.2,0.1l-1.1,0.5l-0.2,0.1l-0.3,0.1l-1,0.5l-0.1,0.1l-0.4,0.2l-1,0.5l-0.2,0.1
		l-1.3,0.7l0,0l-1.3,0.6l-0.2,0.1l-0.2,0.1l-1.2,0.6l-0.1,0l-0.1,0l-1.3,0.7l0,0l-1.4,0.7l-0.1,0l-1.1,0.6l-0.2,0.1l-0.2,0.1l0,0
		l-1.1,0.6l-0.2,0.1c-0.9,0.5-1.8,1-2.6,1.4l-0.1,0.1l-1.1,0.6l-0.2,0.1l0,0l-1.2,0.7l-0.2,0.1l0,0l-1.2,0.7l-0.1,0l-0.2,0.1
		l-1.2,0.7l-0.8,0.4l-0.8,0.4l-0.8,0.4l-0.8,0.4l-0.8,0.5l-0.8,0.5l-0.8,0.5l-0.8,0.5l-0.8,0.5l-0.7,0.5l-0.7,0.5l-0.7,0.5l-0.7,0.5
		l-0.7,0.5l-0.7,0.5l-0.7,0.5l-0.7,0.5l-0.7,0.5l-0.7,0.5l-0.7,0.5l-0.7,0.5l-0.7,0.5l-0.7,0.5l-0.7,0.5l-0.7,0.5l-0.7,0.5l-0.7,0.5
		l-0.7,0.5l-0.7,0.5v0l-0.7,0.5l-0.7,0.5l-0.7,0.5v0l-0.7,0.5l-0.7,0.5v0l-0.7,0.5v0l-0.7,0.5l-0.7,0.5v0l-0.7,0.5l-0.7,0.5v0
		l-0.7,0.5v0l-0.7,0.5v0l-0.7,0.5v0l-0.7,0.5v0l-0.7,0.5v0l-0.7,0.5v0l-0.7,0.5v0c-0.4,0.3-0.9,0.7-1.3,1v0l-0.6,0.5v0l-0.6,0.5v0
		l-0.6,0.5v0l-0.6,0.5v0c-2.6,2.1-5,4.2-7.5,6.3L828.1,866.1z"/>
	<polygon id="XMLID_119_" fill-rule="evenodd" clip-rule="evenodd" fill="#FFF6F0" points="273.8,240.1 306.8,259.1 456.4,172.8 
		423.3,153.7 	"/>
	<polygon id="XMLID_118_" fill-rule="evenodd" clip-rule="evenodd" fill="#F48681" points="306.8,259 313.1,262.7 462.6,176.4 
		456.4,172.8 	"/>
	<polygon id="XMLID_117_" fill-rule="evenodd" clip-rule="evenodd" fill="#F48681" points="267.6,236.5 273.8,240.1 423.3,153.7 
		417.1,150.1 	"/>
	<polygon id="XMLID_116_" fill-rule="evenodd" clip-rule="evenodd" fill="#F48681" points="418.6,151 412.4,154.6 453.3,178.2 
		459.5,174.6 	"/>
	<polygon id="XMLID_115_" fill-rule="evenodd" clip-rule="evenodd" fill="#CBC1C1" points="273.8,483.7 273.8,483.7 306.4,502.4 
		306.8,502.8 306.8,259 274.2,239.8 273.8,239.6 	"/>
	<polygon id="XMLID_114_" fill-rule="evenodd" clip-rule="evenodd" fill="#EC5B54" points="306.8,502.8 313.1,506.4 313.1,262.6 
		306.8,259 	"/>
	<polygon id="XMLID_113_" fill-rule="evenodd" clip-rule="evenodd" fill="#EC5B54" points="267.5,480.1 273.8,483.7 274.2,239.8 
		267.6,236.5 	"/>
	<polygon id="XMLID_112_" fill-rule="evenodd" clip-rule="evenodd" fill="#F0756C" points="313.1,506.7 462.6,420.4 462.6,176.2 
		313.1,262.6 	"/>
	<polygon id="XMLID_111_" fill-rule="evenodd" clip-rule="evenodd" fill="#FFFFFF" points="334.7,349 440.9,287.7 440.9,224.1 
		334.7,285.4 	"/>
	<polygon id="XMLID_110_" fill-rule="evenodd" clip-rule="evenodd" fill="#FFF6F0" points="318.6,295.9 348,312.9 480.9,236.1 
		451.6,219.2 	"/>
	<polygon id="XMLID_109_" fill-rule="evenodd" clip-rule="evenodd" fill="#7CC5B9" points="348,312.7 353.5,316.1 486.5,239.3 
		480.9,236.1 	"/>
	<polygon id="XMLID_108_" fill-rule="evenodd" clip-rule="evenodd" fill="#7CC5B9" points="313.1,292.7 318.6,295.9 451.6,219.2 
		446,216 	"/>
	<polygon id="XMLID_107_" fill-rule="evenodd" clip-rule="evenodd" fill="#7CC5B9" points="447.4,216.8 441.8,220 478.2,240.9 
		483.7,237.7 	"/>
	<polygon id="XMLID_106_" fill-rule="evenodd" clip-rule="evenodd" fill="#CBC1C1" points="318.6,512.5 318.6,512.5 347.6,529.2 
		348,529.5 348,312.7 319,295.7 318.6,295.5 	"/>
	<polygon id="XMLID_105_" fill-rule="evenodd" clip-rule="evenodd" fill="#619A8E" points="348,529.5 353.5,532.7 353.5,315.9 
		348,312.7 	"/>
	<polygon id="XMLID_104_" fill-rule="evenodd" clip-rule="evenodd" fill="#619A8E" points="313.1,509.3 318.6,512.5 319,295.7 
		313.1,292.7 	"/>
	<polygon id="XMLID_103_" fill-rule="evenodd" clip-rule="evenodd" fill="#3CB0A9" points="353.5,533 486.5,456.2 486.5,239.2 
		353.5,315.9 	"/>
	<polygon id="XMLID_102_" fill-rule="evenodd" clip-rule="evenodd" fill="#FFFFFF" points="372.8,392.7 467.2,338.2 467.2,281.8 
		372.8,336.3 	"/>
	<polygon id="XMLID_101_" fill-rule="evenodd" clip-rule="evenodd" fill="#74603D" points="716.8,567.5 504,443.8 358.8,527.6 
		571.6,651.3 	"/>
	<polygon id="XMLID_100_" fill-rule="evenodd" clip-rule="evenodd" fill="#5E4F33" points="707.4,544.7 712.2,542 712.2,570.2 
		707.4,567.7 	"/>
	<polygon id="XMLID_99_" fill-rule="evenodd" clip-rule="evenodd" fill="#74603D" points="716.8,539.2 504,415.6 358.8,499.4 
		571.6,623.1 	"/>
	<polygon id="XMLID_98_" fill-rule="evenodd" clip-rule="evenodd" fill="#4E402A" points="716.8,539.2 571.7,623.1 571.7,628.7 
		716.8,544.6 	"/>
	<polygon id="XMLID_97_" fill-rule="evenodd" clip-rule="evenodd" fill="#5E4F33" points="571.7,628.7 358.8,505.1 358.8,499.4 
		571.6,623.1 571.7,623.1 	"/>
	<polygon id="XMLID_96_" fill-rule="evenodd" clip-rule="evenodd" fill="#4E402A" points="716.8,567.4 571.7,651.3 571.7,656.9 
		716.8,572.8 	"/>
	<polygon id="XMLID_95_" fill-rule="evenodd" clip-rule="evenodd" fill="#5E4F33" points="571.7,656.9 358.8,533.3 358.8,527.6 
		571.6,651.3 571.7,651.3 	"/>
	<polygon id="XMLID_94_" fill-rule="evenodd" clip-rule="evenodd" fill="#4E402A" points="716.8,539.2 712.2,542 712.2,575.5 
		716.8,572.9 	"/>
	<polygon id="XMLID_93_" fill-rule="evenodd" clip-rule="evenodd" fill="#D4CACB" points="707.4,550.1 571.7,628.7 571.7,646.1 
		707.4,567.7 	"/>
	<polygon id="XMLID_92_" fill-rule="evenodd" clip-rule="evenodd" fill="#CBC1C1" points="366.7,509.6 571.8,628.7 571.8,646.1 
		366.7,527.2 	"/>
	<polygon id="XMLID_91_" fill-rule="evenodd" clip-rule="evenodd" fill="#DDC933" points="586.7,614.4 586.7,620 591.7,617.1 
		591.7,611.5 	"/>
	<polygon id="XMLID_90_" fill-rule="evenodd" clip-rule="evenodd" fill="#FAEF5E" points="373.8,490.7 586.7,614.4 591.7,611.5 
		378.9,487.8 	"/>
	<polygon id="XMLID_89_" fill-rule="evenodd" clip-rule="evenodd" fill="#F5BC71" points="395.8,531.7 549.7,442.2 654.8,502.9 
		500.8,592.4 	"/>
	<polygon id="XMLID_88_" fill-rule="evenodd" clip-rule="evenodd" fill="#F3A545" points="402.6,515.2 399.2,513.2 399.2,533.6 
		402.6,531.9 	"/>
	<polygon id="XMLID_87_" fill-rule="evenodd" clip-rule="evenodd" fill="#F5BC71" points="395.8,511.3 549.7,421.8 654.8,482.5 
		500.8,571.9 	"/>
	<polygon id="XMLID_86_" fill-rule="evenodd" clip-rule="evenodd" fill="#F39731" points="395.8,511.3 500.8,571.9 500.8,576 
		395.8,515.2 	"/>
	<polygon id="XMLID_85_" fill-rule="evenodd" clip-rule="evenodd" fill="#F3A545" points="500.8,576 654.8,486.6 654.8,482.5 
		500.8,571.9 500.8,571.9 	"/>
	<polygon id="XMLID_84_" fill-rule="evenodd" clip-rule="evenodd" fill="#F39731" points="395.8,531.7 500.8,592.3 500.8,596.4 
		395.8,535.6 	"/>
	<polygon id="XMLID_83_" fill-rule="evenodd" clip-rule="evenodd" fill="#F3A545" points="500.8,596.4 654.8,507 654.8,502.9 
		500.8,592.3 500.8,592.3 	"/>
	<polygon id="XMLID_82_" fill-rule="evenodd" clip-rule="evenodd" fill="#F39731" points="395.8,511.3 399.2,513.2 399.2,537.5 
		395.8,535.6 	"/>
	<polygon id="XMLID_81_" fill-rule="evenodd" clip-rule="evenodd" fill="#D4CACB" points="402.6,519.2 500.8,576 500.8,588.6 
		402.6,531.9 	"/>
	<polygon id="XMLID_80_" fill-rule="evenodd" clip-rule="evenodd" fill="#CBC1C1" points="649.1,489.9 500.7,576 500.7,588.6 
		649.1,502.6 	"/>
	<polygon id="XMLID_79_" fill-rule="evenodd" clip-rule="evenodd" fill="#73C4C9" points="612.7,503.5 500,438.1 423.2,482.4 
		535.8,547.8 	"/>
	<polygon id="XMLID_78_" fill-rule="evenodd" clip-rule="evenodd" fill="#44AAAD" points="607.6,491.5 610.2,490 610.2,504.9 
		607.6,503.6 	"/>
	<polygon id="XMLID_77_" fill-rule="evenodd" clip-rule="evenodd" fill="#73C4C9" points="612.7,488.6 500,423.1 423.2,467.5 
		535.8,532.9 	"/>
	<polygon id="XMLID_76_" fill-rule="evenodd" clip-rule="evenodd" fill="#5FBBC1" points="612.7,488.6 535.8,532.9 535.8,535.9 
		612.7,491.4 	"/>
	<polygon id="XMLID_75_" fill-rule="evenodd" clip-rule="evenodd" fill="#44AAAD" points="535.8,535.9 423.2,470.5 423.2,467.5 
		535.8,532.9 535.8,532.9 	"/>
	<polygon id="XMLID_74_" fill-rule="evenodd" clip-rule="evenodd" fill="#5FBBC1" points="612.7,503.5 535.8,547.8 535.8,550.8 
		612.7,506.3 	"/>
	<polygon id="XMLID_73_" fill-rule="evenodd" clip-rule="evenodd" fill="#44AAAD" points="535.8,550.8 423.2,485.4 423.2,482.4 
		535.8,547.8 535.8,547.8 	"/>
	<polygon id="XMLID_72_" fill-rule="evenodd" clip-rule="evenodd" fill="#5FBBC1" points="612.7,488.6 610.2,490 610.2,507.8 
		612.7,506.3 	"/>
	<polygon id="XMLID_71_" fill-rule="evenodd" clip-rule="evenodd" fill="#D4CACB" points="607.6,494.3 535.8,535.9 535.8,545.1 
		607.6,503.6 	"/>
	<polygon id="XMLID_70_" fill-rule="evenodd" clip-rule="evenodd" fill="#CBC1C1" points="427.4,472.9 535.9,535.9 535.9,545.1 
		427.4,482.2 	"/>
	<polygon id="XMLID_69_" fill-rule="evenodd" clip-rule="evenodd" fill="#E6E7E8" points="442.7,467.2 500.8,433.6 524.3,447.3 
		466.1,480.8 	"/>
	<polygon id="XMLID_68_" fill-rule="evenodd" clip-rule="evenodd" fill="#EC5B54" points="10,679.5 311.7,853.7 512.7,737.6 
		512.7,717.9 212.2,564.6 10,659.8 	"/>
	<polygon id="XMLID_67_" fill-rule="evenodd" clip-rule="evenodd" fill="#F0756C" points="10,659.8 311.7,834 512.7,717.9 
		212.2,544.9 	"/>
	<polygon id="XMLID_66_" fill-rule="evenodd" clip-rule="evenodd" fill="#EBECE6" points="316.4,834.8 316.4,848 512.7,734.7 
		512.7,721.5 	"/>
	<path fill-rule="evenodd" clip-rule="evenodd" d="M98.7,689.4L98.7,689.4L98.7,689.4 M98.2,676.7l1.2-0.8L98.2,676.7l0-0.1l0,0l0,0
		l0,0l0,0l0,0l0,0l0-0.1l0-0.1l0,0l0,0l0-0.1l0,0l0,0l0,0l0,0l0,0l0,0l0,0l0-0.1l0,0v0l0,0l0-0.1l0,0l0,0l0-0.1l0-0.1l0,0l0,0
		l0.1-0.1l0,0l0,0l0.1-0.2l0,0l0,0l0,0l0,0l0,0l0,0l0,0l0,0l0,0l0,0l0,0l0,0l0,0l0,0l0,0l0,0l0,0l0,0l0,0l0,0l0,0l0,0l0,0l0,0l0,0
		l0,0l0,0l0,0l0,0l0,0l0,0l0,0l0,0l0,0l0,0l0,0l0,0l0,0l0,0l0,0l0,0l0,0l0,0l0,0l0,0l0,0l0,0l0,0l0,0l0,0c0,0,0,0,0.1-0.1l0,0
		c0,0,0.1,0,0.1-0.1l1.2-0.8l0,0l0,0l0,0l0,0l0,0l0,0l0,0l0,0l0,0l0,0l0,0l0,0l0,0l0,0l0,0l0,0l0,0l0,0l0,0l0,0l0,0l0,0l0,0l0,0l0,0
		l0,0l0,0l0,0l0,0l0,0l0,0l0,0l0,0l0,0l0,0l0,0l0,0l0,0l0,0l0,0l0,0l0,0l0,0l0,0l0,0l0,0l0,0l0,0l0,0l0,0l0,0l0,0l0,0l0,0l0,0l0,0
		l0,0l0,0l0,0l0,0l0,0l0,0l0,0.1l0,0v0l0,0l0,0l0,0l0,0l0,0l0,0c0,0.1-0.1,0.1-0.1,0.2l0,0l0,0c0,0,0,0.1-0.1,0.1l0,0l0,0
		c0,0,0,0.1,0,0.1l0,0l0,0c0,0,0,0.1,0,0.1c0,0,0,0.1,0,0.1l0,0l0,0l0,0l0,0.1l0,0.1l0,0l0,0l0,0l0,0l0,0l0,0l0,0l0,0l0,0l0,0v0l0,0
		l0,0.1l0,0.1l0,0l0,0l0,0l0,0.1l1.4,9.9l0,0.1l0,0l0,0.2l0,0l0,0h0l0,0l0,0.1l0,0l0,0l0,0.1l0,0l0,0l0,0.1l0,0.1l0,0l0,0.1l0,0.1
		l0,0l0,0l0,0.1l0,0l0,0l0,0.1l0,0l0,0l0,0.2l0,0l0,0l-0.1,0.2l-0.1,0.2l0,0l0,0l0,0l0,0.1l0,0l0,0l0,0l0,0l0,0l0,0l0,0l0,0l0,0l0,0
		l0,0l0,0l0,0l0,0l0,0l0,0l0,0l0,0l0,0l0,0c-0.1,0.1-0.2,0.2-0.3,0.3h0l-1.2,0.8l0,0l0,0l0,0l0,0l0,0l0,0l0,0l0,0l0,0
		c0,0,0.1,0,0.1-0.1l0,0l0.1-0.1l0,0c0,0,0.1-0.1,0.1-0.1l0,0c0,0,0-0.1,0.1-0.1l0,0l0,0l0,0l0,0l0,0l0,0l0,0l0,0l0,0l0,0l0,0l0,0
		l0,0l0,0l0,0l0,0l0,0l0,0l0,0l0,0l0-0.1c0-0.1,0.1-0.2,0.1-0.2l0,0l0,0c0-0.1,0-0.1,0.1-0.2c0-0.1,0-0.1,0.1-0.2c0-0.1,0-0.1,0-0.2
		c0-0.1,0-0.1,0-0.2c0-0.1,0-0.1,0-0.2c0-0.1,0-0.1,0-0.2c0-0.1,0-0.1,0-0.2l0,0v0c0-0.1,0-0.1,0-0.2c0-0.1,0-0.1,0-0.2
		c0-0.1,0-0.1,0-0.2l0-0.1l1.2-0.8l-1.2,0.8L98.2,676.7z"/>
	<path fill-rule="evenodd" clip-rule="evenodd" fill="#5A5B5F" d="M94,667.3L94,667.3L94,667.3L94,667.3 M100.5,668.2L100.5,668.2
		l-0.4-0.3l0,0l0,0l0,0l0,0l0,0l0,0l0,0l0,0l0,0l0,0l0,0l0,0l0,0l0,0l0,0l0,0l0,0l0,0l-0.2-0.1l0,0v0l0,0l0,0l0,0l0,0l0,0l0,0l0,0
		l0,0l0,0l0,0l0,0l0,0l0,0l0,0l0,0l0,0h0l0,0l0,0l0,0l0,0l0,0l0,0l0,0l0,0l0,0l0,0l0,0l0,0h0l0,0l0,0l0,0l0,0l0,0l0,0l0,0l0,0l0,0
		l0,0l0,0l0,0l0,0l0,0l0,0l0,0l0,0l-0.1,0l-0.1,0l0,0c-0.1,0-0.2-0.1-0.2-0.1l-0.1,0l0,0l0,0l0,0l0,0l0,0l0,0l0,0l0,0l0,0l0,0l0,0
		l0,0l0,0l0,0l0,0l0,0l0,0l0,0l0,0l0,0l0,0l0,0l0,0l0,0l0,0l0,0l0,0l0,0l0,0l0,0l0,0l0,0l0,0l0,0l0,0l0,0l0,0l0,0l0,0l0,0l0,0l0,0v0
		l-0.1,0l-0.1,0l0,0l0,0l0,0l0,0l0,0l0,0l0,0l0,0l0,0l0,0l0,0l0,0l0,0l0,0l0,0l0,0l0,0l0,0l0,0l0,0l0,0l0,0l0,0l0,0l0,0l0,0l0,0l0,0
		l0,0l0,0l0,0l0,0l0,0l0,0l0,0l0,0l0,0l0,0l0,0l0,0l0,0l0,0l0,0l0,0l0,0l0,0l0,0l0,0l0,0l0,0l0,0l0,0l0,0l0,0l0,0l0,0l0,0l0,0l0,0
		l0,0l0,0l0,0l0,0l0,0l0,0l0,0l-0.1,0l0,0l0,0l0,0l0,0l0,0l0,0l0,0l0,0l0,0l0,0l0,0l0,0l0,0l0,0l0,0l0,0l0,0l0,0l0,0l0,0l0,0h0l0,0
		l0,0l0,0l0,0l0,0l0,0l0,0l0,0l0,0l0,0l0,0l0,0l0,0l0,0l0,0l0,0l0,0v0l0,0l0,0l0,0l0,0l0,0l-0.1,0l0,0l0,0l0,0l0,0l0,0l0,0l0,0l0,0
		l0,0l0,0l0,0l0,0l0,0l0,0l0,0l0,0l0,0l0,0l0,0l0,0l0,0l0,0l0,0l0,0l0,0l0,0l0,0l0,0l0,0l0,0l0,0l0,0l0,0l0,0l0,0l0,0l0,0l0,0l0,0
		l0,0l0,0l0,0l0,0l0,0l0,0l0,0l0,0l0,0l0,0l0,0l0,0l0,0l0,0l0,0l0,0l0,0l0,0l0,0l0,0l0,0l0,0l0,0l0,0l0,0l0,0l0,0l0,0l0,0l0,0l0,0
		l0,0l0,0h0l0,0l0,0l0,0l0,0l0,0l0,0h0l0,0l0,0l0,0l0,0l0,0l0,0l0,0l0,0l0,0l0,0l0,0l0,0l0,0l0,0l0,0l0,0l0,0l0,0l0,0l0,0l0,0l0,0
		l0,0l0,0l0,0l0,0l0,0l0,0l0,0l0,0l0,0l0,0l0,0l0,0l0,0l0,0l0,0l0,0l0,0l0,0l0,0l0,0l0,0l0,0l0,0l0,0l0,0l0,0l0,0l0,0l0,0h0l0,0l0,0
		v0l0,0l0,0l0,0l0,0l0,0l0,0l0,0l0,0l0,0l0,0l0,0l0,0l0,0l0,0l0,0l0,0l0,0l0,0l0,0l0,0l0,0l0,0l0,0l0,0l0,0l0,0l0,0l0,0l0,0l0,0l0,0
		l0,0l0,0l0,0l0,0l0,0l0,0h0l0,0l0,0l0,0l0,0l0,0l-0.1,0l-0.1,0l0,0l0,0l0,0l0,0l0,0l0,0l0,0l0,0l0,0l0,0l0,0l0,0l0,0l0,0l0,0l0,0
		l0,0l0,0l0,0l0,0l0,0l0,0l0,0l0,0l0,0l0,0l0,0l0,0l0,0l0,0l0,0l0,0l0,0l0,0l0,0l0,0l0,0l0,0c0,0,0,0,0,0l0,0l0,0l0,0l0,0l-0.1,0
		l0,0l0,0l0,0l0,0l0,0l0,0l0,0h0l0,0l0,0l0,0h0l0,0l0,0h0l0,0l0,0l0,0l0,0l0,0l0,0l0,0l0,0l0,0l0,0l0,0l-0.1,0c-0.1,0-0.1,0-0.2,0
		l0,0l0,0h0l0,0l0,0l0,0l0,0h0l0,0l0,0h0l0,0l0,0l0,0l0,0l0,0l0,0l0,0l0,0l0,0l0,0l0,0l0,0l0,0l0,0l0,0l0,0l0,0l0,0l0,0l0,0l0,0l0,0
		l0,0l0,0l0,0l0,0l0,0l0,0l0,0l0,0l0,0l0,0l0,0l0,0l0,0l0,0l0,0l0,0l0,0l0,0l0,0l0,0l0,0l0,0l0,0l0,0l0,0l0,0l0,0l0,0l0,0l0,0l0,0
		l0,0l0,0l0,0l0,0l0,0l0,0l0,0l0,0l0,0l0,0l0,0l0,0l0,0l0,0l0,0l0,0l0,0l0,0l0,0l0,0l0,0l0,0l0,0l0,0l0,0l0,0l0,0l0,0l0,0l0,0l0,0
		l0,0l0,0l0,0l0,0l0,0l0,0l0,0l0,0l0,0l0,0l0,0l0,0l0,0l0,0l0,0l0,0l0,0l0,0l0,0l0,0l0,0l0,0l0,0l0,0l0,0l0,0l0,0l0,0l0,0l0,0l0,0
		l0,0l0,0l0,0l0,0l0,0l0,0l0,0l0,0l0,0l0,0l0,0l0,0l0,0l0,0l0,0l0,0l0,0l0,0l0,0l0,0l0,0l0,0l0,0l0,0l0,0l0,0l0,0l0,0l0,0l0,0l0,0
		l0,0l0,0l0,0l0,0l0,0l0,0l0,0l0,0l0,0l0,0l0,0l0,0l0,0l0,0l0,0l0,0l0,0l0,0l0,0l0,0l0,0l0,0l0,0l0,0l0,0l0,0l0,0l0,0l0,0l0,0l0,0
		l0,0l0,0l0,0l0,0l0,0l0,0l0,0l0,0l0,0l0,0l0,0l0,0l0,0l0,0l0,0l0,0l0,0l-0.1,0c0,0-0.1,0-0.1,0.1l0,0l0,0l0,0l0,0l0,0l0,0l0,0l0,0
		l0,0l0,0l0,0l0,0l0,0l0,0l0,0l0,0l0,0l0,0l0,0l0,0l0,0l0,0l0,0l0,0l0,0l0,0l0,0l0,0l0,0l0,0l0,0l0,0l0,0l0,0l0,0l0,0l0,0l0,0
		l-0.1,0l0,0l0,0l0,0l0,0l0,0l0,0l0,0l0,0l0,0l1.2-0.8l0,0l0,0l0.1,0l0,0l0,0l0.1,0l0,0l0.1,0l0,0c0,0,0.1,0,0.1-0.1l0,0l0.1,0l0,0
		l0,0l0,0l0,0l0,0l0,0l0,0l0,0l0,0l0,0l0,0l0,0l0,0l0,0l0,0l0,0l0,0l0,0l0,0l0,0l0,0l0,0l0,0l0,0l0,0l0,0l0,0l0,0l0,0l0,0l0,0l0,0
		l0,0l0,0l0,0l0,0l0,0l0,0l0,0l0,0l0,0l0,0l0,0l0,0l0,0l0,0l0,0l0,0l0,0l0,0l0,0l0,0l0,0l0,0l0,0l0,0l0,0l0,0l0,0l0,0l0,0l0,0l0,0
		l0,0l0,0l0,0l0,0l0,0l0,0l0,0l0,0l0,0l0,0l0,0l0,0l0,0l0,0l0,0l0,0l0,0l0,0l0,0l0,0l0,0l0,0l0,0l0,0l0,0l0,0l0,0l0,0l0,0l0,0l0,0
		l0,0l0,0l0,0l0,0l0,0l0,0l0,0l0,0l0,0l0,0l0,0l0,0l0,0l0,0l0,0l0,0l0,0l0,0l0,0l0,0l0,0l0,0l0,0l0,0l0,0l0,0l0,0l0,0l0,0l0,0l0,0
		l0,0l0,0l0,0l0,0l0,0l0,0l0,0l0,0l0,0l0,0l0,0l0,0l0,0l0,0l0,0l0,0h0h0l0,0l0,0l0,0l0,0l0,0l0,0l0,0l0,0l0,0l0,0l0,0l0,0l0,0l0,0
		l0,0l0,0l0,0l0,0l0,0l0,0l0,0l0,0l0,0l0,0l0,0l0,0l0,0l0,0l0,0l0,0h0l0,0l0,0l0,0l0,0l0,0l0,0l0,0l0,0l0,0l0,0l0,0v0l0,0l0,0l0,0
		l0,0l0,0l0,0l0,0l0,0l0,0l0,0h0l0,0l0,0l0,0l0,0l0,0l0,0l0,0l0,0l0,0h0l0,0l0,0l0,0l0,0l0,0l0,0l0,0l0,0l0,0l0,0l0,0l0,0l0,0l0,0h0
		l0,0l0,0l0,0h0l0,0h0l0,0h0l0,0h0l0,0h0l0,0l0,0l0,0h0l0,0h0h0l0,0l0,0l0,0l0,0l0,0h0h0h0l0,0h0h0l0,0h0h0l0,0h0h0h0h0h0l0,0h0h0h0
		h0l0,0l0,0h0h0h0l0,0h0h0h0l0,0h0h0l0,0l0,0l0,0h0l0,0l0,0h0l0,0h0l0.1,0l0,0l0,0l0,0l0,0l0,0l0,0l0,0l0,0l0,0l0,0l0,0l0,0l0,0l0,0
		l0,0l0,0l0,0l0,0l0,0l0,0l0,0l0,0l0,0l0.1,0l0,0l0,0l0,0l0,0l0,0l0,0l0,0l0,0l0,0l0,0l0,0l0,0l0,0l0,0l0,0l0,0l0,0l0,0l0,0l0,0l0,0
		l0,0l0,0l0,0l0,0l0,0l0,0l0,0l0,0l0,0l0,0l0,0l0,0l0,0l0,0l0,0l0,0l0,0h0l0,0l0,0l0,0l0,0l0,0l0,0l0,0l0,0l0,0l0,0l0,0l0,0l0,0l0,0
		l0,0l0,0l0,0l0,0l0,0l0,0l0,0l0,0l0,0l0,0l0,0l0,0l0,0l0,0l0,0l0,0l0,0l0,0l0,0l0,0l0,0l0,0l0,0l0,0l0,0l0,0l0,0l0,0l0,0l0,0l0,0
		l0,0l0,0l0,0l0,0l0,0l0,0l0,0l0,0l0,0l0,0l0,0l0,0l0,0l0,0l0,0l0,0l0,0l0,0l0,0l0,0l0,0l0,0l0,0l0,0l0,0l0,0l0,0l0,0l0,0l0,0l0,0
		l0,0l0,0l0,0l0,0l0,0l0,0l0,0l0,0l0,0l0,0l0,0l0,0l0,0l0,0l0,0l0,0l0,0l0,0l0,0l0,0l0,0l0,0l0,0l0,0l0,0l0,0l0,0l0,0l0,0l0,0l0,0
		l0,0l0,0l0,0l0,0l0,0l0,0l0,0l0,0l0,0l0,0l0,0l0,0l0,0l0,0l0,0l0,0l0,0l0,0l0,0l0,0l0,0h0l0,0l0,0l0,0l0,0l0,0l0,0l0,0l0,0l0,0l0,0
		l0,0l0,0l0,0l0,0l0,0l0,0l0,0l0,0l0,0l0,0l0,0l0,0l0,0l0,0l0,0l0,0l0,0l0,0l0,0l0,0l0,0l0,0l0,0l0,0l0,0l0,0l0,0l0,0l0,0l0,0l0,0
		l0,0l0,0h0l0,0l0,0l0,0l0,0l0,0l0,0l0,0l0,0l0,0l0,0l0,0l0,0l0,0l0,0l0,0l0,0l0,0l0,0l0,0l0,0l0,0l0,0l0,0l0,0l0,0l0,0l0,0l0,0l0,0
		l0,0l0,0l0,0l0,0l0,0l0,0l0,0l0,0l0,0l0,0l0,0l0,0l0,0l0,0l0,0l0,0l0,0l0,0l0,0l0,0l0,0l0,0l0,0l0,0l0,0l0,0l0,0l0,0
		c0.1,0,0.2,0.1,0.3,0.1l0,0l0,0l0,0l0,0l0,0h0c0.1,0,0.2,0.1,0.3,0.1h0c0.1,0,0.2,0.1,0.3,0.1l0,0l0.2,0.1l0,0l0,0l0,0l0,0l0,0
		c0.1,0.1,0.2,0.1,0.3,0.2l0,0l0.1,0l0,0l0,0l0,0l0,0l0,0l0,0l0,0l0,0l0,0l0,0l0,0l0,0l0,0l0,0l0,0l0,0l0,0l0,0l0,0l0,0l0,0l0,0h0
		l0,0l0,0l0,0l0,0l0,0l0,0l0,0l0,0l0,0l0,0l0,0l0.4,0.2l78.1,43.3l-1.2,0.8L100.5,668.2z"/>
	<path id="XMLID_61_" fill-rule="evenodd" clip-rule="evenodd" fill="#414142" d="M99.4,667.5c0.4,0.2,0.7,0.4,1.1,0.7l78.1,43.3
		l0.5,10.3L101.5,675c-0.2-0.1-0.4-0.3-0.6-0.4c-1.7-0.9-3,0.1-2.7,2.1l1.4,9.9c0.3,2.5-1.2,3.7-3.4,2.6c-2-1-3.7-3.6-3.8-5.8
		l-0.5-11.1C91.7,667.4,95.1,665.3,99.4,667.5"/>
	<path fill-rule="evenodd" clip-rule="evenodd" d="M249.4,580.1l1.4,9.9l0,0.1l0,0.1l0,0h0l0,0l0,0.2l0,0l0,0.2l0,0.1l0,0l0,0l0,0.1
		l0,0.2l0,0l0,0l0,0.2l0,0.2l0,0.2l-0.1,0.2l-0.1,0.2l0,0l0,0l-0.1,0.2l0,0l0,0l0,0l0,0l0,0l0,0l0,0l0,0l0,0l0,0l0,0l0,0l0,0l0,0
		l0,0l0,0l0,0l0,0l0,0l0,0l0,0l0,0l0,0l0,0l0,0l0,0l0,0l0,0l0,0l0,0l0,0l0,0l0,0l0,0l0,0l0,0l0,0l0,0l0,0l0,0l0,0l0,0l0,0l0,0l0,0
		l0,0l0,0l0,0l0,0l0,0l0,0l0,0l0,0l0,0l0,0l0,0l0,0l0,0l0,0l0,0l0,0l0,0l0,0l0,0l0,0l0,0l0,0l0,0l0,0l0,0l0,0l0,0l0,0l0,0l0,0l0,0
		l0,0l0,0l0,0l0,0l0,0l0,0l-0.6,0.4l-0.6,0.4l0,0v0l0,0l0,0l0,0l0,0l0,0l0,0l0,0l0,0l0,0l0,0l0,0l0,0l0,0l0,0l0,0l0,0l0,0l0,0l0,0
		l0,0l0,0l0,0l0,0l0,0l0,0l0,0l0,0l0,0l0,0l0,0l0,0l0,0l0,0l0,0l0,0l0,0l0,0l0,0l0,0l0,0l0,0l0,0l0,0l0,0l0,0l0,0l0,0l0,0l0,0l0,0
		l0,0l0,0l0,0l0,0l0,0l0,0l0,0l0,0l0,0l0,0l0,0l0,0l0,0l0,0l0,0l0,0l0,0l0,0l0,0l0,0l0,0l0,0l0,0c0-0.1,0.1-0.2,0.1-0.2
		c0-0.1,0-0.1,0.1-0.2l0,0l0,0c0-0.1,0-0.1,0-0.2l0,0l0,0c0-0.1,0-0.1,0-0.2l0,0l0,0c0,0,0-0.1,0-0.1l0,0l0,0c0,0,0-0.1,0-0.1
		c0-0.1,0-0.1,0-0.2c0-0.1,0-0.1,0-0.2c0-0.1,0-0.1,0-0.2l0,0c0-0.1,0-0.1,0-0.2c0-0.1,0-0.1,0-0.2l0-0.1l1.2-0.8l-1.2,0.8l-1.4-9.9
		l0-0.1l0-0.1l0,0l0,0l0-0.1l0-0.1l0,0l0,0l0-0.1l0-0.1l0-0.1l0-0.1l0,0l0-0.1l0-0.1l0,0h0l0,0l0-0.1l0,0l0,0l0,0l0.1-0.2l0,0l0,0
		l0,0l0,0l-0.1-0.5c0.2-0.1,1.7-1,1.3-0.3c0,0.1,0,0.1-0.1,0.2c0,0,0,0.1,0,0.1l0,0l0,0l0,0c0,0,0,0.1,0,0.1l0,0l0,0.1l0,0l0,0
		l0,0.1l0,0.1l0,0.1l0,0l0,0l0,0v0l0,0l0,0v0l0,0l0,0l0,0l0,0l0,0.1L249.4,580.1z M249.8,578.1L249.8,578.1L249.8,578.1L249.8,578.1
		L249.8,578.1L249.8,578.1L249.8,578.1L249.8,578.1L249.8,578.1L249.8,578.1L249.8,578.1L249.8,578.1L249.8,578.1L249.8,578.1
		L249.8,578.1L249.8,578.1l0.1-0.1l0,0l0,0l0,0l0,0l0,0l0,0l0,0l0,0l0,0l0,0l0,0l0,0l0,0l0,0l0,0l0,0l0,0 M250.1,577.9L250.1,577.9
		l-0.3-0.3l-1.2,0.8l0.1,0.1l0,0l0,0l0,0l0,0l0,0l0,0l0,0l0,0l0,0l0,0l0,0l0,0l0,0l0,0c0,0,0,0-0.1,0.1l0,0l0,0l0,0l0,0l0,0l0,0l0,0
		l0,0l0,0l0,0l0,0l0,0l0,0l0,0l0,0l0,0l0,0l0,0l0,0l0,0l0,0l0,0l0,0l0,0l0,0l0,0l0,0l0,0l0,0l0,0l0,0l0,0l0,0l0,0l0,0v0l0,0l0,0l0,0
		v0l0,0 M248.7,578.4L248.7,578.4"/>
	<path fill-rule="evenodd" clip-rule="evenodd" fill="#5A5B5F" d="M250.3,570.8l0.2,0.1l-0.6,0.4l-0.6,0.4c-0.1,0-0.2-0.1-0.2-0.1
		l0,0l0,0l0,0l0,0l0,0l0,0l0,0l0,0l0,0l0,0l0,0l0,0l0,0l0,0l0,0l0,0l0,0l0,0l0,0l0,0l0,0l0,0l0,0l0,0l0,0l0,0l0,0l0,0l0,0l0,0l0,0
		l0,0l0,0l0,0l0,0l0,0l0,0l0,0l0,0l0,0l0,0l0,0l0,0l0,0l0,0l0,0c0,0-0.1,0-0.1,0l0,0l0,0l0,0l0,0l0,0l0,0l0,0l0,0l0,0l0,0l0,0l0,0
		l0,0l0,0l0,0l0,0l0,0l0,0l0,0l0,0l0,0l0,0l0,0l0,0l0,0l0,0l0,0l0,0l0,0l0,0l0,0l0,0l0,0l0,0l0,0l0,0l0,0l0,0l0,0l0,0l0,0l0,0l0,0
		l0,0l0,0l0,0l-0.1,0l0,0l0,0l0,0l0,0l0,0l0,0l0,0l0,0l0,0l0,0l0,0l0,0l0,0l0,0l0,0l0,0l0,0l0,0l0,0l0,0l0,0l0,0l0,0l0,0l0,0l0,0
		l0,0l0,0l0,0l0,0l0,0l0,0l0,0l0,0l0,0l0,0l0,0v0l-0.1,0l-0.1,0l0,0l0,0l0,0l0,0l0,0l0,0l0,0l0,0l0,0l0,0l0,0l0,0l0,0l0,0l0,0l0,0
		l0,0l0,0l0,0l0,0l0,0l0,0l0,0l0,0l0,0l0,0l0,0l0,0l0,0l0,0l0,0l0,0l0,0l0,0l0,0l0,0l0,0l0,0l0,0l0,0l0,0l0,0l0,0l0,0l0,0l0,0l0,0
		l0,0l0,0l0,0l0,0l0,0l0,0l0,0l0,0l0,0l0,0l0,0l0,0l0,0l0,0l0,0l0,0l0,0l0,0l0,0l0,0l0,0l0,0l0,0l0,0l0,0l0,0l0,0l0,0l0,0l0,0l0,0
		l0,0l0,0l0,0l0,0l0,0l0,0l0,0l0,0l0,0l0,0l0,0l0,0l0,0l0,0l0,0l0,0l0,0l0,0l0,0l0,0l0,0l0,0l0,0l0,0l0,0l0,0l0,0l0,0l0,0l0,0l0,0
		l0,0l0,0l0,0l0,0l0,0l0,0l0,0l0,0l0,0l0,0l0,0l0,0l0,0l0,0l0,0l0,0l0,0l0,0l0,0l0,0l0,0l0,0l0,0l0,0l0,0l0,0l0,0l0,0l0,0l0,0l0,0
		l0,0l0,0l0,0l0,0h0l0,0l0,0l0,0l-0.1,0c-0.1,0-0.2,0-0.3-0.1l-0.1,0l0,0l0,0l0,0l0,0l0,0l0,0l0,0l0,0l0,0l0,0l0,0l0,0l0,0l0,0l0,0
		l0,0l0,0l0,0l0,0l0,0l0,0l0,0l0,0l0,0l0,0l0,0l0,0l0,0l0,0l0,0l0,0l0,0l0,0l0,0l0,0l0,0l0,0l0,0l0,0l0,0l0,0l0,0l0,0l0,0l0,0l0,0
		l0,0l0,0l0,0l0,0l0,0l0,0l0,0l0,0l0,0l0,0l0,0l0,0l0,0l0,0l0,0l0,0h0l0,0l0,0l0,0l0,0l0,0l0,0l0,0l0,0l0,0l0,0l0,0h0l0,0l0,0l0,0
		l0,0l-0.1,0c-0.1,0-0.2,0-0.2,0l0,0l-0.1,0l-0.1,0l0,0l0,0l0,0l0,0l0,0l0,0l0,0l0,0l0,0l0,0l0,0l0,0l0,0h0l0,0l0,0l0,0l0,0l0,0l0,0
		l0,0l0,0l0,0l0,0l0,0l0,0l0,0l0,0l0,0l0,0l0,0l-0.1,0c-0.1,0-0.1,0-0.2,0l0,0v0l0,0l-0.1,0l0,0c0,0-0.1,0-0.1,0
		c-0.1,0-0.3,0.1-0.4,0.1l0,0c0,0-0.1,0-0.1,0.1c-0.2,0.1-0.4,0.2-0.5,0.3l1.2-0.8l0,0l0,0l0,0l0,0l0,0l0,0l0,0l0,0l0,0l0,0l0,0l0,0
		l0,0l0,0l0,0l0,0l0,0l0,0l0,0l0,0l0,0l0,0l0,0l0,0l0,0l0,0l0,0l0,0l0,0l0,0l0,0l0,0l0,0l0,0l0,0l0,0l0,0l0,0l0,0l0,0l0,0l0,0l0,0
		l0,0l0.1-0.1l0,0l0.1,0l0,0l0,0l0,0l0,0l0,0l0,0l0,0l0,0l0,0l0,0l0,0l0,0l0,0l0,0l0,0l0,0l0,0l0,0l0,0l0,0l0,0l0,0l0,0l0,0
		c0.1,0,0.2-0.1,0.3-0.1l0,0l0.1,0l0,0l0,0l0,0l0,0l0,0l0,0l0,0l0,0l0,0l0,0l0,0l0,0l0,0l0,0l0,0l0,0l0,0l0,0l0,0l0,0l0,0l0,0v0l0,0
		l0,0l0,0l0,0l0,0l0,0l0,0l0,0l0,0l0,0l0,0l0,0l0,0l0,0l0,0l0,0l0,0l0,0l0,0l0,0l0,0l0,0l0,0l0,0h0l0,0l0,0l0,0l0,0l0,0l0,0l0,0l0,0
		l0,0l0,0l0,0l0,0l0,0l0,0l0,0l0,0l0,0l0,0l0,0l0,0l0,0l0,0l0,0l0,0l0,0l0,0l0,0l0,0l0,0l0,0l0,0l0,0l0,0l0,0l0,0l0,0l0,0l0,0l0,0
		l0,0l0,0h0l0,0l0,0l0,0l0,0l0,0l0,0l0,0l0,0l0,0l0,0l0,0l0,0l0,0l0,0l0,0l0,0l0,0h0l0,0l0,0l0,0l0,0l0,0l0,0l0,0l0,0l0,0l0,0l0,0
		l0,0l0,0h0l0,0l0,0l0,0l0,0l0,0l0,0h0l0,0h0l0,0h0l0,0h0h0l0,0h0l0,0l0,0h0l0,0l0,0h0l0,0l0,0h0h0l0,0h0h0h0l0,0h0l0,0h0h0h0h0l0,0
		h0h0h0l0,0l0,0l0,0h0h0l0,0l0,0l0,0l0,0c0.1,0,0.2,0,0.3,0l0,0l0,0l0,0l0,0l0.1,0l0,0l0,0l0,0l0,0l0,0l0,0l0,0l0,0l0,0l0,0l0,0l0,0
		l0,0l0,0l0,0l0,0l0,0l0,0l0,0l0,0l0,0l0,0l0,0l0,0l0,0l0,0l0,0l0,0l0,0l0,0l0,0l0,0l0,0l0,0l0,0l0,0l0,0l0,0l0,0l0,0l0,0l0,0l0,0h0
		l0,0l0,0l0,0l0,0l0,0l0,0l0,0l0,0l0,0l0,0l0,0l0,0l0,0l0,0l0,0l0,0l0,0l0,0l0,0l0,0l0,0l0,0l0,0l0,0l0,0l0,0l0,0l0,0l0,0l0,0l0,0
		l0,0l0,0l0,0l0,0l0,0l0,0l0,0l0,0l0,0l0,0l0,0l0,0l0,0l0,0l0,0l0,0l0,0l0,0l0,0l0,0l0,0l0,0l0,0l0,0l0.1,0l0,0l0,0l0.1,0l0,0l0,0
		l0,0l0,0l0,0l0,0l0,0l0,0l0,0l0,0l0,0l0,0l0,0l0,0l0,0l0,0l0,0l0,0l0,0l0,0l0,0l0,0l0,0l0,0l0,0l0,0l0,0l0,0l0,0l0,0l0,0l0,0l0,0h0
		l0,0l0,0l0,0l0,0l0,0l0,0l0,0l0,0l0,0l0,0l0,0l0,0l0,0l0,0l0,0l0,0l0,0l0,0l0,0l0,0l0,0l0,0l0,0l0,0l0,0l0,0l0,0l0,0l0,0l0,0l0,0
		l0,0l0,0l0,0l0,0l0,0l0,0l0,0l0,0l0,0l0,0l0,0l0,0l0,0l0,0l0,0l0,0l0,0l0,0l0,0l0,0l0.1,0l0,0l0,0l0,0l0,0l0,0l0,0l0,0l0,0l0,0l0,0
		l0,0l0,0l0,0l0,0l0,0l0,0l0,0l0,0l0,0l0,0l0,0l0,0l0,0l0,0l0,0l0,0l0,0l0,0l0,0l0,0l0,0l0,0l0,0l0,0l0,0l0,0l0,0l0,0l0,0l0,0l0,0
		l0,0l0,0l0,0l0,0l0,0l0,0l0,0l0,0l0,0l0,0l0,0l0,0l0,0l0,0l0,0l0,0l0,0l0,0l0,0l0,0l0,0l0,0l0,0l0,0l0,0l0,0l0,0l0,0l0,0l0,0l0,0
		l0,0l0,0l0,0l0,0l0,0l0,0l0,0l0,0l0,0l0,0l0,0l0,0l0,0l0,0l0,0l0,0l0,0l0,0l0,0l0,0l0,0l0,0l0,0l0,0l0,0l0,0l0,0l0,0l0,0l0,0l0,0
		l0,0l0,0l0,0l0,0l0,0l0,0l0,0l0,0l0,0l0,0l0,0l0,0l0,0l0,0l0,0l0,0l0,0l0,0l0,0l0,0l0,0l0,0l0,0l0,0l0,0l0,0l0,0l0,0l0,0l0,0l0,0
		l0,0l0,0l0,0l0,0l0,0l0,0l0,0l0,0l0,0l0,0l0,0l0,0l0,0l0,0l0,0l0,0l0,0l0,0l0,0l0,0l0,0l0,0l0,0l0,0l0,0l0,0l0,0l0,0l0,0l0,0l0,0
		l0,0l0,0l0,0l0,0l0,0l0,0l0,0l0,0l0,0l0,0l0,0l0,0l0,0l0,0l0,0l0,0l0,0l0,0l0,0l0,0l0,0l0,0l0,0l0,0l0,0l0,0l0,0l0,0l0,0l0,0l0,0
		l0,0l0,0l0,0l0,0l0,0l0,0l0,0l0,0l0,0l0,0l0,0l0,0l0,0l0,0l0,0l0,0l0,0l0,0l0,0l0,0l0,0l0,0l0,0l0,0l0,0L250.3,570.8z M251.7,571.6
		l78.1,43.3l-1.2,0.8l-78.1-43.3l0,0l0,0l0,0l0,0l0,0l0,0l0,0l0,0l0,0l0,0l0,0l0,0l0,0l0,0l0,0l0,0l0,0l0,0l0,0l0,0l0,0l0,0l0,0l0,0
		l0,0h0l0,0l0,0l0,0l0,0l0,0l0,0l0,0l0,0l0,0l0,0l0,0l0,0l0,0l0,0l0,0l0,0l0,0l0,0l0,0l-0.1-0.1l0,0l0,0l0,0l0,0l0,0l0,0l0,0l0,0
		l0,0l0,0l0,0l0,0l0,0l0,0l0,0l0,0l0,0l0,0h0l0,0l0,0l0,0l0,0l0,0l0,0l0,0l0,0l0,0l0,0l0,0l0,0l0,0l0,0l0,0l0,0l0,0l0,0l0,0l0,0l0,0
		l0,0l0,0l0,0l0,0l0,0l0,0l0,0l0,0l0,0l0,0l0,0l0,0l0,0l0,0l0,0l0,0l0,0l0,0l0,0l0,0l0,0l0,0l0,0l0,0l0,0l0,0l0,0l0,0l0,0l0,0l0,0
		l0,0l0,0l0,0l0,0l0,0l0,0l0,0l0,0l0,0l0,0l0,0l0,0l0,0l0,0l0,0l0,0l0,0l0,0l0,0l0,0l0,0l0,0l0,0l0,0l0,0l0,0l0,0l0,0l0,0l0,0l0,0
		l0,0l0,0l0,0l0,0l0,0l0,0l0,0l0,0l0,0l0,0l0,0v0l0,0l0,0l0,0l0,0l0,0l0,0l0,0l0,0l0,0l0,0l0,0l0,0l0,0l0,0l0,0l0,0l0,0l0,0l0,0l0,0
		l0,0l0,0l0,0l0,0l0,0l0,0l0,0l0,0l0,0l0,0l0,0l0,0l0,0l0,0l0,0l0,0l0,0l0,0l0,0l0,0l0,0l0,0l0,0l0,0l-0.1,0h0l0.5-0.3l0.8-0.5
		l0.1,0l0.1,0.1l0,0l0,0l0,0l0,0l0,0l0,0l0,0l0,0l0,0l0,0l0,0l0,0l0,0l0,0l0,0l0,0l0,0l0,0l0,0l0,0l0,0l0,0l0,0l0,0l0,0l0,0l0,0l0,0
		l0,0l0,0l0,0l0,0l0,0l0,0l0,0l0,0l0,0l0,0l0,0l0,0h0l0,0l0,0l0,0l0,0l0,0l0,0l0,0l0,0l0,0l0,0l0,0l0,0l0,0l0,0l0,0l0,0l0,0l0,0l0,0
		l0,0l0,0l0,0l0,0l0,0l0,0l0,0l0,0l0,0l0,0l0,0l0,0l0,0l0,0l0,0l0,0l0,0l0,0l0,0l0,0l0,0l0,0l0,0l0,0l0,0l0,0l0,0l0,0l0,0l0,0l0,0
		l0,0l0,0h0l0,0l0,0l0,0l0,0l0,0l0,0l0,0l0,0l0,0l0,0h0l0,0l0,0l0,0l0,0l0,0l0,0l0,0l0,0l0,0l0,0l0,0l0,0l0,0l0,0l0,0l0,0l0,0l0,0
		l0,0l0,0l0,0l0,0l0,0l0,0l0,0l0,0l0,0l0,0l0,0l0,0l0,0l0,0l0,0l0,0l0,0l0,0l0,0l0,0l0,0l0,0l0,0l0,0l0,0l0,0l0,0l0,0l0,0h0l0,0l0,0
		l0,0l0,0l0,0l0,0l0,0l0,0l0,0l0,0l0,0l0,0l0,0l0,0l0,0l0,0l0,0l0,0l0,0l0,0l0,0l0,0l0,0l0,0l0,0l0,0l0,0l0,0l0,0l0,0L251.7,571.6
		L251.7,571.6L251.7,571.6L251.7,571.6L251.7,571.6L251.7,571.6L251.7,571.6L251.7,571.6L251.7,571.6L251.7,571.6z"/>
	<path id="XMLID_54_" fill-rule="evenodd" clip-rule="evenodd" fill="#414142" d="M249.3,571.7c0.4,0.2,0.7,0.4,1.1,0.7l78.1,43.3
		L329,626l-77.6-46.8c-0.2-0.1-0.4-0.3-0.6-0.4c-1.7-0.9-3,0.1-2.7,2.1l1.4,9.9c0.3,2.5-1.2,3.7-3.4,2.6c-2-1-3.7-3.6-3.8-5.8
		l-0.5-11.1C241.6,571.6,245,569.5,249.3,571.7"/>
	<path id="XMLID_53_" fill-rule="evenodd" clip-rule="evenodd" fill="#414142" d="M267.3,689.4l0.1,0.1l0,0l0.1,0.1l0.1,0.1l0.1,0.1
		l0.2,0.2l0,0l0.1,0.1l0,0l0.1,0.1l0.1,0.2l0.1,0.1l0.1,0.2l0.1,0.1l0.1,0.2l0.1,0.1l0.1,0.2l0,0l0,0l0,0l0.2,0.2l0.1,0.1l0.1,0.2
		l0.1,0.1l0.1,0.2l0.1,0.1l0.2,0.2l0,0l0,0l0,0l0.2,0.2l0,0l0.2,0.2l0,0l0,0l0.2,0.2l0.1,0.1l0.2,0.2l0,0l0.2,0.2l0.1,0.1l0.2,0.2
		l0,0l0.2,0.2l0,0l0,0l0,0l0.2,0.2l0.1,0c0.1,0.1,0.2,0.1,0.2,0.2l0,0l0,0c0.1,0.1,0.2,0.1,0.3,0.2l0,0c0.1,0.1,0.2,0.1,0.3,0.2l0,0
		c0.1,0.1,0.2,0.1,0.2,0.1l0,0l0,0c0.1,0.1,0.2,0.1,0.3,0.1l0,0c0.1,0.1,0.2,0.1,0.3,0.1l2.5,1.3c-1.3-0.7-2.5-1.7-3.6-2.8l0,0
		c-0.2-0.2-0.3-0.3-0.5-0.5l0,0l-0.2-0.2l0,0l-0.2-0.2l0,0l-0.2-0.2l0,0l0,0c-0.1-0.2-0.3-0.3-0.4-0.5l0,0l0,0l-0.2-0.2l0,0l0,0
		l-0.2-0.2l0,0l0,0l0,0l-0.1-0.2l0-0.1l0-0.1l-0.2-0.2l0,0l0,0l-0.1-0.2l0,0l0,0l-0.1-0.2l0,0l0,0l0-0.1l-0.1-0.2l0,0l0,0l0-0.1
		l-0.1-0.2l0,0l0,0l0-0.1l0-0.1l-0.1-0.1l0-0.1l0,0l0,0l0-0.1l-0.1-0.1l0-0.1l0,0l0,0l0-0.1l0-0.1l0-0.1l0-0.1l0,0l-0.1-0.1l0-0.1
		l0-0.1l0-0.1l0-0.1l0,0l0,0l0-0.1l0-0.1l0-0.1l0-0.1l0,0l0,0l0-0.1l-0.1-0.1l0-0.1l-0.1-0.1l0-0.1l0-0.1l0-0.1l0-0.1l0-0.1l0-0.1
		l0-0.1l0-0.1l0-0.1l0,0l0-0.1l0-0.1l0-0.1l0-0.1l0-0.1l-0.1-0.1l0-0.1l0-0.1l0-0.1l0,0l0,0l0-0.1l0-0.1l0-0.1l0-0.1l0-0.1l0,0
		l0-0.1l0-0.1l0-0.1l0-0.1l0-0.1l0,0l0,0l0-0.1l0-0.1l0-0.1l0-0.1l0,0l0,0l0-0.1l0-0.1l0-0.1l0-0.1l0,0l0,0l0-0.1l0-0.1l0-0.1l0,0
		l0,0l-0.1-0.2l0-0.1l0,0l0,0l0-0.1l0,0l0,0l0,0l0,0l0,0l0,0l0,0l0,0l0,0l0,0l0,0l0,0l0,0l0,0l0,0l0,0l0,0l0,0l0,0l0,0l0,0l0,0l0,0
		l0,0l0,0l0-0.1l0,0l0,0l0-0.1l0-0.1l0-0.1l0,0l0,0l0-0.1l0-0.1l0-0.1l0-0.1l0,0l0,0l0-0.1l0-0.1l0,0l0,0l0,0l0,0l0,0l0,0l0-0.1l0,0
		l0,0l0,0l0,0l0,0l0,0l0,0l0,0l0,0l0,0l0,0l0,0l0,0l-0.7-1.8l0,0l0,0l0,0l0,0l0,0l0,0l0,0l0-0.1l0,0l0-0.1l0,0l0,0l0,0l0,0l0,0l0,0
		l0,0l0,0l0,0l0,0l0,0l0,0l0,0l0,0l0,0l0,0l0,0l0,0l0,0l0,0l0,0l0,0l0,0l0,0l0,0l0,0l0,0l0,0l0,0l0,0l0,0l0,0l0,0l0,0l0,0l0,0l0,0
		l0,0l0,0l0,0l0,0l0,0l0,0l0,0l0,0l0,0l0,0l0,0l0,0l0,0l0,0l0,0l0,0l0,0l0,0l0,0l0,0l0,0l0,0l0,0l0,0l0,0l0,0l0,0l0,0l0,0l0,0l0,0
		l0,0l0,0l0,0l0,0l0,0l0,0l0,0l0,0l0,0l0,0l0,0l0,0l0,0l0,0h0l0,0l0,0l0,0l-2.6-1.4c0,0.1,0,0.1,0.1,0.2l0,0l0,0l0,0l0,0l0,0l0,0
		l0,0l0,0l0,0l0.1,0.2l0,0.1l0,0c0.1,0.2,0.1,0.3,0.2,0.5l0,0l0,0.1l0,0l0.1,0.2l0,0l0,0.1l0,0l0,0l0,0l0,0l0,0l0,0l0,0l0,0l0,0l0,0
		l0,0l0,0l0,0l0,0l0,0l0,0l0,0l0,0l0,0l0,0l0,0l0,0l0,0l0.1,0.1l0,0.1l0,0.1l0,0l0,0l0,0.1l0,0.1l0,0.1l0,0.1l0,0l0,0l0,0.1l0,0.1
		l0.7,1.8l0,0.1l0,0.1l0,0l0,0l0,0l0,0l0,0l0,0l0,0l0,0l0,0l0,0l0.1,0.2l0,0l0,0l0,0l0,0l0,0l0,0l0,0l0,0l0,0l0,0l0,0l0,0l0,0l0,0
		l0,0.1l0,0.1l0,0.1l0,0.1l0,0l0,0l0,0.1l0,0.1l0,0.1l0,0.1l0,0l0,0l0,0.1l0,0.1l0,0.1l0,0.1l0,0l0,0l0,0.1l0,0.1l0,0.1l0,0.1
		l0.1,0.1l0,0.1l0,0.1l0,0.1l0.1,0.1l0,0.1l0,0.1l0,0.1l0.1,0.1l0,0.1l0,0.1l0,0.1l0.1,0.2l0,0.1l0.1,0.1l2.6,1.4l-2.6-1.4l0,0.1
		l0,0.1l0,0.1l0,0.1l0,0.1l0,0.1l0,0.1l0,0.1l0,0.1l0,0.1l0,0l0,0l0,0.1l0,0.1l0,0.1l0,0.1l0,0l0,0l0,0.1l0,0.1l0,0.1l0,0.1l0,0.1
		l0,0.1l0,0.1l0,0.1l0,0.1l0,0.1l0,0l0,0l0,0.1l0,0.1l0,0.1l0,0.1l0,0.1l0,0.1l0,0.1l0,0.1l0,0.1l0.1,0.1l0,0l0,0.1l0,0.1l0,0.1
		l0.1,0.1l0,0.1l0,0.1l0,0.1l0,0.1l0.1,0.1l0,0.1l0,0.1l0,0.1l0.1,0.1l0,0.1l0,0.1l0,0.1l0.1,0.1l0,0l0,0.1l0,0.1L267.3,689.4z"/>
	<path fill-rule="evenodd" clip-rule="evenodd" fill="#414142" d="M184.4,724.7l-2.6-1.4l0,0l0,0l0,0l0,0l0,0l0,0l0,0l0,0l0,0l0,0
		l0,0l0,0l0,0l0,0l0,0l0,0l0,0l0,0l0,0l0,0l0,0l0,0l0,0l0,0l0.1,0.1l0,0l0,0l0,0l0.1,0l0,0l0.1,0l0,0l0,0l0,0
		c0.1,0.1,0.1,0.1,0.2,0.2l0,0l0,0l0,0c0.4,0.3,0.8,0.7,1.1,1.1l0,0c0,0.1,0.1,0.1,0.1,0.2l0,0l0,0.1l0,0l0,0l0,0.1l0,0l0,0.1l0,0
		l0.1,0.1l0,0l2.6,1.4l-2.6-1.4l0,0l0,0l0,0l0,0l0,0l0,0l0,0l0,0l0,0l0,0l0,0l0,0l0,0l0,0l0,0l0,0l0,0l0,0l0,0l0,0l0,0l0,0l0,0l0,0
		l0,0l0,0l0,0l0,0l0,0l0,0l0,0l0,0l0,0l0,0l0,0l0,0l0,0l0,0l0,0l0,0l0,0l0,0l0.1,0.1l0,0l0,0.1l0,0l0,0l0,0l0,0l0,0l0,0l0,0l0,0l0,0
		l0,0l0,0l0,0l0,0l0,0l0,0l0,0l0,0l0,0l0,0l0,0l0,0l0,0l0,0l0,0l0,0l0,0l0,0l0,0l0,0l0,0l0,0l0,0l0,0l0,0l0,0l0,0.1l0,0l0,0l0,0l0,0
		l0,0l0,0l0,0l0,0l0,0l0,0l0,0l0,0l0,0l0,0l0,0l0,0l0,0l0,0l0,0l0,0l0,0l0,0l0,0l0,0l0,0l0,0l0,0l0,0.1l0,0l0,0.1l0,0
		c0,0.1,0.1,0.2,0.1,0.3l0,0c0,0.1,0.1,0.2,0.1,0.2l0,0l0,0l0,0l0,0l0,0l0,0.1l0,0l0,0.1l2.6,1.4l-2.6-1.4l0,0.1l0,0l0,0l0,0l0,0
		l0,0l0,0l0,0l0,0l0,0l0,0l0,0l0,0l0,0l0,0l0,0l0,0l0,0l0,0l0,0l0,0l0,0l0,0l0,0.1l0,0l0,0l0,0l0,0l0,0c0.2,0.5,0.4,1.1,0.6,1.8
		l2.6,1.4l-2.6-1.4c0.3,0.7,0.6,1.6,0.9,2.5l0,0.1l0,0.1l0,0.1l0,0.1l0,0.1l0,0.1l0,0.1l0.1,0.1l0,0.1l0,0.1l0.1,0.1l0,0l0,0.1
		l0,0.1l0,0.1l0.1,0.3l0,0.1l0,0.1l2.6,1.4l-2.6-1.4l0,0.1l0,0l0,0.1l0,0l0,0l0,0.1l0,0.1l0,0.1l0,0.1l0,0.1l0,0.1l0,0.1l0,0l0,0
		l0,0.1l0,0.1l0,0.1l0,0.1l0,0.1l0,0l0,0.1l0,0.1l0,0.1l0,0.1l0,0.1l0,0.1l0,0l0,0l0,0.1l0,0.1l0,0.1l0,0.1l0,0.1l0,0.1l0,0.1l0,0.1
		l0,0.1l0,0.1l0,0.1l0,0.1l0,0.1l0,0.1l0,0.1l0,0.1l0,0.1l0.1,0.1l0,0.1l0,0.1l0,0.1l0,0.1l0,0.1l0,0l0,0l0,0.1l0.1,0.3l0,0l0.1,0.2
		l0,0.1l0,0l0.2,0.3l0,0l0,0l0,0l0.2,0.3l0,0l0.2,0.3l0,0.1l0.1,0.2l0,0l0,0l0,0l0.1,0.2l0,0l0,0l0,0l0.1,0.2l0,0l0,0l0,0
		c0.2,0.3,0.4,0.6,0.6,0.8c0.3,0.4,0.6,0.8,0.9,1.2l0,0c0.4,0.5,0.8,0.9,1.2,1.3l0,0c0.2,0.2,0.5,0.5,0.8,0.7l0,0
		c0.5,0.4,1.1,0.8,1.6,1.1l2.6,1.4c-0.2-0.1-0.4-0.2-0.6-0.3l0,0c-0.1-0.1-0.2-0.1-0.3-0.2l0,0c-0.1-0.1-0.2-0.1-0.3-0.2l0,0l0,0
		c-1.3-0.9-2.4-2.2-3.4-3.6c-0.6-0.9-1.2-1.9-1.7-2.9c-0.3-0.6-0.6-1.3-0.9-1.9l0,0l-0.1-0.3l0,0l0,0l-0.1-0.3l0-0.1l0,0
		c-0.1-0.2-0.2-0.4-0.3-0.6l0,0l0,0l-0.1-0.3l0,0c-0.1-0.2-0.2-0.4-0.3-0.6l0,0c-0.1-0.3-0.2-0.6-0.3-0.9l0,0
		c-0.1-0.2-0.1-0.4-0.2-0.6l0,0l0-0.1l0-0.1l0-0.1l0-0.1l0,0l0-0.1l-0.1-0.2l0,0l0,0l0-0.1l0-0.1l0-0.1l0-0.1l0,0l0,0l0-0.1l0-0.1
		l0-0.1l0-0.1l0-0.1l0-0.1l0-0.1l0-0.1l0-0.1l0,0l0,0l0-0.1h0l0-0.1l0-0.1l-0.1-0.4l0-0.1l-0.1-0.1l0,0l0,0l0,0l0,0l0,0l0,0l0,0
		l0-0.1l0,0l0,0l0,0l0,0l0,0l0,0l0,0l0,0l0,0l0,0l0-0.1l0,0l0,0l0,0l0,0l0,0l0,0l0,0l0,0l0,0l0,0l0,0l0,0l0,0l0,0l0,0l0,0l0,0l0,0
		l0,0l0-0.1l0,0l0,0l0,0l0,0l0,0l0,0l0,0l0,0l0,0l0,0l0,0l0,0l0,0l0,0l0,0l0-0.1l0-0.1l0,0l0,0l0,0l0,0l0,0l0,0l0,0l0,0l0,0l0,0l0,0
		l0,0l0-0.1l0,0c-0.1-0.1-0.1-0.3-0.2-0.4c-0.1-0.2-0.2-0.5-0.3-0.7l0,0l0,0l0-0.1l0,0l0,0l0,0l0,0l0,0l0,0l0,0l0,0l0,0l0,0l0,0l0,0
		l0,0l0,0l0,0l0,0l0,0l0,0l0,0l0,0l0,0l0,0l0,0l0,0l0,0l0,0l0,0l0,0l0,0l0,0l0,0l0,0l0,0l0,0l0,0l0,0l0,0l0,0l0,0l0,0l0,0l0,0l0,0
		l0,0l0,0l0,0l0,0l0,0l0,0l0,0l0,0l0,0l0,0l0,0l0,0l0,0l0,0l0,0l0,0l0,0l0,0l0,0l0,0l0,0l-0.1-0.1c-0.1-0.1-0.1-0.2-0.2-0.3l0,0l0,0
		l0,0l-0.1-0.1l0,0l0-0.1l0-0.1l0,0l0,0l0,0l0,0l0,0l0,0l0,0l0,0l0,0l0,0l0,0l0,0l0,0l0,0l0,0l0,0l0,0l0,0l0,0l0,0l0,0l0,0l0,0l0,0
		l0,0l0,0l0,0l0,0l0,0l0,0l0,0l0,0l0,0l0,0l0,0l0,0l0,0l0,0l0,0l0,0l0,0l0,0l0,0l0,0l0,0l0,0l0,0l0,0l0,0l0,0l0,0l0,0l0,0l0,0l0,0
		l0,0l0,0l0,0l0,0l0,0l0,0l0,0l0,0l0,0l0,0l0,0l0,0l0,0c-0.1-0.1-0.2-0.1-0.3-0.2l0,0l0,0L184.4,724.7L184.4,724.7L184.4,724.7
		L184.4,724.7z M199.7,743.3l-1-0.5l0,0l0,0l0,0l0,0l0,0l0,0l-0.1-0.1l-0.1,0l0,0l0,0l0,0l0,0l0,0l0,0l0,0l-0.1-0.1l0,0l0,0
		l-0.1-0.1l0,0l0,0l-0.1-0.1l0,0l0,0l0,0L198,742l0,0l0,0l-0.1-0.1l0,0l0,0l0,0l-0.1-0.1l0,0l0,0l-0.1-0.1l0,0l0,0l0,0l0,0l0,0l0,0
		l0,0l0,0l0,0l0,0l0,0l0,0l0,0l0,0l0,0l0,0l0,0l0,0l0,0l0,0l0,0l0,0l0,0l0,0l0,0l0,0l0,0l0,0l0,0l0,0l0,0l0,0l0,0l0,0l0,0l0,0l0,0
		l0,0l0,0l0,0l0,0l0,0l0,0l0,0l0,0l0,0l0,0l0,0l0,0l0,0l0,0l0,0l0,0l0,0l0,0l0,0l0,0h0l0,0l0,0l0,0l0,0l0,0l0,0l0,0l-0.1-0.1l0,0
		l0,0l0,0l-0.1-0.2l0,0l-0.1-0.3c-0.2-0.3-0.3-0.7-0.5-1l0,0l-0.1-0.2l0,0l0,0l-0.1-0.3l0,0l0-0.1l0,0l0,0l0,0l0,0l0,0l0,0l0,0l0,0
		l0,0l0,0l0,0l0,0l0,0l0,0l0-0.1l0,0l0,0l0,0l0,0l0,0l0,0l0,0l0,0l0,0l0,0l0,0l0,0l0,0l0,0l0,0l0,0l0,0l0,0l0-0.1l0,0l0,0l0,0l0,0
		l0,0l0,0l0,0l0,0l0,0l0,0l0,0l0,0l0,0l0,0l0,0l0,0l0,0l0,0l0,0l0,0l0,0l0,0l0,0l0,0l0,0l0,0l0,0l0,0l0,0l0,0l0,0l0,0l0,0l0,0l0,0
		l0,0l0,0l0,0l0,0l0,0l0,0l0,0l0,0l0,0l0,0l0,0l0,0l0,0l0,0l0,0l0,0l0,0l0,0l0,0l0,0l0,0l0,0l0,0l0,0l0,0l0,0l0,0l0,0l0,0l0,0l0-0.1
		l0,0l0,0l0,0l0,0c-0.2-0.6-0.4-1.2-0.6-1.8c-0.1-0.2-0.1-0.5-0.2-0.7l0,0l0,0l0,0l0,0l0,0l0-0.1l0,0l0,0l0,0l0,0l0,0l0,0l0,0l0,0
		l0,0l0,0l0,0l0,0l0,0l0,0l0,0l0,0l0,0l0,0l0,0l0,0l0,0l0,0l0,0v0l0,0l0,0l0,0l0-0.2l-0.1-0.6l0,0l-0.1-0.5l0-0.1l0,0l0-0.1l0,0l0,0
		l0-0.1l0,0l0-0.1l0-0.1l0,0l0,0l0-0.3l0,0l-0.1-0.3l0,0l0-0.1l0,0l-0.1-0.4l0,0l-0.1-0.4c-0.1-0.4-0.1-0.8-0.2-1.1l0,0l0,0l0,0l0,0
		l0,0l0,0l0,0l0,0l0,0l0-0.1l0,0l0-0.2l0,0l0-0.1l0,0l0,0l0,0l0,0l0,0l0,0l0,0l0,0l0,0l0,0l0,0l0,0l0,0l0,0l0,0l0,0l0,0l0,0l0,0l0,0
		l0,0l0,0l0,0l0,0l0,0l0,0l0,0l0,0l0,0l0,0l0,0l0,0l0,0l0,0l0,0l0,0l0,0l0,0l0,0l0,0l0,0l0,0l0,0l0,0l0,0l0,0l0,0l0,0l0,0l0-0.1l0,0
		l0,0l0,0l0,0l0,0l0,0l0,0l0,0l0,0l0-0.1l0,0l0,0l0,0l0,0l0,0l0,0l0,0l0,0l0,0l0-0.1l0,0l0,0l0,0l0,0l0,0l0,0l0,0l0,0l0,0l0,0l0,0
		l0,0l0,0l0,0l0,0l0,0l0,0l0,0l0,0l0,0l0,0l0,0l0,0l0,0l0,0l0,0l0,0l-2.6-1.4l0,0.1l0,0l0,0l0,0l0,0l0,0l0,0l0,0.1l0,0l0,0l0,0l0,0
		l0,0l0,0.1l0,0l0,0.1l0,0l0,0l0,0.1l0,0l0,0l0,0.2l0,0l0,0.3h0c0,0.2,0,0.4,0.1,0.6l2.6,1.4l-2.6-1.4l0,0l0,0l0,0l0,0l0,0l0,0l0,0
		l0,0l0,0l0,0l0,0l0,0l0,0l0,0l0,0l0,0l0,0l0,0l0,0l0,0l0,0l0,0l0,0l0,0l0,0l0,0l0,0l0,0l0,0l0,0l0,0l0,0l0,0l0,0l0,0l0,0l0,0l0,0
		l0,0l0,0l0,0l0,0l0,0l0,0l0,0l0,0l0,0l0,0l0,0l0,0l0,0l0,0l0,0l0,0l0,0l0,0l0,0l0,0l0,0l0,0l0,0l0,0h0l0,0l0,0l0,0l0,0l0,0l0,0l0,0
		l0,0l0,0l0,0l0,0l0,0.2l2.6,1.4l-2.6-1.4c0.1,0.7,0.2,1.3,0.4,2l0,0l0,0l0,0.1l0,0.1l0,0l0,0l0,0.1l0,0.1l0,0l0,0l0,0.1l0,0.1l0,0
		l0,0l0,0.1l0,0.1l0,0l0,0.1l0,0.1l0,0l0,0l0,0.1l0,0.1l0,0l0,0l0,0.1l0,0.1l0,0l0,0l0,0.1l0,0.1l0,0.2c0.1,0.4,0.2,0.8,0.3,1.3l0,0
		l0,0l0,0l0,0.1l2.6,1.4l-2.6-1.4l0,0l0,0l0,0l0,0l0,0l0,0l0,0l0,0l0,0l0,0l0,0l0,0l0,0l0,0l0,0l0,0l0,0l0,0l0,0l0,0l0,0l0,0l0,0v0
		l0,0l0,0l0,0l0,0l0,0l0,0l0,0l0,0l0,0l0,0l0,0l0,0l0,0l0,0l0,0l0,0l0,0l0,0l0,0l0,0l0,0l0,0l0,0l0,0l0,0l0,0l0,0l0,0l0,0l0,0l0,0
		l0,0l0,0l0,0l0,0l0,0l0,0l0,0l0,0l0,0l0,0l0,0l0,0l0,0l0,0l0,0l0,0l0,0l0,0l0,0l0,0l0,0l0,0l0,0l0,0l0,0l0,0l0,0l0,0l0,0l0,0l0,0
		l0,0l0,0l0,0l0,0l0,0l0,0l0,0l0,0l0,0l0,0l0,0l0,0l0,0l0,0l0,0c0.2,0.5,0.4,1,0.6,1.6l2.6,1.4l-2.6-1.4l0,0l0,0l0,0.1l0,0l0,0l0,0
		l0,0l0.1,0.1l0,0l0,0l0.1,0.1l0,0l0,0l0.1,0.1l0,0l0,0l0,0l0,0l0,0l0,0l0,0l0,0l0,0l0,0l0,0l0,0l0,0l0,0l0,0l0,0l0,0l0,0l0,0l0,0
		l0,0l0,0l0,0l0,0l0,0l0,0l0,0l0,0l0,0l0,0l0,0l0,0l0,0l0.1,0.1l0,0l0,0l0.1,0.2l0,0l0,0l0.1,0.1l2.6,1.4l-2.6-1.4l0.1,0.3l0,0
		l0.1,0.2l0,0l0,0l0,0l0,0l0,0l0,0l0,0l0,0l0,0l0,0l0,0l0,0l0,0l0,0l0,0.1l0,0l0,0l0,0l0,0l0,0l0,0l0,0l0,0l0,0l0,0l0,0l0,0l0,0.1
		l0,0l0,0l0,0l0,0l0,0l0,0l0,0l0,0l0,0l0,0l0,0l0,0l0,0l0,0l0,0l0,0l0,0l0,0l0,0l0,0l0,0l0,0l0,0l0,0l0,0l2.6,1.4l-2.6-1.4l0,0l0,0
		l0.1,0.1l0,0l0,0l0,0l0,0l0.1,0.1l0,0l0.1,0.1l0,0l0,0l0,0l0,0l0,0l0,0l0,0l0,0l0,0l0,0l0.1,0.1l0,0l0,0l0.1,0.1l0,0l0,0l0,0l0,0
		l0,0l0,0l0,0l0.1,0.1l0,0l0,0l0,0l0,0l0,0l0,0l0,0l0,0l0,0l0,0l0,0l0,0l0,0l0.1,0l0,0l0,0l0,0l0,0l0,0l0,0l0.1,0l0,0l0,0l0,0l0.1,0
		l0,0l0,0l0,0l0.1,0l0,0l0,0l0,0l0.1,0l0,0l0.4,0.2l0,0l0,0l0,0l0,0l0,0l-0.1,0l0,0l0,0l0,0l0,0l0,0l0,0l-0.2-0.1l2.6,1.4l0.2,0.1
		l0,0l0,0C199.4,743.2,199.6,743.2,199.7,743.3z M200,743.4L200,743.4c0.3,0.1,0.5,0.1,0.8,0.2 M198.7,742.8l1,0.5l0.1,0l0,0
		 M200.9,743.5l-2.6-1.4l-0.1,0l0,0l0,0l0,0l0,0l-0.1,0"/>
	<path fill-rule="evenodd" clip-rule="evenodd" fill="#DFE7ED" d="M236.9,690.3l0.1,0l0,0L236.9,690.3L236.9,690.3z M235.6,690.5
		l-0.2,0l0,0L235.6,690.5L235.6,690.5z M238.7,690.6c0.1,0.1,0.2,0.1,0.3,0.2l0,0C238.9,690.7,238.8,690.6,238.7,690.6L238.7,690.6z
		 M233.5,691l-0.3,0.1l0,0L233.5,691L233.5,691z M239,690.8L239,690.8L239,690.8L239,690.8L239,690.8z M232.7,691.2
		c-0.1,0-0.2,0.1-0.3,0.1l0,0C232.5,691.3,232.6,691.3,232.7,691.2L232.7,691.2z M231.9,691.5C231.9,691.5,231.9,691.5,231.9,691.5
		C231.9,691.5,231.9,691.5,231.9,691.5L231.9,691.5z M240,691.4L240,691.4L240,691.4L240,691.4z M230.9,691.9
		C230.8,691.9,230.8,691.9,230.9,691.9C230.8,691.9,230.8,691.9,230.9,691.9L230.9,691.9z M240.2,691.5L240.2,691.5L240.2,691.5
		L240.2,691.5z M240.6,691.8L240.6,691.8L240.6,691.8L240.6,691.8z M229.7,692.3c-0.2,0.1-0.3,0.1-0.5,0.2l0,0
		C229.4,692.4,229.5,692.4,229.7,692.3L229.7,692.3z M240.8,692L240.8,692L240.8,692L240.8,692z M241.1,692.3L241.1,692.3
		L241.1,692.3L241.1,692.3L241.1,692.3z M241.6,693.2l0.1,0.1l0,0L241.6,693.2z M225,694.4c-0.1,0.1-0.3,0.1-0.4,0.2
		C224.7,694.5,224.9,694.5,225,694.4L225,694.4z M242.1,694.5L242.1,694.5L242.1,694.5L242.1,694.5z M242.3,695.3L242.3,695.3
		L242.3,695.3L242.3,695.3z M221.3,696.2c-0.2,0.1-0.4,0.2-0.5,0.3l0,0C220.9,696.4,221.1,696.3,221.3,696.2z M219.9,696.9
		c-0.3,0.2-0.6,0.3-0.9,0.5l0,0C219.3,697.3,219.6,697.1,219.9,696.9L219.9,696.9z M242.4,696.2L242.4,696.2L242.4,696.2
		L242.4,696.2z M218,697.9c-0.3,0.2-0.7,0.4-1,0.5l0,0C217.4,698.2,217.7,698.1,218,697.9L218,697.9z M215.6,699.2
		c-0.2,0.1-0.4,0.2-0.6,0.3l0,0C215.2,699.4,215.4,699.3,215.6,699.2L215.6,699.2z M203.2,743.6c0.4,0,0.7,0,1.1-0.1l0,0
		c0.4,0,0.9-0.1,1.3-0.2l0,0c0.5-0.1,1-0.2,1.5-0.3h0c0.5-0.1,1-0.3,1.6-0.4h0c0.6-0.2,1.1-0.3,1.7-0.6h0c0.6-0.2,1.2-0.4,1.8-0.7h0
		c0.6-0.3,1.3-0.5,1.9-0.8h0c0.6-0.3,1.3-0.6,2-0.9h0c0.7-0.3,1.3-0.7,2-1.1c0.7-0.4,1.3-0.8,2-1.2c0.5-0.3,1-0.6,1.6-1
		c0.1-0.1,0.3-0.2,0.4-0.3h0c0.6-0.4,1.3-0.9,1.9-1.3h0c0.6-0.4,1.2-0.9,1.8-1.3l0,0c0.6-0.4,1.2-0.9,1.7-1.4h0
		c0.6-0.4,1.1-0.9,1.6-1.4l0,0c0.5-0.5,1-0.9,1.5-1.4c0.5-0.5,1-0.9,1.4-1.4h0c0.5-0.5,0.9-1,1.4-1.4l0,0c0.5-0.5,0.9-1,1.4-1.5h0
		c0.5-0.6,0.9-1.1,1.4-1.7c0,0,0,0,0,0c0.1-0.2,1.3-1.8,3-5.5c0.4-1,0.9-2,1.4-3.3c0.4-1,0.8-2.1,1.2-3.3h0c0.4-1.1,0.7-2.2,1.1-3.4
		c0.3-1.2,0.7-2.4,1-3.7c0.2-0.9,0.5-1.9,0.7-2.8l0,0c0,0,0,0,0,0c0.1-0.2,0.1-0.5,0.2-0.7h0c0.2-0.8,0.3-1.5,0.5-2.2h0
		c0.1-0.6,0.2-1.2,0.3-1.8h0c0.1-0.5,0.2-1,0.2-1.5h0c0.1-0.4,0.1-0.8,0.2-1.2c0-0.4,0.1-0.7,0.1-1.1h0c0-0.3,0-0.6,0.1-0.9h0
		c0-0.3,0-0.6,0-0.8c0-0.3,0-0.5,0-0.7v0c0-0.2,0-0.5,0-0.7c-0.3-5.7-3-5.9-3.4-6.3h0c0,0,0,0,0,0l0,0c-0.1-0.1-0.4-0.4-1-0.5
		c0,0,0,0,0,0c0,0,0,0-0.1,0c0,0,0,0,0,0c-0.1,0-0.1,0-0.2,0c-0.3,0-0.5,0-0.9,0c-2.8,0.1-9.2,2.1-24.7,10.8h0
		c-0.2,0.1-0.4,0.2-0.6,0.4c-1.5,0.8-2.9,1.7-4.2,2.6c-10.1,6.5-16.5,13.3-18.3,17.3c-0.1,0.1-0.1,0.3-0.2,0.4
		c-0.8,1.9-1,4.4-0.8,7.2c0,0.1,0,0.2,0,0.4c0.2,2.7,0.7,5.7,1.3,8.8c0.9,3.9,3.1,9.3,5.1,11.6c0.2,0.3,0.5,0.5,0.7,0.6h0
		c0.2,0.1,0.4,0.2,0.6,0.3c0,0,0.1,0,0.1,0h0c0.4,0.1,0.8,0.2,1.3,0.3h0c0.4,0.1,0.8,0.1,1.1,0.1c0.4,0,0.8,0,1.2,0h0
		C203.1,743.6,203.1,743.6,203.2,743.6L203.2,743.6z"/>
	<path id="XMLID_23_" fill-rule="evenodd" clip-rule="evenodd" fill="#B1B3B3" d="M189,720.1L189,720.1L189,720.1L189,720.1
		L189,720.1L189,720.1l0,0.1l0,0l0,0l0,0l0,0l0,0l0,0l0,0l0,0l0,0l0,0l0,0l0,0l0,0l0,0l0,0l0,0l0,0l0,0l0,0l0,0l0,0l0,0l0,0l0,0l0,0
		l0,0l0,0l0,0l0,0.2l0,0c0,0.2,0,0.3,0,0.5l2.6,1.4l0,0l0,0l0,0l0,0l0,0l0,0l0,0l0,0l0,0l0,0l0,0l0,0l0,0l0,0l0,0l0,0l0,0l0,0l0,0
		l0,0l0,0l0,0l0,0l0,0l0,0l0,0l0,0l0,0l0,0l0,0l0,0l0,0l0,0l0,0l0,0l0,0l0,0l0-0.1l0,0l0,0l0,0l0,0l0,0l0,0l0,0l0,0l0,0l0,0l0,0
		l0-0.4l-2.4-1.2l-0.1-0.1L189,720.1L189,720.1z"/>
	<path id="XMLID_22_" fill-rule="evenodd" clip-rule="evenodd" fill="#B9BCBC" d="M191.5,719.5l-2.6-1.4l0,0.1l0,0l0,0
		c0,0.3,0,0.6,0,0.8l2.6,1.4c0-0.1,0-0.2,0-0.4l0,0l0-0.1l0,0l0,0l0,0l0,0l0,0l0,0l0,0l0,0l0,0l0,0l0,0l0,0l0,0l0,0l0,0l0,0l0,0l0,0
		l0,0l0,0l0,0l0,0l0,0l0,0l0,0L191.5,719.5L191.5,719.5L191.5,719.5L191.5,719.5L191.5,719.5L191.5,719.5L191.5,719.5L191.5,719.5z"
		/>
	<path id="XMLID_21_" fill-rule="evenodd" clip-rule="evenodd" fill="#B5B7B7" d="M191.5,720.4l-2.6-1.4l0,0.2l0,0l0,0l0,0.2l0,0
		c0,0.2,0,0.4,0,0.5l0,0.1l2.6,1.4l0,0l0,0C191.6,721,191.6,720.7,191.5,720.4"/>
	<polygon id="XMLID_20_" fill-rule="evenodd" clip-rule="evenodd" fill="#B1B3B3" points="191.6,721.5 189,720.1 189,720.1 
		191.6,721.5 	"/>
	<path fill-rule="evenodd" clip-rule="evenodd" fill="#1D281E" d="M182.5,712.1c-2.7,2.4-1.2,10.8-0.9,11.2c0.8,1.1,5.1,1,6.9,6.4
		c1.1,3.2,6.1,20.7,16,17.2c5.6-2,12.6-4.4,19.5-8.9c4.1-2.6,8.2-6,12.1-10.4c10.4-11.9,14.2-32,15-37.3c0.8-4.5,3.2-7.7,5.8-9.4
		c0.6-0.4,1.3-0.8,1.9-1.2c2.5-1.6,5.2-1.7,6.3,1.6c1.4,3.9,6.9,18,17.8,16.2c4-0.7,8.2-2.7,12.3-5.3c7-4.5,13.7-10.9,19.2-16.1
		c9.7-9.2,12.6-31.7,13.3-36.1c1.2-7.4,5.2-12.6,5.8-14.7c0.3-0.8,0.8-10.5-1.9-9.4c-0.8,0.3-1.9,1-3.2,1.8
		c-0.4,0.3-0.9,0.6-1.3,0.9c-0.5,0.3-0.9,0.6-1.4,0.9c-1.3,0.9-2.7,1.7-3.8,2.3c-6,3-11.8,6.4-17.5,10.1c-13,8.4-25,18-34.3,26.7
		c-3.2,2.9-6.5,6.5-11,9.3c-0.6,0.4-1.2,0.7-1.8,1.1c-0.6,0.4-1.2,0.8-1.8,1.2c-4.5,2.9-7.9,3.7-11.2,4.9
		c-9.6,3.5-21.7,9.4-34.7,17.8c-5.7,3.7-11.5,7.8-17.4,12.5c-1.1,0.9-2.5,1.8-3.8,2.7c-0.5,0.3-1,0.6-1.4,0.9
		c-0.5,0.3-0.9,0.6-1.3,0.9C184.4,710.7,183.2,711.4,182.5,712.1 M192.9,730.6c-0.7-3.3-1.2-6.4-1.4-9.3c-0.1-2.8,0.1-5.3,0.8-7.2
		c1.6-3.9,8.1-11,18.5-17.7c1.5-1,3.2-2,4.8-2.9c24.3-13.7,26.3-10.7,26.9-10.2c0.4,0.3,3.1,0.6,3.4,6.3c0.1,2.6-0.2,6.3-1.5,11.7
		c-3.8,15.7-8.2,21.7-8.4,22c-3.7,4.9-9,9.6-14.6,13.1c-8.4,5.4-17.4,8.5-22.2,6.7C197,742.3,194,735.4,192.9,730.6L192.9,730.6z
		 M272.5,683.2c-1.7-3.4-2.4-6.4-2.6-9c-0.3-5.7,2.2-9.2,2.5-10.1c0.5-1.2,2.1-6.5,26.2-24c1.7-1.2,3.3-2.3,4.8-3.3
		c10.4-6.7,17.2-8.1,19.1-6.5c0.9,0.8,1.3,2.9,1.5,5.7c0.2,2.8,0,6.4-0.3,10.3c-0.5,5.8-2.7,16-4.7,19.7c-4.3,7.6-13,16-21.5,21.4
		c-5.6,3.6-11,5.9-15,5.9C282.4,693.3,277.6,693.2,272.5,683.2L272.5,683.2z"/>
	<path id="XMLID_16_" fill-rule="evenodd" clip-rule="evenodd" fill="#DFE7ED" d="M283.2,693.3c0.3,0,0.5,0,0.8-0.1h0
		c0.3,0,0.6-0.1,1-0.1c0.3-0.1,0.7-0.1,1-0.2c0.4-0.1,0.7-0.2,1.1-0.3h0c0.4-0.1,0.8-0.3,1.2-0.4c0.4-0.2,0.9-0.3,1.3-0.5h0
		c0.5-0.2,0.9-0.4,1.4-0.6c0.5-0.2,1-0.5,1.6-0.7h0c0.6-0.3,1.1-0.6,1.7-0.9l0,0c0.6-0.3,1.2-0.7,1.8-1c0.5-0.3,1-0.6,1.5-0.9
		c0.1-0.1,0.3-0.2,0.4-0.3c0.7-0.4,1.4-0.9,2-1.4c0.7-0.5,1.4-1,2.1-1.5c0.7-0.5,1.4-1.1,2.1-1.7l0,0c0.7-0.6,1.4-1.2,2.1-1.8h0
		c0.7-0.6,1.4-1.2,2.1-1.9c0.7-0.6,1.4-1.3,2-2c0.7-0.7,1.3-1.4,1.9-2h0c0.7-0.7,1.3-1.4,1.9-2.1h0c0.7-0.8,1.3-1.6,1.9-2.4
		c1.1-1.4,2-2.8,2.8-4.2c0.2-0.3,0.3-0.6,0.5-0.9h0c0.1-0.3,0.3-0.6,0.4-1c0.1-0.4,0.3-0.8,0.4-1.2h0c0.2-0.5,0.3-1,0.5-1.5
		c0.1-0.2,0.6-1.9,0.5-1.9c0.9-3.4,1.6-6.9,2.1-10.3c0.1-0.6,0.2-1.2,0.2-1.8c0,0,0.1-1,0.1-1.1c0-0.1,0.1-1.1,0.1-1.1
		c0.1-1.2,0.2-2.4,0.2-3.5c0-0.8,0.1-1.7,0.1-2.5c0-0.6,0-1.2,0-1.8l0,0c0-0.5,0-0.9,0-1.4c0,0,0,0,0,0l0,0c0-0.3,0-0.7-0.1-1
		c0,0,0,0,0,0c0,0,0,0,0,0c0-0.2,0-0.3,0-0.5c0-0.2,0-0.3-0.1-0.5h0c0-0.2-0.1-0.5-0.1-0.7c0-0.2-0.1-0.4-0.1-0.6v0
		c0-0.1-0.1-0.3-0.1-0.4c0,0,0-0.1,0-0.1c0-0.1-0.1-0.3-0.1-0.4h0c0-0.1-0.1-0.3-0.1-0.4c0,0,0,0,0,0c0,0,0,0,0,0c0,0,0,0,0,0
		c0,0,0,0,0-0.1c0,0,0,0,0,0c0,0,0,0,0,0c0,0,0,0,0,0c0,0,0,0,0,0c0-0.1-0.1-0.1-0.1-0.2l0,0c-0.1-0.1-0.1-0.2-0.2-0.3l0,0
		c0-0.1-0.1-0.1-0.1-0.2c-0.1-0.1-0.1-0.1-0.2-0.2l0,0c-0.1-0.1-0.2-0.2-0.4-0.3c0,0,0,0,0,0c0,0,0,0,0,0c0,0,0,0,0,0
		c-0.3-0.2-0.7-0.3-1.1-0.3v0c-0.2,0-0.3,0-0.5,0h0c0,0,0,0,0,0c-0.2,0-0.4,0-0.6,0c-5.1,0.2-12.3,4.5-16.5,7.1
		c-9.2,6-27.9,19.9-31,27.3c-0.3,0.7-1.9,3.1-2.4,7c-0.1,0.7-0.1,1.4-0.1,2.2c0,0,0,0,0,0c0,0,0,0,0,0.1c0,0,0,0,0,0c0,0,0,0,0,0.1
		c0,0,0,0,0,0c0,0.1,0,0.2,0,0.3c0,0,0,0,0,0c0,0,0,0,0,0c0,0,0,0,0,0c0,0,0,0,0,0c0,0,0,0,0,0c0,0,0,0,0,0c0,0,0,0,0,0c0,0,0,0,0,0
		c0,0,0,0,0,0c0,0,0,0,0,0c0,0,0,0,0,0c0,0,0,0,0,0c0,0,0,0,0,0.1c0,0,0,0,0,0c0,0.1,0,0.2,0,0.3c0,0,0,0,0,0c0,0,0,0,0,0
		c0,0,0,0,0,0c0,0,0,0,0,0c0,0.1,0,0.2,0,0.3c0,0,0,0,0,0c0,0.2,0,0.5,0.1,0.7h0c0,0.3,0.1,0.5,0.1,0.8c0.1,0.3,0.1,0.6,0.2,0.9l0,0
		c0,0,0,0,0,0.1c0,0,0,0,0,0c0,0,0,0,0,0c0,0,0,0,0,0c0,0,0,0,0,0c0,0,0,0,0,0c0,0,0,0,0,0c0,0,0,0,0,0c0,0,0,0,0,0c0,0,0,0,0,0
		c0,0,0,0,0,0c0,0,0,0,0,0c0,0,0,0,0,0c0,0,0,0,0,0c0,0,0,0,0,0c0,0,0,0,0,0c0,0,0,0,0,0c0,0,0,0,0,0c0,0,0,0,0,0c0,0,0,0,0,0.1
		c0,0,0,0,0,0c0.1,0.2,0.1,0.5,0.2,0.7c0,0,0,0,0,0c0,0,0,0,0,0c0.1,0.3,0.2,0.6,0.3,0.9c0,0,0,0,0,0c0,0,0,0.1,0,0.1c0,0,0,0,0,0
		c0,0,0,0,0,0.1c0,0,0,0,0,0c0,0,0,0,0,0.1c0,0,0,0,0,0c0,0,0,0.1,0,0.1c0,0,0,0,0,0c0,0,0,0,0,0.1c0,0,0,0,0,0c0,0,0,0.1,0,0.1
		c0,0,0,0,0,0c0,0,0,0.1,0,0.1c0,0,0,0,0,0c0,0,0,0.1,0,0.1c0,0.1,0.1,0.1,0.1,0.2c0,0,0,0,0,0c0,0,0,0.1,0,0.1c0,0,0,0,0,0
		c0,0,0,0.1,0,0.1c0,0,0,0,0,0.1c0,0,0,0,0,0c0.3,0.7,0.6,1.4,1,2.1h0c0,0,0,0,0,0.1c2.5,4.8,4.8,7.3,6.7,8.6
		c0.1,0.1,0.2,0.1,0.2,0.2h0c0.1,0.1,0.2,0.1,0.3,0.2c0,0,0,0,0,0c0,0,0,0,0,0c0,0,0,0,0,0c0,0,0,0,0,0c0,0,0,0,0,0c0,0,0,0,0,0
		c0,0,0,0,0,0c0,0,0,0,0,0c0.2,0.1,0.4,0.2,0.5,0.3c0.4,0.2,0.7,0.3,1,0.4c0.3,0.1,0.5,0.2,0.7,0.2l0,0c0.1,0,0.2,0,0.3,0
		c0.1,0,0.1,0,0.1,0c0.1,0,0.3,0,0.5,0h0C283.1,693.3,283.1,693.3,283.2,693.3"/>
	<path fill-rule="evenodd" clip-rule="evenodd" fill="#595A5C" d="M179,718.9L179,718.9l-0.6-0.3L179,718.9z M182.2,723.8
		L182.2,723.8L182.2,723.8z M182.2,723.7L182.2,723.7L182.2,723.7z M332.5,616l-2.6-1.4l-0.1-0.1l0,0l0,0l0,0l-0.1,0l0,0l0,0l-0.1,0
		l0,0l-0.1,0l0,0l0,0l0,0h0l0,0l0,0l0,0l-0.1,0l0,0l0,0l-0.1,0l0,0l0,0l-0.1,0l-0.1,0l0,0l0,0l0,0l0,0v0l0,0l0,0l-0.2,0.1l0,0l0,0
		l0,0l0,0l0,0l0,0l0,0l0,0l0,0l0,0l0,0l0,0l0,0l0,0l0,0l0,0l0,0l0,0l0,0l0,0l0,0l0,0l0,0l0,0l0,0l0,0l0,0l0,0l0,0l0,0l0,0h0l0,0l0,0
		l0,0l0,0l0,0l0,0l0,0l0,0l0,0l0,0l0,0l0,0l0,0l0,0l0,0l0,0l0,0l0,0l0,0l0,0l0,0l0,0l0,0l0,0l0,0l0,0l0,0l0,0l0,0l0,0l0,0l0,0l0,0
		l0,0l0,0l0,0l0,0l0,0l0,0l0,0l0,0l0,0l0,0l0,0l0,0l0,0l0,0l0,0l0,0l0,0l0,0l0,0l0,0l0,0l0,0l0,0l0,0l0,0l0,0
		c-0.1,0-0.2,0.1-0.2,0.1l0,0c-0.1,0.1-0.2,0.1-0.3,0.2l0,0v0l0,0l0,0l0,0l0,0l0,0c-0.1,0.1-0.3,0.2-0.4,0.3l0,0l-0.1,0l0,0l0,0l0,0
		l0,0l-0.1,0.1l0,0l0,0l0,0l0,0l0,0l0,0l0,0l0,0l0,0l0,0l0,0l0,0l0,0l0,0l0,0l0,0l0,0l0,0l0,0l0,0l0,0l0,0l0,0l0,0l0,0l0,0l0,0l0,0
		l0,0l0,0l0,0l0,0l0,0l0,0l0,0l0,0l0,0l0,0l0,0h0l-0.1,0l0,0l0,0l0,0l0,0l0,0l0,0l0,0l0,0l0,0l0,0l0,0l0,0l0,0l0,0l0,0l0,0l0,0l0,0
		l0,0l0,0l0,0l0,0l0,0l0,0l0,0l0,0l0,0l0,0l0,0l0,0l0,0v0l0,0l0,0l0,0l0,0v0l0,0l0,0v0l0,0l0,0l0,0v0l0,0v0l0,0l0,0l0,0v0l0,0v0l0,0
		v0l0,0v0l0,0l0,0v0l0,0v0l0,0v0l0,0v0l0,0l0,0l0,0l0,0l0,0v0l0,0v0l0,0v0l0,0v0l0,0v0l-0.1,0v0l0,0v0l0,0v0l0,0v0l0,0v0l0,0l0,0
		l0,0v0l0,0v0l0,0v0l0,0v0l0,0v0l0,0l0,0l0,0v0l0,0v0l0,0v0l0,0l0,0v0l0,0l0,0l0,0l0,0l0,0v0l0,0l0,0l0,0v0l0,0l0,0l0,0v0l0,0v0l0,0
		v0l0,0v0l0,0l0,0l0,0l0,0v0l0,0v0l0,0v0l0,0l0,0l0,0l0,0l0,0v0l0,0v0l0,0l0,0l0,0v0l0,0v0l0,0v0l0,0v0l0,0v0l0,0v0l-0.1,0v0l-0.1,0
		v0l-0.1,0v0c-0.2,0.1-0.4,0.2-0.6,0.4l-0.4,0.3h0l0,0l-0.1,0l0,0l0,0l0,0l0,0l0,0l0,0l0,0l0,0l0,0l0,0l0,0l0,0l0,0l0,0l0,0l0,0l0,0
		l0,0l0,0l0,0l0,0l0,0l0,0l0,0l0,0l0,0l0,0l0,0l0,0l0,0l0,0l0,0l0,0l0,0l0,0l0,0l0,0l0,0l0,0l0,0l0,0l0,0l0,0l0,0l0,0l0,0l0,0l0,0
		l0,0l0,0l0,0l0,0l0,0l0,0l-0.2,0.1c-0.2,0.1-0.5,0.3-0.7,0.4l0,0l0,0l0,0l0,0l0,0l0,0l0,0l0,0l0,0l0,0l0,0l0,0l0,0l0,0l0,0l0,0l0,0
		l0,0l0,0l0,0l0,0l0,0l0,0l0,0l-1,0.5l0,0l0,0l0,0l0,0l0,0l0,0l0,0l0,0l0,0l0,0l0,0l0,0l0,0l0,0l0,0l0,0l0,0l0,0l0,0l0,0l0,0l0,0
		l0,0l0,0l0,0l0,0l0,0l0,0l0,0l0,0l0,0l0,0l0,0l0,0l0,0l0,0l0,0l0,0l0,0l0,0l0,0l0,0l0,0l0,0l0,0l0,0l0,0l0,0l-0.2,0.1l0,0l-0.2,0.1
		l0,0l-0.1,0c-0.3,0.2-0.7,0.4-1,0.5l0,0l-0.1,0l-0.1,0l-0.1,0l0,0l-0.1,0l-0.1,0l-0.1,0l0,0l-0.1,0l-0.3,0.1l-0.1,0l-0.1,0l0,0
		l-0.1,0l-0.1,0l-0.3,0.1l-0.1,0l0,0l-0.1,0l-0.4,0.2l-0.1,0l0,0l0,0l-0.1,0l-0.1,0l-0.1,0l-0.1,0l-0.1,0l-0.1,0l0,0l-0.1,0l-0.1,0
		l-0.1,0l0,0l-0.1,0l-0.1,0l-0.1,0l-0.1,0l-0.1,0l-0.1,0l0,0l-0.1,0l-0.1,0l-0.1,0l0,0l-0.1,0l-0.1,0l-0.1,0l0,0l-0.1,0l-0.1,0
		l-0.1,0h0h0l0,0l-0.1,0l-0.1,0.1l-0.1,0.1l-0.1,0l-0.1,0.1l-0.1,0.1l0,0l-0.2,0.1l-0.1,0.1l0,0l-0.1,0l-0.1,0.1l-0.1,0.1l0,0
		l-0.1,0.1l-0.1,0.1l-0.1,0l0,0l-0.1,0.1L311,625l-0.1,0l0,0l-0.1,0.1l-0.1,0.1l-0.1,0l0,0l-0.1,0.1l-0.1,0.1l-0.1,0l0,0l-0.1,0.1
		l-0.1,0.1l-0.1,0l0,0l-0.1,0.1l-0.1,0.1l0,0l-0.1,0l-0.1,0.1l-0.1,0.1l0,0l-0.1,0l-0.1,0.1l-0.1,0.1l-0.3,0.2l0,0l-0.1,0l-0.1,0.1
		l-0.8,0.4l-0.1,0.1l-0.2,0.1l-0.1,0.1l-0.1,0l0,0l-0.1,0.1l-0.1,0.1l-0.1,0l0,0l-0.1,0.1l-0.1,0.1l0,0l0,0l-0.1,0.1l-0.1,0.1l0,0
		l-0.1,0l-0.1,0.1l-0.1,0.1h0l0,0l-0.1,0l-0.5,0.3l0,0l0,0l-0.2,0.1l0,0l-0.3,0.2l0,0l-0.3,0.2l-0.1,0l-0.1,0l0,0l0,0l-0.1,0l-0.1,0
		l-0.1,0l0,0l-0.1,0l-0.1,0l-0.1,0.1l0,0l-0.1,0l-0.1,0l-0.1,0l0,0l-0.1,0l-0.1,0l-0.1,0l-0.1,0l0,0l-0.1,0l-0.1,0l-0.1,0l0,0
		l-0.1,0l-0.1,0l-0.1,0l-0.1,0l0,0l-0.1,0l-0.1,0l-0.1,0l0,0l-0.1,0l-0.1,0l-0.1,0l-0.1,0l0,0l-0.1,0l-0.1,0l-0.1,0l0,0l0,0l-0.1,0
		l-0.1,0l-0.1,0l0,0l-0.1,0l-0.1,0l-0.1,0l0,0l0,0l-0.1,0l-0.1,0l-0.1,0l0,0l0,0l0,0l-0.4,0.3l0,0l0,0l0,0l0,0l0,0l0,0l0,0l0,0l0,0
		l0,0l0,0l0,0l0,0l-0.2,0.1l0,0l-0.1,0l0,0l0,0l0,0l0,0l0,0l0,0l0,0l0,0l0,0l0,0l0,0l0,0l0,0l0,0l0,0l0,0l0,0l0,0l0,0l0,0l0,0l0,0
		l0,0h0l-0.1,0.1l-0.1,0.1l-0.1,0.1l0,0l-0.1,0.1l-0.1,0.1l-0.1,0.1l-0.1,0.1l-0.1,0.1l-0.1,0l0,0c-0.6,0.4-1.2,0.8-1.8,1.2l0,0
		c-0.6,0.4-1.1,0.8-1.7,1.1l-0.1,0.1l0,0l-0.4,0.3l-0.1,0.1l-0.1,0l0,0l0,0l-0.2,0.1l-0.1,0.1l-0.1,0.1l-0.1,0.1l0,0l-0.1,0.1
		l-0.1,0.1l-0.1,0.1l-0.1,0.1l-0.1,0.1l-0.1,0.1l-0.1,0.1l-0.1,0.1l-0.1,0.1l-0.1,0.1l-0.1,0.1l-0.1,0c-2.2,1.6-11.4,8.6-13.7,10.4
		l0,0l-0.1,0.1l0,0c-0.9,0.7-1.8,1.4-2.6,2.2l0,0c-0.3,0.3-0.6,0.5-1,0.8l0,0l-0.1,0.1l-0.1,0.1l-0.3,0.3l0,0l-0.1,0.1l-0.1,0.1
		l-0.1,0.1l-0.1,0.1l-0.1,0.1l0,0l-0.1,0.1l-0.1,0.1l-0.1,0.1c-0.3,0.3-0.7,0.6-1,0.9l-0.1,0.1l0,0l-0.3,0.3l-0.1,0.1l-0.1,0.1l0,0
		l-0.1,0.1l2.6,1.4l-2.6-1.4c-0.4,0.4-0.9,0.8-1.3,1.1l0,0l-0.4,0.4l0,0l-0.5,0.4l0,0l-0.3,0.2l-0.1,0.1l-0.1,0.1l0,0l-0.1,0.1
		L270,655l-0.1,0.1l-0.2,0.2l-0.1,0.1l0,0l-0.1,0.1l-0.1,0.1l-0.1,0.1l-0.1,0.1l-0.1,0.1l0,0l-0.1,0.1l-0.1,0.1l-0.1,0.1l-0.1,0.1
		l-0.1,0.1l-0.1,0l0,0l-0.1,0.1l-0.3,0.3l0,0l-0.1,0.1l-0.1,0.1l-0.1,0.1l-0.1,0.1l-0.1,0.1l0,0l0,0l-0.1,0.1l-0.1,0.1l-0.1,0.1
		l-0.1,0.1l-0.1,0.1l0,0l0,0l0,0l0,0l0,0l0,0l0,0l0,0l0,0l0,0l0,0l0,0l0,0l0,0l0,0l0,0l0,0l0,0l0,0l0,0l0,0l0,0l0,0l0,0l0,0l0,0l0,0
		l0,0l0,0l0,0l0,0l0,0l0,0l0,0l0,0l0,0l0,0l0,0l0,0l0,0l0,0l0,0l0,0l0,0l0,0l-0.1,0.1c-0.3,0.3-0.6,0.6-0.9,0.9l0,0l0,0l0,0
		l-0.1,0.1l0,0l0,0l0,0l0,0l0,0l0,0l0,0l0,0l0,0l0,0l0,0l0,0l0,0l0,0l0,0l0,0l0,0l0,0l0,0l0,0l0,0l0,0l0,0l0,0l0,0l0,0l0,0l0,0l0,0
		l0,0l0,0l0,0l0,0l0,0l0,0l0,0l0,0l0,0l0,0l0,0l0,0l0,0l0,0l0,0l0,0l0,0l0,0l0,0l0,0l0,0l0,0l0,0l0,0l0,0l-0.1,0.1l0,0l0,0l0,0l0,0
		l0,0l0,0l0,0l-0.1,0.1l0,0l0,0l0,0l0,0l0,0l0,0l-0.2,0.2l0,0l-0.3,0.3l0,0l0,0l0,0l0,0l0,0l0,0l-0.1,0.1l0,0l-0.2,0.2l0,0l-0.1,0.1
		l0,0l0,0l0,0l0,0l0,0l0,0l0,0l0,0l0,0l0,0l0,0l0,0l0,0l0,0l0,0l0,0l0,0l2.6,1.4l-2.6-1.4l0,0l0,0l0,0l0,0l0,0l-0.1,0.1l0,0l0,0l0,0
		l0,0l0,0l0,0l0,0l0,0l0,0l0,0l0,0l0,0l0,0l0,0l0,0l-0.3,0.2l0,0l0,0l0,0l0,0c-0.2,0.1-0.3,0.3-0.5,0.4l-0.3,0.3l0,0l0,0l0,0l0,0
		l0,0l0,0l0,0l0,0l0,0l0,0l0,0l0,0l0,0l0,0l-0.3,0.2l0,0l0,0l0,0l-0.1,0.1l0,0l0,0l0,0l0,0l0,0l0,0l0,0l0,0l0,0h0l0,0l0,0l0,0l0,0
		l0,0l0,0l0,0l0,0l0,0l0,0l0,0l0,0l0,0l0,0l0,0l0,0l0,0l0,0l0,0l0,0l0,0l0,0l0,0l0,0l0,0l0,0l0,0l0,0l0,0l0,0l0,0l0,0l0,0l0,0l0,0
		l0,0l0,0l0,0l0,0l0,0l0,0l0,0c-0.1,0.1-0.2,0.1-0.3,0.2l0,0l0,0l0,0l0,0l0,0l0,0l0,0l0,0l0,0l0,0l0,0l0,0l0,0l0,0l0,0l0,0l0,0l0,0
		l0,0l0,0l0,0l0,0l0,0l0,0l0,0l0,0l0,0l0,0l0,0l0,0l0,0l0,0l0,0l0,0l0,0l0,0l0,0l0,0l0,0l0,0l0,0c-0.1,0.1-0.3,0.2-0.4,0.3l0,0l0,0
		l0,0l0,0l-0.1,0.1l0,0l2.6,1.4l-2.6-1.4l0,0l-0.2,0.1l-0.1,0l0,0l0,0l0,0l0,0l0,0l0,0l0,0l0,0l0,0l0,0l0,0l0,0l0,0l0,0l0,0l0,0l0,0
		l0,0l0,0l0,0l0,0l0,0l0,0l0,0l0,0l0,0l0,0l0,0l0,0l0,0l0,0l0,0l0,0l0,0l0,0l0,0l0,0l0,0l0,0l0,0l0,0l0,0l0,0l0,0l0,0l0,0l0,0l0,0
		l0,0l0,0l0,0l0,0l0,0h0l0,0l0,0l0,0l0,0l0,0l0,0l0,0l0,0l0,0l0,0l0,0l0,0l0,0l0,0l0,0l0,0l0,0l0,0l0,0l0,0l0,0l0,0l0,0l0,0l0,0l0,0
		l0,0l0,0l0,0c-0.2,0.1-0.3,0.2-0.5,0.3l0,0l0,0l0,0l0,0l0,0l0,0l0,0l0,0l0,0l0,0l0,0h0l0,0l0,0l0,0l0,0l0,0l0,0l0,0l0,0l0,0l0,0
		l0,0l0,0l0,0l0,0l0,0l0,0l0,0l0,0l0,0l0,0l0,0l0,0l0,0l0,0l0,0l0,0l0,0l0,0l0,0l0,0l0,0l0,0l0,0l0,0l0,0l0,0l0,0l0,0l0,0l0,0l0,0
		l0,0l0,0l0,0l0,0l0,0l0,0l0,0l0,0l0,0l0,0l0,0l0,0l0,0l0,0l0,0l0,0l0,0l0,0l0,0l0,0l0,0l0,0l0,0l0,0l0,0l0,0l0,0l0,0l0,0l0,0l0,0
		l0,0l0,0l0,0l0,0l0,0l0,0l0,0l0,0l0,0l0,0l0,0l0,0l0,0l0,0l0,0l0,0l0,0l0,0l0,0l0,0l0,0l0,0l0,0l0,0l0,0l0,0l0,0l0,0l0,0l0,0l0,0
		l0,0l0,0l0,0l0,0h0l0,0l0,0l0,0l0,0l0,0l0,0l0,0l0,0l0,0l0,0l0,0l0,0l0,0l0,0l0,0l0,0l0,0l0,0l0,0l0,0l0,0l0,0l0,0l0,0l0,0l0,0l0,0
		l0,0l0,0l0,0l0,0l0,0l0,0l0,0l0,0l0,0l0,0l0,0l0,0l0,0l0,0l0,0l0,0l0,0l0,0l0,0l0,0l0,0l0,0l0,0h0l0,0l0,0l0,0l0,0l0,0l0,0l0,0l0,0
		l0,0l0,0l0,0l0,0l0,0l0,0l0,0l0,0l0,0l0,0l0,0l0,0l0,0l0,0l0,0l0,0l0,0l0,0l0,0l0,0l0,0l0,0l0,0l0,0l0,0l0,0l0,0l0,0l0,0l0,0l0,0
		l0,0l0,0l0,0l0,0l0,0l0,0l0,0l0,0l0,0l0,0l0,0l0,0l0,0l0,0l2.6,1.4l-2.6-1.4l0,0l-0.2,0.1l0,0h0l0,0l0,0l0,0l0,0l0,0l0,0l0,0l0,0
		l0,0l0,0l0,0l0,0l0,0l0,0l-0.1,0l0,0c-0.2,0.1-0.4,0.2-0.6,0.4l0,0c-0.2,0.1-0.4,0.3-0.7,0.4l0,0l0,0l0,0l-0.1,0.1l0,0l-0.2,0.1
		l0,0c-0.3,0.1-0.5,0.3-0.8,0.4l0,0l-0.1,0.1l0,0l0,0l0,0l0,0l0,0l0,0l0,0l0,0l0,0l0,0l0,0l0,0l0,0c-0.1,0.1-0.3,0.1-0.4,0.2l0,0
		l0,0l-0.1,0.1l0,0l0,0l-0.1,0.1l0,0l0,0l0,0l-0.1,0l0,0l0,0l0,0l0,0l-0.1,0.1l0,0l-0.1,0l2.6,1.4l-2.6-1.4l-0.1,0.1l0,0l0,0h0l0,0
		l0,0l0,0l0,0l0,0l0,0l0,0v0l0,0l0,0l0,0l0,0l-0.1,0l0,0l0,0l0,0l0,0l0,0l0,0l0,0l0,0l0,0l0,0l0,0l0,0l0,0l0,0l0,0l0,0l0,0l0,0l0,0
		l0,0h0l0,0l0,0l0,0l0,0l0,0l0,0l0,0l0,0l0,0l0,0l0,0l0,0l0,0l0,0l0,0l0,0l2.6,1.4l-2.6-1.4c-0.2,0.1-0.4,0.2-0.6,0.2l0,0l-0.1,0
		l0,0l-0.2,0.1l0,0l0,0l0,0l0,0l0,0l0,0l0,0l0,0l0,0l0,0l0,0l0,0l0,0l0,0l0,0l0,0l0,0l0,0l0,0l0,0l0,0l0,0l0,0
		c-0.2,0.1-0.3,0.1-0.5,0.2l0,0l0,0l0,0l0,0l0,0l0,0l0,0l0,0l0,0l0,0l0,0l0,0l0,0l0,0l0,0l0,0l0,0l0,0l0,0l0,0l0,0l0,0l0,0l0,0l0,0
		l0,0l0,0l0,0l0,0l0,0l0,0l0,0l0,0l0,0l-0.2,0.1l0,0l0,0l-0.1,0l0,0l0,0l0,0l-0.2,0.1l0,0l0,0l0,0l0,0l0,0l0,0
		c-0.3,0.1-0.6,0.2-0.9,0.3l-0.1,0l0,0l-0.5,0.2c-0.7,0.3-1.5,0.6-2.3,0.9l0,0l-0.5,0.2l0,0c-0.5,0.2-1,0.4-1.5,0.6
		c-2,0.8-10.2,4.7-12.3,5.7l0,0l0,0l-0.1,0l0,0c-1.8,0.9-3.7,1.9-5.6,3l0,0l-0.8,0.5h0c-1.2,0.7-2.5,1.4-3.8,2.2l0,0l-0.1,0
		l-0.4,0.2l-0.1,0.1l0,0l-0.1,0.1l-0.1,0.1l-0.1,0.1l-0.2,0.1l-0.1,0l0,0l-0.1,0.1l-0.1,0.1l-0.1,0.1l-0.1,0.1l-0.1,0.1l0,0l-0.1,0
		l-0.1,0.1l-0.1,0.1l-0.1,0.1l-0.1,0.1l-0.1,0.1l0,0l-0.1,0.1l-0.1,0.1l-0.1,0.1l-0.1,0.1l-0.1,0l-0.1,0l0,0l0,0l-0.1,0l-0.1,0
		l-0.1,0l-0.2,0.1l-0.1,0l-0.1,0l0,0l-0.1,0l-0.4,0.2l-0.1,0l-0.1,0l0,0l-0.1,0l-0.1,0l-0.1,0l-0.2,0.1l-0.1,0l0,0l0,0l-0.6,0.4
		l-0.1,0l-0.5,0.3l0,0c-0.6,0.4-1.2,0.8-1.8,1.2c-0.5,0.3-1,0.6-1.5,1l-0.7,0.4l0,0l-0.1,0.1l-0.1,0.1l0,0l-0.2,0.1l-0.1,0.1l0,0
		l-0.1,0.1l-0.1,0.1l-0.1,0.1l-0.1,0.1l-0.1,0.1l-0.1,0l0,0l-0.1,0.1l-0.1,0.1l0,0l-0.2,0.1l-0.1,0.1l0,0l-0.1,0.1l-0.1,0.1
		l-0.1,0.1l0,0l-0.1,0.1l-0.1,0.1l-0.1,0l0,0l-0.1,0.1l-0.1,0.1l0,0l-0.1,0.1l-0.1,0.1l-0.1,0.1l0,0l-0.1,0.1L202,695l-0.1,0l0,0
		l-0.1,0.1l-0.1,0.1l0,0l-0.1,0l-0.1,0.1l-0.1,0.1l0,0l-0.1,0.1l-0.1,0.1l-0.1,0.1l0,0l-0.1,0.1l-0.1,0.1l-0.1,0l0,0l-0.1,0.1
		l-0.1,0.1l0,0l-0.1,0l-0.1,0.1l-0.1,0.1l0,0l-0.1,0.1l-0.1,0.1l-0.1,0.1l0,0l-0.1,0.1l-0.1,0.1l-0.1,0l0,0l-0.1,0.1l-0.1,0.1l0,0
		l-0.1,0.1l-0.1,0.1l-0.1,0.1l0,0h0l-0.1,0.1L199,697l-0.1,0.1l0,0l-0.1,0.1l-0.1,0.1l-0.1,0l0,0l-0.1,0.1l-0.1,0.1l0,0l0,0
		l-0.1,0.1l-0.3,0.2l0,0l-0.1,0.1l0,0l-0.1,0.1l-0.1,0.1l-0.1,0.1l0,0l-0.1,0.1l-0.1,0.1l-0.1,0.1l0,0l-0.1,0.1l-0.1,0.1l-0.1,0l0,0
		l-0.1,0.1l-0.1,0.1l-0.1,0l0,0l-0.1,0.1l-0.1,0.1l0,0l-0.1,0l-0.1,0.1l-0.1,0.1l0,0l-0.1,0.1l-0.1,0.1l-0.1,0.1l0,0l-0.1,0.1
		l-0.1,0.1l-0.2,0.1l-0.1,0.1l-0.1,0.1l0,0l-0.1,0.1l-0.1,0.1l-0.3,0.2l0,0l-0.1,0l-0.1,0.1l-0.1,0.1l-0.2,0.1l-0.1,0.1l0,0
		l-0.1,0.1c-0.4,0.3-0.8,0.6-1.2,0.9l-0.4,0.3l0,0l0,0l-0.1,0l-0.1,0l-0.1,0l-0.1,0.1l-0.1,0l-0.1,0l-0.1,0.1l0,0l0,0l-0.2,0.1
		l-0.1,0l-0.2,0.1l-0.1,0l-0.1,0c-0.7,0.5-1.3,1-2,1.6l-0.3,0.2l0,0l0,0l0,0l0,0l0,0l0,0l0,0l0,0l0,0l0,0l0,0l0,0l0,0l0,0l0,0l0,0
		l0,0l0,0l0,0l0,0l2.6,1.4l-2.6-1.4l0,0l0,0l0,0l0,0l0,0l0,0l0,0l0,0l0,0l0,0l0,0l0,0l0,0l0,0l0,0l0,0l0,0l0,0l0,0l0,0l0,0l0,0l0,0
		l0,0l0,0l0,0l0,0l0,0l0,0l0,0l0,0l0,0l0,0l0,0l0,0l0,0l0,0l0,0l0,0l0,0l0,0l0,0l0,0l0,0l0,0l0,0l0,0l0,0l0,0l0,0l0,0l0,0l0,0l0,0
		l0,0l0,0l0,0l0,0l0,0l0,0l0,0l0,0l0,0l0,0l0,0l0,0l0,0l0,0l0,0l0,0l0,0l0,0l0,0l0,0l0,0l0,0l2.6,1.4l-2.6-1.4l0,0l0,0l0,0l0,0l0,0
		l0,0l0,0l0,0l0,0l0,0l0,0l0,0l0,0l0,0l0,0l0,0l0,0l0,0l0,0l0,0l0,0l0,0l0,0l0,0l0,0l0,0l0,0l0,0l0,0l0,0l0,0l0,0l0,0l0,0l0,0l0,0
		l0,0l0,0l0,0l0,0l0,0l0,0l0,0l0,0l0,0l0,0l0,0l0,0l0,0l0,0l0,0l0,0l0,0l0,0l0,0l0,0l0,0l0,0l0,0l0,0l0,0l0,0l0,0l0,0l0,0l0,0l0,0
		l0,0l0,0l0,0l0,0l0,0l0,0l0,0l0,0l0,0l0,0l-0.1,0l0,0l0,0l0,0l0,0l-0.1,0.1l-0.4,0.3l0,0l-0.1,0l0,0l0,0l0,0l0,0l0,0l0,0l0,0l0,0
		l0,0l0,0l0,0l0,0l0,0l0,0l0,0l0,0l0,0l0,0l0,0l0,0l0,0l0,0l0,0l0,0l0,0l0,0h0l0,0h0l0,0h0l0,0h0l0,0l0,0l0,0h0l0,0h0l0,0h0l0,0h0
		l0,0l0,0l0,0h0l0,0h0l0,0h0l0,0h0l0,0h0l0,0l0,0l0,0h0l0,0h0l0,0l0,0l-0.1,0.1h0l0,0l0,0l0,0h0l0,0h0l0,0h0l-0.2,0.1l0,0l0,0v0l0,0
		v0l-0.3,0.2l-0.9,0.5l0,0l-0.1,0.1v0l0,0v0l0,0v0l0,0v0l0,0v0l0,0v0l0,0v0l0,0v0l0,0l0,0l0,0l0,0l0,0l0,0v0l0,0l0,0l0,0h0l0,0l0,0
		l0,0l0,0l0,0l0,0l0,0l0,0l0,0l0,0l0,0l0,0l-0.1,0.1l0,0l0,0l0,0l-0.2,0.1l0,0l0,0l0,0l0,0l0,0l0,0l0,0l0,0l0,0l0,0l0,0l0,0l0,0l0,0
		l0,0l0,0l0,0l0,0l0,0l0,0l0,0l0,0l0,0l2.6,1.4l-2.6-1.4l0,0l0,0l0,0l0,0l0,0l0,0l0,0l0,0l0,0l0,0l0,0l0,0l0,0l0,0l0,0l0,0l0,0l0,0
		l0,0l0,0l0,0l0,0l0,0l0,0l0,0l0,0l0,0l0,0l0,0l0,0l0,0l0,0l0,0l0,0l0,0l0,0l0,0l0,0l0,0l0,0l0,0l0,0l0,0l0,0l0,0l0,0l0,0l0,0l0,0
		l0,0l0,0l0,0l0,0l0,0l0,0l0,0l0,0l0,0l0,0l0,0l0,0l0,0l0,0l0,0l-0.1,0l0,0l-0.2,0.1l2.6,1.4l0,0l0,0l0,0l0,0l0,0l0,0l0,0l0,0l0,0
		l0,0l0,0l0,0l0,0l0,0l0,0l0,0l0,0l0,0l0,0l0,0l0,0l0,0l0,0l0,0l0,0l0,0l0,0l0,0l0,0l0,0l0,0l0,0l0,0l0,0l0,0l0,0l0,0l0,0l0,0l0,0
		l0,0l0,0l0,0l0,0l0,0l0,0l0,0l0,0l0,0l0,0l0,0l0,0l0,0l0,0l0,0l0,0l0,0l0,0l0,0l0,0l0,0l0,0l0,0l0,0l0,0l0,0l0,0l0,0l0,0l0,0l0,0
		l0,0l0,0l0,0l0,0l0,0l0,0l0,0l0,0l0,0l0,0l0,0l0,0l0,0l0,0l0,0l0,0l0,0l0,0l0,0l0,0l0,0l0,0l0,0l0,0l0,0l0,0l0,0l0,0l0,0l0,0l0,0
		l0,0l0,0l0,0l0,0l0,0l-0.1,0.1l0,0l0,0l0,0l0,0l0,0l0,0l0,0l0,0l0,0l0,0l0,0l0,0l0,0l0,0l0,0l0,0l0,0l0,0l0,0l0,0l0,0l0,0l0,0l0,0
		l0,0l0,0l0,0l0,0l0,0l0,0l0,0l0,0l0,0l0,0l0,0l0,0l0,0l0,0l0,0l0,0l0,0l0,0l0,0l0,0l0,0l0,0v0l0,0l0,0l0,0l0,0l0,0l0,0l0,0l0,0l0,0
		l0,0l0,0l0,0l0,0l0,0l0,0l0,0l0,0l0,0l0,0l0,0l0,0l0,0l0,0l0,0l0,0l0,0l0,0l0,0l0,0l0,0l0,0l0,0l0,0l0,0l0,0l0,0l0,0l0,0l0,0l0,0
		l0,0l0,0l0,0l0,0l0,0l0,0l0,0l0,0l0,0l-0.1,0l-0.1,0.1l0,0l0,0l-0.1,0.1l0,0l0,0l-0.1,0.1l0,0c0,0,0,0.1-0.1,0.1l0,0.1
		c-0.1,0.2-0.3,0.4-0.4,0.6c0,0.1-0.1,0.1-0.1,0.2l0,0l0,0l-0.1,0.1l0,0l-0.1,0.1l0,0.1l0,0.1l0,0.1l0,0l0,0.1l0,0.1l0,0.1l0,0.1
		l0,0.1l0,0.1l0,0l0,0.2l0,0l0,0c0,0.1,0,0.2-0.1,0.3l-1.1-0.6v0l1.1,0.6c0,0.1,0,0.2-0.1,0.3l-1-0.5v0l1,0.5c0,0.1,0,0.3,0,0.4
		c0,0.1,0,0.3,0,0.4l0,0.2l0,0l0,0l0,0l0,0l0,0v0l0,0l0,0l0,0l0,0l0,0.2c0,0.2,0,0.4,0,0.6c0,0.2,0,0.5,0,0.7l-0.7-0.4h0l0.7,0.4
		c0,0.2,0,0.3,0,0.5l0,0l0,0l0,0l0,0l0,0l0,0l0,0.3l-0.7-0.4v0l0.7,0.4c0,0.3,0,0.7,0.1,1c0,0.4,0.1,0.7,0.1,1l0,0l0,0l0,0l0,0l0,0
		l0,0.1l0,0l0,0l0,0l0,0l0,0.1l0,0l0,0c0,0.2,0,0.3,0.1,0.5l0,0l0,0l0,0l0,0l0,0l0,0l0,0l0,0l0,0l0,0l-1.4-0.7h0l1.4,0.7l0,0l0,0
		l0,0l0,0l0,0l0,0l0,0l0,0l0,0l0,0l0,0l0,0.1l0,0l0,0l0,0l0,0c0,0.2,0.1,0.3,0.1,0.5c0,0.1,0.1,0.2,0.1,0.3l0,0.1l0,0.1l0,0l0,0l0,0
		l0,0l0,0l0,0l0,0c0,0,0,0,0.1,0.1l0,0l0,0l0,0l0,0l0,0l0,0l0,0l0,0l0,0l0,0l0,0l0,0l0,0l0,0l0,0l0,0l0,0l0,0l0,0l0,0l0,0l0,0l0,0
		l0,0l0,0l0,0l0,0l0,0l0,0l0,0l0,0l0,0l0,0l0,0l0,0l0,0l0,0l0,0l0,0l0,0l0,0l0,0l0,0l0,0l0,0l0,0l0,0l0,0v0l0,0v0l0,0v0l0,0v0l0,0v0
		l0,0v0l0,0l0,0l0,0v0l0,0l0,0l0,0v0l0,0v0l0,0l0,0l0,0v0l0,0v0l0,0l0,0l0,0l0,0l0,0l0,0l0,0v0l0,0l0,0l0,0l0,0l0,0l0,0l-2.6-1.3
		l0,0l0,0l0,0l0,0l0,0l0,0l0,0l0,0l0,0l0,0l0,0l0,0l0,0l0,0l0,0l0,0l0,0l0,0l0,0l0,0l0,0l0,0l0,0l0,0l0,0l0,0l0,0l0,0l0,0l0,0l0,0
		l0,0l0,0l0,0l0,0l0,0l0,0l0,0l0,0l0,0l0,0h0l0,0l0,0l0,0l0,0l0,0l0,0h0l0,0h0l0,0l0,0h0l0,0l0,0l0,0l0,0l0,0h0l0,0h0l0,0h0l0,0l0,0
		l0,0h0l0,0h0l0,0l0,0h0l0,0l0,0h0l0,0h0l0,0h0l0,0l0,0l0,0l0,0l0,0l0,0l0-0.1l0,0l0,0l0-0.2l0,0l0,0l0,0l0,0l0,0l0,0l0,0l0,0l0,0
		l0,0l0,0l0,0l0,0l0,0l0,0l0,0l0,0l0,0l0,0l0,0l0,0l0,0l0,0l0,0l0,0l0,0l0,0l0,0l0,0l0,0l0,0l0,0l0,0l0,0l0,0l0,0l0,0l0,0l0,0l0,0
		l0,0l0,0l0,0l0,0l0,0l0,0l0,0l0,0l0,0l0,0l0,0l0,0l0,0l0,0l0,0l0,0l0,0l0,0l0,0l0,0l0,0l0,0l0,0l0,0l0,0l0,0l0,0l0,0l0,0l0,0l0,0
		l0,0l0,0l0,0l0,0l0,0l0,0l0,0l0,0l0,0l0,0l0,0l0,0l0,0l0,0l0,0l0,0l0-0.1l0.4,0.2v0l-0.4-0.2l0-0.3l0,0l0,0l0,0l0,0l0,0l0,0l0,0
		l0,0l0,0l0,0l0,0l0,0l0,0l0,0l0,0l0,0l0-0.1l0,0l0,0l0-0.3v0l0-0.1l0,0l0,0l0-0.1l0,0l0,0l0-0.1l0,0l0-0.1l0,0l0-0.1l0,0l0,0l0,0
		l0,0l0,0l0,0l0,0l0,0l0,0l0,0l0,0l0,0l0,0l0,0l0-0.1l0,0l0-0.2l0-0.3l0,0l0,0l0,0l0,0l0,0l0,0l0,0l0,0l0,0l0,0l0,0l0,0l0,0l0,0l0,0
		l0,0l0,0l0,0l0,0l0,0l0-0.1l0,0l0,0l0,0l0,0l0,0l0,0l0,0l0,0l0,0l0,0l0,0l0,0l0,0l0,0l0,0l0,0l0,0l0,0l0,0l0,0l0,0l0.6,0.3v0
		l-0.6-0.3l0-0.2l0,0l0-0.2l0,0l0,0l0,0l0,0l0,0l0,0l0,0l0,0l0,0l0,0l0,0l0,0l0,0l0,0l0,0l0,0l0,0l0,0l0,0l0,0l0-0.2l0.6,0.3v0
		l-0.6-0.3l0,0l0,0l0,0l0,0l0,0l0,0l0,0l0,0l0,0l0,0l0-0.2v0l0,0v0l0,0v0l0,0v0l0-0.1l0,0v0l0,0v0l0,0l0,0v0v0l0,0l0-0.1l0,0l0,0v0
		l0,0l0,0l0,0l0,0l0,0l0,0l0,0l0,0l0,0l0,0l0,0l0-0.1l0,0l0,0l0,0l0,0l0,0l0,0l0,0l0,0l0,0l0,0l0,0l0,0l0,0l0,0l0,0l0,0l0,0l0,0l0,0
		l0,0l0,0l0,0l0,0l0,0l0,0l0,0l0,0l0,0l0,0l0,0l0,0l0,0l0,0l0,0l0,0l0-0.1l0,0l0,0l0,0l0,0l0,0l0,0l0,0l0,0l0,0l0-0.2l0,0l0,0l0,0
		l0,0l0,0l0,0l0-0.1l0,0l0,0l0,0l0,0l0,0l0,0l0,0l0,0l0,0l0,0l0,0l0,0l0,0l0,0l0,0l0,0l0,0l0,0l0,0l0,0l0,0l0,0l0,0l0,0l0,0l0,0l0,0
		l0,0l0,0l0,0l0,0l0,0l0,0l0,0l0,0l0,0l0,0l0,0l0,0l0,0l0,0l0,0l0,0l0,0l0,0l0,0l0,0l0,0l0,0l0,0l0,0l0,0l0,0l0,0l0,0l0,0l0,0l0,0
		l0,0l0,0l0,0l0,0l0,0l0,0l0,0l0,0l0-0.2l0,0l0-0.2l0.3,0.2v0l-0.3-0.2l0,0l0,0l0,0l0,0l0,0l0,0l0,0l0,0l0,0l0,0l0,0l0,0l0,0l0,0
		l0,0l0,0l0,0l0,0l0,0l0,0l0,0l0,0l0,0l0,0l0,0l0,0l0,0l0,0l0,0l0,0l0,0l0,0l0,0l0,0l0,0l0,0l0,0l0,0l0,0l0,0l0,0l0,0l0,0l0,0l0,0
		l0,0l0,0l0,0l0.2,0.1v0l-0.2-0.1h0l0,0l0,0l0,0l0,0l0,0l0,0l0,0l0,0l0,0l0,0l0,0l0,0l0,0l0,0l0,0l0,0l0,0v0l0,0l0,0l0,0l0,0l0,0
		l0,0l0,0l0,0l0,0l0,0l0,0l0-0.1l0,0l0,0l0,0l0,0l0,0l0,0l0,0l0,0l0.1-0.3l0,0l0,0l0-0.2l0,0l0,0l0,0l-0.1-1.4l1.2-0.8l0,0.1l0,0
		l0.1-0.1l0,0h0l2.6,1.4l-2.6-1.4l0,0l0,0l0,0l0,0l0,0l0,0l0,0l0,0l0,0l0,0l0,0l0,0l0,0l0,0l0,0l0,0l0,0l0,0l0,0l0,0l0,0l0,0l0,0
		l0,0l0,0l0,0l0,0l0,0l0,0l0,0l0,0l0,0l0,0l0,0l0,0l0,0l0,0l0,0l0,0l0,0l0,0l0,0l0,0l0,0l0,0v0l0,0l2.6,1.4l-2.6-1.4l0.1-0.1l0,0
		l0,0l0,0l0,0l0,0l0,0l0,0l0,0l0,0l0,0l0,0l0,0l0,0l0,0l0,0l0,0l0,0l0,0l0,0l0,0l0,0l0,0l0,0l0,0l0,0l0,0l0,0l0,0l0,0l0,0l0,0l0,0
		l0,0l0,0l0,0l0,0l0,0l0,0l0,0l0,0l0,0l0,0l0,0l0,0l0,0l0,0l0,0l0,0l0,0l0,0l0,0l0,0l0,0l0,0l0,0l0,0l0.1-0.1l0,0l0.1-0.1l0,0l0,0
		l0,0l0,0l0,0l0,0l0,0c0.1-0.1,0.2-0.1,0.3-0.2l2.6,1.4l0,0l0,0l0,0l0,0l0,0l0,0l0,0l0,0l0,0l0,0l0,0l0,0l0,0l0,0l0,0l0,0l0,0l0,0
		l0,0l0,0l0,0l0,0l0,0l0,0l0,0l0,0l0,0l0,0l0,0l0,0l0,0l0,0l0,0l0,0l0,0l0,0l0,0l0,0l0,0l0,0l0,0l0,0l0,0l0,0l0,0l0,0l0,0l0,0l0,0
		l0,0l0,0l0,0l0,0l0,0l0,0l0,0l0,0l0,0l0,0l0,0l0,0l0,0l0,0l0.2-0.1l0,0l0,0l0.1,0l0,0l0,0l0,0l0,0l0,0l0,0l0,0h0l0,0l0,0l0,0l0,0
		l0,0l0,0l0,0l0,0l0,0l0,0l0,0l0,0l0,0l0,0l0,0l0,0l0,0l0,0l0,0l0,0l0,0l0,0l0,0l0,0l0,0l0,0l0,0l0,0l0,0l0,0l0,0l0,0l0,0l0,0l0,0
		l0,0l0,0l0,0l0,0l0.2-0.2l0.2-0.1l0,0l0.1-0.1l0,0l0,0l0,0h0l0,0l0,0l0,0h0l0,0h0l0,0h0l0,0h0l0,0h0l0,0h0l0,0h0l0,0h0l0,0l0,0h0
		l0,0l0,0h0l0,0l0,0h0l0,0h0l0,0l0,0l0,0l0,0l0,0l0,0l0,0l0,0h0l0,0l0,0l0,0l0,0l0,0l0,0l0,0l0,0l0,0l0,0l0,0l0,0l0,0l0,0l0,0l0,0
		l0,0l0,0l0,0l0,0l0,0l0,0l0,0l0,0l0,0l0,0l0,0l0,0l0,0h0l0,0l0,0l0,0h0l0,0l0,0l0,0h0l0,0l0,0l0,0h0l0,0h0l0,0h0l0,0h0l0,0h0l0,0
		l0,0l0,0h0l0,0h0l0,0h0l0,0h0l0,0h0l0,0h0l0,0h0l0,0h0l0,0h0l0,0h0l0,0h0l0,0h0l0,0h0l0,0h0l0,0h0l0,0h0l0,0l0,0l0,0h0l0,0l0,0l0,0
		h0l0,0h0l0,0h0l0,0h0l0,0l0,0l0,0h0l0,0h0l0,0l0,0l0,0h0l0,0h0l0,0h0l0,0h0l0,0h0l0,0h0l0,0h0l0,0h0l0,0l0,0l0,0l0,0l0,0l0,0l0,0
		l0,0l0,0l0,0l0,0l0,0l0,0l0,0l0,0l0,0l0,0l0,0l0,0l0,0l0,0l0,0l0,0l0,0l0,0l0,0l0,0l0,0l0,0l0,0l0,0l0,0l0,0l0,0l0,0l0,0l0,0l0,0
		l0,0l0,0l0,0l0,0l0,0l0,0l0,0l0,0l0,0l0,0l0,0l0,0l0,0l0,0l0,0l0,0l0,0l0,0l0,0l0,0l0,0l0,0l0,0l0,0l0,0l0,0l0,0l0,0l0,0l0,0l0,0
		l0,0l0,0l0,0l0,0l0,0l0,0l0,0h0l0,0l0,0l0,0l0,0l0,0l0.2-0.1l0,0l0,0l0,0l0,0l0,0l0.1-0.1l0,0l0,0l0,0l0,0l0,0l0,0l0,0l0,0l0,0l0,0
		l0,0l0,0l0,0h0l0,0l0,0l0,0l0,0l0,0l0,0l0,0l0,0l0,0l0,0l0.1,0l0,0l0,0l0,0l0,0l0,0l0,0l0,0l0,0l0,0l0.2-0.1l0,0l0.2-0.1l0,0l0,0
		l0,0l0.1-0.1l0,0l0,0l0.1,0l0,0l0,0l0,0l0,0l0,0l0,0l0,0l0,0l0,0l0,0l0,0l0,0l0,0l0,0l0,0l0,0l0,0l0,0l0,0l0,0l0,0l0,0l0,0l0,0l0,0
		l0,0l0,0l0,0l0,0l0,0l0,0l0,0l0,0l0,0l0,0c0.2-0.1,0.4-0.3,0.6-0.4l0.2-0.1l0,0l0,0l0.1,0l0,0l0,0l0,0l0,0l0,0l0,0l0,0l0,0l0,0l0,0
		l0,0l0,0l0,0l0,0l0,0l0,0l0,0l0,0l0,0l0,0l0,0l0,0l0,0l0,0l0,0l0,0l0,0l0,0l0,0l0,0l0.1,0l0.1,0l0.1,0l0.1,0l0.1,0l0,0l0,0l0.1,0
		l0.1,0l0.1,0l0.1-0.1l0,0l0.1,0l0.1,0l0.1,0l0.1,0l0,0l0,0l0.1,0l0.1,0l0.1,0l0.1,0l0,0l0,0l0.1,0l0.1,0l0.1,0l0.1,0l0,0l0,0l0.1,0
		l0.1,0l0.1,0l0.1,0l0,0l0,0l0.1,0l0.1-0.1l0.1,0l0,0l0,0l0.1,0l0.2-0.2h0l0.1,0l0.1,0l0.1-0.1l0.1,0l0,0l0,0l0.1,0l0.1,0l0.1,0
		l0.1,0l0,0l0,0l0.1,0l0.1,0l0.1,0l0.1,0l0,0l0,0l0.1,0l0.1,0l0.1,0l0.1,0l0,0l0,0l0.1,0l0.1,0l0.1-0.1l0,0l0.1,0l0.1-0.1l0.1-0.1
		l0,0l0.1-0.1l0.1-0.1l0.1-0.1l0,0l0.1-0.1l0.1-0.1l0.1-0.1l0,0l0.1-0.1l0.1-0.1l0.1-0.1l0,0l0.1-0.1l0.1-0.1l0.1,0l0,0l0.1-0.1
		l0.1-0.1l0.1,0l0,0l0.1-0.1l0.1-0.1l0,0l0.1,0l0.1-0.1l0.1-0.1l0,0l0.1-0.1l0.1-0.1l0.1-0.1l0,0l0.1-0.1l0.1-0.1l0.1-0.1l0,0
		l0.1-0.1l0.1-0.1l0.1-0.1l0,0l0.1-0.1l0.1-0.1l0.1,0l0,0l0.1-0.1l0.1-0.1l0,0l0.1,0l0.1-0.1l0.1-0.1l0,0l0.1-0.1l0.1-0.1l0.1-0.1
		l0,0l0.1-0.1l0.1-0.1l0.1-0.1l0,0l0.1-0.1l0.1-0.1l0.1-0.1l0,0l0.1-0.1l0.1-0.1l0.1,0l0,0l0.1-0.1l0.1-0.1l0,0l0,0l0.1-0.1l0.1-0.1
		l0,0l0.1,0l0.1-0.1l0.1-0.1l0,0l0.1-0.1l0.1-0.1l0.1-0.1l0,0l0.1-0.1l0.1-0.1l0.1-0.1l0,0l0.1-0.1l0.1-0.1l0,0l0.1,0l0.1-0.1
		l0.1-0.1l0,0l0.1-0.1l0.1-0.1l0.1-0.1l0,0l0.1-0.1l0.1-0.1l0.1,0l0,0l0.1-0.1l0.1-0.1l0,0l0.1,0l0.1-0.1l0.1-0.1l0,0l0.1-0.1
		l0.1-0.1l0.1-0.1l0,0l0.1-0.1l0.1-0.1l0.1,0l0,0l0.1-0.1l0.1-0.1l0,0l0.1,0l0.1-0.1l0.1-0.1l0,0l0.1-0.1l0.1-0.1l0.1-0.1l0,0
		l0.1-0.1l0.3-0.2l0.1-0.1l0,0l0.1-0.1l0.1-0.1c0.8-0.5,1.6-1.1,2.4-1.6l0.3-0.2l0,0l0,0l0,0l0,0l0,0l0,0l0,0l0,0l0,0l0,0l0,0l0,0
		l0,0l0,0l0,0l0,0l0,0l0,0l0,0l0,0l0,0l0,0l0,0l0,0l0,0l0,0l0,0l0,0l0,0l0,0l0,0l0,0l0,0l0,0l0,0l0,0l0,0l0,0l0,0l0,0l0,0l0,0l0,0
		l0,0l0,0l0,0l0,0l0,0l0,0l0,0l0,0l0.1-0.1l0.1-0.1l0.1-0.1l0.1-0.1l0.2-0.1l0.1-0.1l0.1,0l0,0l0.1-0.1l0.1-0.1l0.1-0.1l0.2-0.1
		l0.1-0.1l0.1-0.1l0,0l0.4-0.2l0.1,0l0.1,0l0,0l0.1,0l0.1,0l0.1,0l0.1,0l0.1,0l0.1,0l0.1,0l0.1,0l0,0l0.1,0l0.1,0l0.2-0.1l0.1,0
		l0.1,0l0.1,0l0,0l0,0l0.1,0l0.1,0l0.1,0l0.1,0l0.1,0l0.1,0l0.2-0.1l0.1,0l0.1,0l0.1,0l0.4-0.2l0.1,0l0.1,0l0.1,0l0.1,0l0.2-0.1
		l0.1,0l0.1-0.1l0.1-0.1l0.1-0.1l0.2-0.1l0.1-0.1l0.1-0.1l0.1-0.1l0.1-0.1l0.1,0l0,0l0.1-0.1l0.1-0.1l0.1-0.1l0.1-0.1l0.1-0.1l0,0
		l0.1,0l0.1-0.1l0.1-0.1l0.1-0.1l0.1-0.1l0.1-0.1l0,0l0.1-0.1l0.1-0.1l0.1-0.1l0.1-0.1l0.1-0.1l0.1,0l0,0l0.1-0.1l0.1-0.1l0.1-0.1
		l0.1-0.1l0.1-0.1l0.1,0l0.1,0l0.1-0.1l0.1-0.1l0.1-0.1l0.1-0.1l0.1-0.1l0,0l0.2-0.1l0.1-0.1l0.1-0.1l0.1-0.1l0.1-0.1l0,0l0.1-0.1
		l0.4-0.2l0.1,0l0,0l0.4-0.2l0.1-0.1l0,0l0.1,0l0.3-0.2l0.1-0.1l0.1-0.1l0,0l0,0l0.3-0.2l0.2-0.1l0.1,0l0,0l0.4-0.2l0.1-0.1l0,0
		l0.1,0c0.3-0.2,0.7-0.4,1-0.6l0,0l0.1,0l0.1-0.1l0.3-0.2l0.1,0l0.5-0.3l0,0l0.4-0.2l0.1-0.1l0.1,0l0,0l0.1-0.1l0.4-0.2l0,0l0.1,0
		l0.5-0.3l0,0l0.5-0.3l0,0l0.4-0.2l0.1-0.1l0.1,0l0,0c4.5-2.2,8.4-4.1,12.9-6c0.5-0.2,1-0.4,1.5-0.6l0,0l0.1,0l0.1,0l0.3-0.1l0.1,0
		l0,0l0.1,0l0.1,0l0.1,0l0.1,0l0.1,0l0.1,0l0.1,0l0,0l0.1,0l0.1,0l0.1,0l0.1,0l0.1,0l0.1,0l0.1,0l0,0l0.1,0l0.1,0l0.1,0l0.1,0l0.1,0
		l0.1,0l0.1,0l0,0l0.1,0l0.1,0l0.1,0l0.1,0l0.1,0l0.1,0l0.1,0l0,0l0.1,0l0.3-0.1l0.1,0l0.1,0l0,0l0,0l0,0l0,0l0,0l0,0l0,0l0,0l0,0
		l0,0l0,0l0,0l0,0l0,0l0,0l0,0l0,0l0,0l0,0l0,0l0,0l0,0l0,0l0,0l0,0l0,0l0,0l0,0l0,0l0,0l0,0l0,0l0,0l0,0l0,0l0,0l0,0l0,0l0,0l0,0
		l0,0l0,0l0,0l0,0l0,0l0,0l0,0l0,0l0,0l0,0l0,0l0,0l0,0l0,0l0,0l0,0l0,0l0,0l0,0l0,0l0,0l0,0l0,0l0,0l0,0l0,0l0,0l0,0l0,0l0,0l0,0
		l0,0l0,0l0,0l0,0l0,0l0,0l0,0l0.2-0.1l0,0l0,0l0,0l0.1,0l0,0l0,0l0,0l0.1,0l0,0l0,0l0.2-0.1l0,0c0.4-0.1,0.8-0.3,1.2-0.4l0.4-0.1
		l0,0l0,0l0,0l0,0l0,0l0.1,0l0,0l0,0l0,0l0,0l0,0l0,0l0,0l0,0l0,0l0,0l0,0l0,0l0,0l0,0l0,0l0,0l0,0l0,0l0,0l0,0l0,0l0,0l0,0l0,0l0,0
		l0,0l0,0l0,0l0,0l0,0l0,0l0,0l0,0l0,0l0,0l0,0l0,0l0,0l0,0l0,0l0,0l0,0l0,0l0,0l0,0l0,0l0,0l0,0l0,0l0,0l0,0l0,0l0,0l0,0l0,0l0,0
		l0,0l0,0l0,0l0,0l0,0l0,0l0,0l0,0l0,0l0,0l0,0l0,0l0,0l0,0l0,0l0,0l0,0l0,0l0,0l0,0l0.1,0l0,0l0,0l0.1,0l0,0l0,0l0,0l0,0l0,0l0,0
		l0,0l0,0l0,0l0,0l0,0l0,0l0,0l0.2-0.1l0,0l0.1,0l0,0l0,0l0,0l0,0l0,0l0,0l0.1,0l0,0l0,0l0,0l0,0l0,0l0,0l0,0l0,0l0,0l0,0l0,0l0,0
		l0,0l0,0l0,0l0,0l0,0l0,0l0,0l0,0l0,0l0,0l0,0l0,0l0,0l0,0l0,0l0,0l0,0l0,0l0,0l0,0l0,0l0,0l0,0l0,0l0,0l0,0l0,0l0,0l0,0l0,0l0,0
		l0,0l0,0l0,0l0,0l0,0l0,0l0,0l0.1,0l0,0l0,0l0,0l0,0l0,0l0,0l0,0l0,0l0,0l0,0l0,0l0,0l0,0l0,0l0,0l0,0l0,0l0,0l0,0l0,0l0,0l0,0l0,0
		l0,0l0,0l0,0l0,0l0,0l0,0l0,0l0,0l0,0l0,0l0,0l0,0l0,0l0,0l0,0l0.1-0.1l0,0l0,0c0.2-0.1,0.4-0.2,0.5-0.3l0,0l0,0l0,0l0.1,0
		c0.2-0.1,0.3-0.2,0.5-0.3l0,0l0,0l0.1-0.1l0,0l0,0l0,0l0,0l0,0l0,0l0,0l0,0l0,0l0,0l0,0l0,0l0,0l0,0l0,0l0,0l0,0l0,0l0,0l0,0l0,0
		l0,0l0,0l0,0l0,0l0,0l0,0l0,0l0,0l0,0l0,0l0,0l0,0l0,0l0,0l0,0l0,0l0,0l0,0l0,0l0,0l0,0l0,0l0,0l0,0l0,0l0,0l0,0l0,0l0,0l0,0l0,0
		l0.1-0.1l0,0l0,0l0,0l0.4-0.3l0.2-0.1l0,0l0,0l0,0l0,0l0.1-0.1l0,0l0,0l0.2-0.1l0,0l0,0l0,0l0,0l0.1,0l0,0l0.1-0.1v0l0,0l0,0l0,0
		l0,0l0,0l0,0l0,0l0,0l0,0l0,0h0l0,0l0,0l0,0l0,0l0,0l0,0l0,0l0,0l0,0l0,0l0,0l0,0l0,0l0,0l0,0l0,0l0,0l0,0l0,0l0,0l0,0l0,0l0,0l0,0
		l0,0l0,0l0,0l0.1,0l0.1-0.1l0,0l0,0l0,0l0,0l0,0l0,0l0,0l0,0l0,0l0,0l0,0l0,0l0,0l0,0l0,0l0,0l0,0l0,0l0,0l0.2-0.1l0,0l0,0l0,0l0,0
		l0,0l0,0l0,0l0,0l0,0l0,0l0,0l0,0l0,0l0,0l0,0l0,0l0,0l0,0l0,0l0,0l0,0l0,0l0,0l0,0l0,0l0,0l0,0l0,0l0,0l0,0l0,0l0,0l0,0l0,0l0,0
		l0,0l0,0l0,0l0,0l0,0l0,0l0,0l0,0l0,0l0,0l0,0l0,0l0,0l0,0l0,0l0,0l0,0l0,0l0,0l0,0l0,0l0,0l0,0l0,0l0,0l0,0l0,0l0,0l0,0l0.1-0.1
		l0,0l0,0l0,0l0.1-0.1l0.1-0.1l0,0l0,0l0,0l0,0l0,0l0,0l0,0l0,0l0,0l0,0l0,0l0,0l0,0l0,0l0,0l0,0l0,0l0,0l0,0l0,0l0,0l0,0l0,0l0,0
		l0,0l0,0l0,0l0,0l0,0l0,0l0,0l0,0l0,0l0,0l0,0l0,0l0,0l0,0l0,0l0,0l0,0l0,0l0,0l0,0l0,0l0,0l0,0l0,0l0,0l0,0l0,0l0,0l0.2-0.1
		l0.3-0.2l0,0l0,0l0,0l0,0l0,0l0,0l0,0l0,0l0,0l0,0l0,0l0,0l0,0l0,0l0,0l0,0l0,0l0,0l0,0l0,0l0,0l0,0l0,0l0,0l0.2-0.1l0,0l0.2-0.1
		l0,0l0,0l0,0l0,0l0,0l0,0l0,0l0,0l0,0l0,0l0,0l0,0l0,0l0,0l0,0l0,0l0,0l0,0l0,0l0,0l0,0l0,0l0,0l0,0l0,0l0,0l0,0l0,0l0,0l0,0l0,0
		l0,0l0,0l0,0l0,0l0,0l0,0l0,0l0,0l0.1-0.1l0,0l0,0l0,0l0,0l0.1,0l0,0l0,0l0,0l0,0l0,0l0,0l0,0l0,0l0,0l0,0l0,0l0,0l0,0l0,0l0,0l0,0
		l0,0l0,0l0,0l0,0l0,0l0,0l0,0l0,0l0,0l0,0l0,0l0,0l0,0l0,0l0,0l0,0l0,0l0,0l0,0l0,0l0,0l0,0l0.1,0l0,0l0,0l0,0l0,0l0,0l0,0l0,0l0,0
		l0,0l0,0l0,0l0,0l0,0l0,0l0,0l0,0l0,0l0,0l0,0l0,0l0,0l0,0l0,0l0,0l0,0l0,0l0,0l0,0l0,0l0,0l0,0l0,0l0,0l0,0l0,0l0,0l0,0l0,0l0,0
		l0,0l0,0l0,0l0,0l0,0l0,0l0,0l0,0l0,0l0,0l0,0l0,0l0,0l0,0l0,0l0,0l0,0l0,0l0,0l0,0l0,0l0,0l0,0l0,0h0l0,0l0,0l0,0l0,0l0,0l0,0l0,0
		l0,0l0,0l0,0l0,0l0,0l0,0l0.1-0.1l0,0l0,0l0,0l0,0l0,0l0.3-0.2l0,0l0,0c0.2-0.2,0.4-0.4,0.7-0.6l0.2-0.2l0,0l0,0
		c0.2-0.1,0.3-0.3,0.5-0.4l0,0l0,0l0,0l0,0l0.4-0.4l0,0l0,0l0,0l0.1-0.1l0,0l0,0l0,0l0,0l0,0l0,0l0,0l0.5-0.4l0,0l0.2-0.2
		c0.4-0.4,0.8-0.7,1.2-1.1l0,0l0.1-0.1l0,0l0,0l0,0l0,0l0,0l0,0l0,0l0,0l0,0l0,0l0,0l0,0l0,0l0,0l0,0l0,0l0,0l0,0l0,0l0,0l0,0l0,0
		l0,0l0,0l0,0l0,0l0,0l0,0l0,0l0,0l0,0l0.1-0.1l0,0l0,0l0,0l0,0l0.4-0.4l0.1-0.1l0,0l0,0l0,0l0,0l0,0l0,0l0,0l0,0l0,0l0,0l0,0l0,0
		l0,0l0,0l0.1-0.1l0,0l0,0l0,0l0,0l0,0l0,0l0,0l0,0l0,0l0,0l0,0l0,0l0,0l0,0l0,0l0,0l0,0l0,0l0,0l0.1-0.1l0.1-0.1l0.1-0.1l0.1-0.1
		l0.1-0.1l0,0l0,0l0.1-0.1l0.1-0.1l0.1-0.1l0.1-0.1l0.1-0.1l0,0l0.1-0.1l0.1-0.1l0.1-0.1l0.1-0.1l0.1-0.1l0,0l0.1,0l0.1-0.1l0.1-0.1
		l0.1-0.1l0.1-0.1l0.1-0.1l0,0l0.1-0.1l0.1-0.1l0.1-0.1l0.1-0.1l0.1-0.1l0,0l0.1-0.1l0.1-0.1l0.1-0.1l0.1-0.1l0.1-0.1l0.1-0.1l0,0
		l0.1-0.1l0.1-0.1l0.1-0.1l0.1-0.1l0.1-0.1l0,0l0.1-0.1l0.3-0.3l0.1,0l0,0l0.2-0.2l0.1-0.1c0.4-0.3,0.7-0.7,1.1-1l0,0l0.4-0.3
		c0.5-0.4,1-0.8,1.4-1.2l0.1-0.1l0,0l0.1-0.1l0.1-0.1l0.1-0.1l0.2-0.2l0,0l0.1-0.1l0.1-0.1l0.1-0.1l0.1-0.1l0.1-0.1l0,0l0.1-0.1
		l0.1-0.1l0.1-0.1l0.1-0.1l0.1-0.1l0.1-0.1l0.1-0.1l0.1-0.1l0,0l0.2-0.2l0.1-0.1l0.1-0.1l0.1-0.1l0.8-0.6l0.1-0.1l0.1-0.1l0.1-0.1
		l0.1,0l0.1,0l0.1-0.1l0.1-0.1l0.1-0.1l0.1-0.1l0,0l0.1-0.1l0.1-0.1l0.1-0.1l0.1-0.1l0.1-0.1l0,0l0.5-0.4c1.5-1.1,10.1-7.8,11.5-8.9
		l0,0l0.1-0.1l0.1-0.1l0.1-0.1l0.1-0.1l0.1-0.1l0.1,0l0,0l0.1-0.1l0.1-0.1l0.1-0.1l0.1-0.1l0.1-0.1l0,0l0.1-0.1l0.1-0.1l0.1-0.1
		l0.1-0.1l0.1-0.1l0.1-0.1l0.1-0.1l0.1-0.1l0.1-0.1l0.1-0.1l0.1-0.1l0.1-0.1l0.1-0.1l0.1-0.1l0.1-0.1l0.1-0.1l0.1-0.1l0.1-0.1
		l0.1-0.1l0.1-0.1l0.1-0.1l0.1-0.1l0,0l0.1-0.1l0.1-0.1l0.1-0.1l0.1-0.1l0.1-0.1l0,0l0.1,0l0.1-0.1l0.1-0.1l0.1-0.1l0.1-0.1l0.1-0.1
		l0,0l0.1-0.1l0.1-0.1l0.1-0.1l0.1-0.1l0.1-0.1l0.1-0.1l0,0l0.1-0.1l0.1-0.1l0.2-0.1l0.1-0.1l0.1,0l0.1,0l0.5-0.4l0,0l0.1-0.1
		l0.1-0.1l0.4-0.3l0,0l0.5-0.4l0.1,0l0,0l0.1-0.1l0.2-0.1l0.1-0.1l0.1-0.1l0,0l0.1,0l0.1-0.1l0.1-0.1l0.1-0.1l0.1-0.1l0.3-0.2
		l0.1-0.1l0,0l0,0l0,0l0,0l0,0l0,0l0,0l0,0l0.1-0.1l0,0l0,0l0,0l0,0l0,0l0,0l0,0l0,0l0,0l0,0l0,0l0,0l0,0l0,0l0,0l0,0l0,0l0,0l0,0
		l0,0l0,0l0,0l0,0l0,0l0,0l0,0l0,0l0,0l0,0l0,0l0,0l0,0l0,0l0,0l0,0l0,0l0,0l0.1-0.1l0,0l0,0l0,0l0.1-0.1l0,0l0,0l0,0l0.1,0l0.1,0
		l0.1,0l0,0l0,0l0.1,0l0.1,0l0.1,0l0,0l0.1,0l0.1,0l0.1,0l0,0l0,0l0.1,0l0.1,0l0.1,0l0,0l0.1,0l0.1,0l0.1,0l0.1,0l0,0l0.1,0l0.1,0
		l0.1,0l0,0l0.1,0l0.1,0l0.1,0l0.1,0l0,0l0.1,0l0.1,0l0.1,0l0,0l0.1,0l0.1,0l0.1,0l0.1,0l0,0l0.2-0.1l0,0l0.5-0.3l0,0l0.5-0.3l0,0
		c0.4-0.2,0.7-0.5,1.1-0.7c0.4-0.3,0.9-0.5,1.3-0.8l0,0l0.5-0.3l0,0l0.1-0.1l0.1-0.1l0.1-0.1l0,0l0.8-0.5l0,0l0.5-0.3l0,0
		c0.3-0.2,0.6-0.3,0.9-0.5l0.1-0.1l0.4-0.2l0,0c0.4-0.2,0.8-0.4,1.1-0.6c0.4-0.2,0.7-0.4,1.1-0.6l0,0l0.3-0.1l0,0l0.4-0.2l0.1,0l0,0
		l0.1,0l0.2-0.1l0,0l0.1,0l0.1,0l0.1,0l0,0l0,0l0.1,0l0.1,0l0.1,0l0,0l0.1,0l0.3-0.1l0.1,0l0.1,0l0,0l0.1,0l0.1,0l0.1,0l0,0l0.1,0
		l0.1,0l0.1,0l0,0l0.1,0l0.1,0l0.1,0l0,0l0.1,0l0.1,0l0.1,0l0,0l0.1,0l0.1,0l0.1,0l0,0l0.1,0l0.1,0l0.1,0l0.2-0.1l0,0l0.1,0l0.1,0
		l0,0l0.1,0l0.1,0l0.1,0l0,0l0.1,0l0.1,0l0,0l0,0l0,0l0,0l0,0l0,0l0,0l0,0l0,0l0,0l0,0l0,0l0,0l0,0l0,0l0,0l0,0l0,0l0,0l0,0l0,0l0,0
		l0,0l0,0l0,0l0,0l0,0l0,0l0,0l0,0l0,0l0,0l0,0l0,0l0,0l0,0l0,0l0,0l0,0l0,0l0,0l0,0l0,0l0,0l0,0l0,0l0,0l0,0l0,0l0,0l0,0l0,0l0,0
		l0,0l0,0l0,0l0,0l0,0l0,0l0,0l0,0l0,0l0,0l0,0l0,0l0,0l0,0l0.9-0.5l0,0l0,0l0,0l0,0l0,0l0,0l0,0l0,0l0,0l0,0l0,0l0,0l0,0l0,0l0,0
		l0,0l0,0l0,0l0,0l0,0c0.3-0.2,0.6-0.4,0.9-0.6l0.2-0.1l0,0l0,0l0,0l0,0l0,0l0,0l0,0l0,0l0,0l0,0l0,0l0,0l0,0l0,0l0,0l0,0l0,0l0,0
		l0,0l0,0l0,0l0,0l0,0l0,0l0,0l0,0l0,0l0,0l0,0l0,0l0,0l0,0l0,0l0,0l0,0l0,0l0,0l0,0l0,0l0,0l0,0l0,0l0,0l0,0l0,0l0.1-0.1l0,0l0,0
		l0,0l0,0l0,0l0,0l0,0l0,0l0,0l0,0l0,0l0,0l0,0l0,0l0,0l0,0l0,0l0,0l0,0l0,0l0,0l0,0l0,0l0,0l0,0l0,0l0,0l0,0l0,0l0,0l0,0l0,0l0,0
		l0,0l0,0l0,0l0,0l0,0l0,0l0,0l0,0l0,0l0,0l0,0l0,0l0,0h0l0,0l0,0l0,0l0,0l0,0h0l0,0l0,0l0,0l0,0l0,0l0,0h0l0,0l0,0l0,0h0l0,0v0l0,0
		h0l0,0v0l0,0h0l0,0v0l0,0h0l0.1-0.1h0l0.5-0.3l0.6-0.4h0l0,0h0l0,0h0l0,0h0l0,0h0l0,0h0l0,0h0l0,0h0l0,0h0l0,0h0l0,0l0,0h0l0,0h0
		l0,0l0,0h0l0.3-0.2l0.3-0.2l0,0l0,0l0,0l0,0l0.1,0h0l0,0l0,0l0,0l0,0l0,0l0,0l0.1-0.1l0,0l0,0l0,0l0,0l0.1,0l0,0l0,0l0,0l0,0l0,0
		l0,0l0,0l0,0l0,0l0,0l0,0l0,0l0,0l0,0l0,0l0,0l0,0l0,0l0,0l0,0l0,0l0,0l0,0l0,0l0,0l0,0l0,0l0,0l0,0l0,0l0,0l0,0l0,0l0,0l0,0l0,0
		l0,0l0,0l0,0l0,0l0,0l0,0l0,0l0,0l0,0l0,0l0,0l0,0l0,0h0l0,0l0,0l0,0l0,0l0,0l0,0l0,0l0,0l0,0l0,0l0,0l0,0l0,0l0,0l0,0l0,0l0,0l0,0
		l0,0l0,0l0,0l0,0l0,0l0,0l0,0l0,0l0,0l0,0l0,0l0,0l0,0l0,0l0,0l0,0l0,0l0,0l0,0l0,0l0,0l0,0l0,0l0,0l0,0l0,0l0,0l0,0l0,0l0,0l0,0
		l0,0l0,0l0,0l0,0l0,0l0,0l0,0l0,0l0,0l0,0l0,0l0,0l0,0l0,0l0,0l0,0l0,0l0.1,0l0,0l0,0l0,0l0,0l0,0l0,0l0,0l0,0l0,0l0,0l0,0l0,0l0,0
		l0,0l0,0l0,0l0,0l0,0l0,0l0,0l0,0l0,0l0,0l0,0l0,0l0,0l0,0l0,0l0,0l0,0l0,0l0,0l0,0l0,0l0,0l0,0l0,0l0,0l0,0l0,0l0,0l0,0l0,0l0,0
		l0,0l0,0l0,0l0,0l0,0l0,0l0,0l0,0l0,0l0,0l0,0l0,0l0,0l0,0l0,0l0,0l0,0l0,0l0,0l0,0l0,0l0,0l0,0l0,0l0,0l0,0l0,0l0,0l0,0l0,0l0,0
		l0,0l0,0l0,0l0,0l0,0l0,0l0,0l0,0l0,0l0,0h0l0,0l0,0l0,0l0,0l0,0l0,0l0,0l0,0l0,0l0,0l0,0l0,0l0,0l0,0l0,0l0,0l0,0l0,0l0,0l0,0l0,0
		l0,0l0,0l0,0l0,0l0,0l0,0l0,0l0,0l0,0l0,0l0,0l0,0l0,0l0,0l0.2-0.1l0,0l0,0v0l0,0l0,0l0,0l0,0l0.1,0l0.1,0l0,0l0,0l0,0l0.1,0l0,0
		l0.1,0l0,0h0c0,0,0.1,0,0.1,0h0c0,0,0.1,0,0.1,0l0,0l0,0c0,0,0.1,0,0.1,0l0,0l0,0C332.4,616,332.4,616,332.5,616L332.5,616z
		 M331.9,616L331.9,616 M329.3,614.6L329.3,614.6L329.3,614.6L329.3,614.6L329.3,614.6L329.3,614.6 M331.4,616.1
		c0.1,0,0.1-0.1,0.2-0.1 M329,614.7l-0.2,0.1 M332.1,615.9L332.1,615.9"/>
	<path id="XMLID_6_" fill-rule="evenodd" clip-rule="evenodd" fill="#939598" d="M565.7,365.2c0,26.4,39.4,47.8,88,47.8
		c48.6,0,88-21.4,88-47.8c0-26.4-39.4-47.8-88-47.8C605.1,317.4,565.7,338.8,565.7,365.2"/>
	<path id="XMLID_5_" fill-rule="evenodd" clip-rule="evenodd" fill="#E8E7E5" d="M565.7,353.2c0,26.4,39.4,47.8,88,47.8
		c48.6,0,88-21.4,88-47.8c0-26.4-39.4-47.8-88-47.8C605.1,305.4,565.7,326.9,565.7,353.2"/>
	<path id="XMLID_4_" fill-rule="evenodd" clip-rule="evenodd" fill="#D1D3D4" d="M665.7,150.9v191.5l0.1,0.5c0,3.8-5.7,6.9-12.7,6.9
		c-7,0-12.6-3-12.7-6.8h0V150.9H665.7z"/>
	<path id="XMLID_3_" fill-rule="evenodd" clip-rule="evenodd" fill="#E5E8E7" d="M753.4,99.5L767.7,237c0,29.9-58.9,54.2-114,54.2
		c-55.1,0-113.4-24.3-113.4-54.2L554,99.5H753.4z"/>
	<path id="XMLID_2_" fill-rule="evenodd" clip-rule="evenodd" fill="#F5F5F5" d="M554,99.5c0,29.9,44.6,54.2,99.7,54.2
		c55.1,0,99.7-24.3,99.7-54.2c0-29.9-44.6-54.2-99.7-54.2C598.6,45.3,554,69.6,554,99.5"/>
	<path id="XMLID_1_" fill-rule="evenodd" clip-rule="evenodd" fill="#D1D3D4" d="M568.7,99.5c0,25.5,38,46.2,84.9,46.2
		c46.9,0,84.9-20.7,84.9-46.2c0-25.5-38-46.2-84.9-46.2C606.8,53.4,568.7,74,568.7,99.5"/>
</g>
</svg>
