<?xml version="1.0" encoding="utf-8"?>
<!-- Generator: Adobe Illustrator 16.0.3, SVG Export Plug-In . SVG Version: 6.00 Build 0)  -->
<!DOCTYPE svg PUBLIC "-//W3C//DTD SVG 1.1//EN" "http://www.w3.org/Graphics/SVG/1.1/DTD/svg11.dtd">
<svg version="1.1" xmlns="http://www.w3.org/2000/svg" xmlns:xlink="http://www.w3.org/1999/xlink" x="0px" y="0px" width="1100px"
	 height="729.392px" viewBox="0 0 1100 729.392" enable-background="new 0 0 1100 729.392" xml:space="preserve">
<g id="background">
	<rect y="0.392" fill="#DEEBF3" width="1100" height="729"/>
</g>
<g id="shadow">
	<g>
		<path fill="#D1E1E8" d="M509.379,653.707c-26.601,0.061-53.202,0.545-79.756,2.784c-10.012,0.845-19.814,2.702-29.849,3.451
			c-20.044,1.497-39.73,4.288-59.845,5.576c-16.198,1.037-32.465,1.648-48.617,2.964c-15.143,1.233-31.907,0.949-46.934-1.089
			c-11.125-1.508-22.299-2.357-33.237-4.781c-12.235-2.71-25.527-4.648-38.275-4.578c-18.178,0.099-35.881,0.11-53.277,4.896
			c-6.107,1.681-13.583,4.442-18.22,7.969c-10.616,8.071-12.053,28.211-1.453,36.583c17.853,14.09,55.957,19.618,80.982,19.879
			c27.422,0.286,54.061-1.258,81.523-2.165c25.518-0.844,50.973-2.043,76.533-2.001c52.205,0.086,104.416,0,156.527-2.645
			c48.958-2.484,98.04-1.631,147.107-1.631c50.315,0,100.29,0.3,150.243,5.37c21.765,2.209,43.938,2.982,65.813,4.53
			c19.59,1.387,38.415-0.027,57.928-1.309c16.384-1.075,32.661-4.267,47.546-9.66c11.782-4.27,32.787-17.534,36.4-27.726
			c10.13-28.571-142.759-27.885-166.232-27.82c-26.261,0.072-52.729,0.727-78.969-0.032c-11.038-0.319-21.913-1.955-32.686-3.747
			c-10.729-1.786-21.541-1.332-32.422-2.082c-45.377-3.129-90.854-2.672-136.376-2.672
			C539.021,653.772,524.2,653.674,509.379,653.707z"/>
	</g>
</g>
<g id="object">
	<g>
		<path fill="#CCD2D9" d="M854.313,134.906l-9.032,2.58l0.279-2.102c0.843-6.329,0.325-14.072-1.052-20.323l0.391-0.355l8.589-6.338
			L854.313,134.906z"/>
		<polygon fill="#9EB79C" points="904.774,135.347 853.645,133.696 845.07,137.378 900.435,139.29 		"/>
		<path fill="#B1C1BB" d="M844.969,136.8c1.512-0.285,2.988-1.158,4.45-1.828c1.372-0.629,2.743-1.257,4.108-1.883
			c0.218-0.098,0.326,0.6,0.109,0.7c-1.475,0.677-2.955,1.355-4.437,2.035c-1.389,0.636-2.778,1.433-4.213,1.704
			C844.762,137.57,844.745,136.843,844.969,136.8"/>
		<path fill="#474EBB" d="M853.423,109.331c-3.097,1.699-6.132,3.842-9.083,6.436c-0.306,0.269-0.594-0.68-0.295-0.962
			c2.813-2.656,5.667-4.872,9.213-6.539C853.593,108.108,853.746,109.154,853.423,109.331"/>
		<path fill="#474EBB" d="M904.563,110.287l-51.495-1.934l0.363,5.713c0.295,4.621,0.407,9.248,0.337,13.837l-0.123,5.792
			l51.13,1.652l0.044-0.34C905.863,127.002,905.776,118.406,904.563,110.287"/>
		<path fill="#7FC5A3" d="M860.806,109.22c-0.095-0.73-1.224-0.687-1.128,0.049c1,7.69,0.973,15.436-0.105,23.113
			c-0.103,0.73,0.998,0.992,1.101,0.258C861.766,124.865,861.818,117.011,860.806,109.22"/>
		<path fill="#7FC5A3" d="M898.361,110.91c-0.102-0.729-1.23-0.676-1.128,0.06c1.065,7.681,1.106,15.426,0.094,23.113
			c-0.096,0.731,1.007,0.983,1.104,0.248C899.455,126.545,899.441,118.69,898.361,110.91"/>
		<path fill="#CCD2D9" d="M827.232,166.907l-20.089,3.516l0.637-2.82c1.918-8.491,0.824-18.87-2.19-27.244l0.872-0.479l19.13-8.553
			L827.232,166.907z"/>
		<polygon fill="#D34E4E" points="939.357,167.178 825.758,165.288 806.68,170.281 929.687,172.493 		"/>
		<path fill="#D34E4E" d="M806.457,169.507c3.362-0.392,6.647-1.572,9.903-2.48c3.054-0.852,6.102-1.702,9.143-2.55
			c0.482-0.134,0.72,0.802,0.237,0.937c-3.285,0.917-6.576,1.836-9.875,2.757c-3.088,0.862-6.184,1.939-9.373,2.312
			C805.991,170.541,805.959,169.565,806.457,169.507"/>
		<path fill="#D34E4E" d="M825.441,132.619c-6.895,2.298-13.65,5.189-20.229,8.688c-0.682,0.363-1.335-0.922-0.647-1.288
			c6.677-3.547,13.521-6.499,20.519-8.828C825.805,130.952,826.16,132.379,825.441,132.619"/>
		<path fill="#D34E4E" d="M939.068,133.575l-114.41-2.266l0.768,7.659c0.621,6.194,0.836,12.397,0.646,18.552l-0.313,7.768
			l113.599,1.89l0.102-0.457C941.838,155.981,941.708,144.455,939.068,133.575"/>
		<path fill="#CCD2D9" d="M817.285,246.634l-19.511-2.751l0.724,2.221c2.176,6.68,1.541,14.814-0.998,21.332l0.85,0.379l18.65,6.834
			L817.285,246.634z"/>
		<polygon fill="#D34E4E" points="931.096,246.302 815.914,247.92 797.337,243.996 920.787,241.919 		"/>
		<path fill="#EBB044" d="M797.155,244.606c3.235,0.304,6.438,1.231,9.605,1.944c2.979,0.67,5.958,1.34,8.937,2.012
			c0.472,0.107,0.668-0.635,0.195-0.742c-3.217-0.724-6.434-1.449-9.65-2.172c-3.007-0.678-6.021-1.522-9.093-1.81
			C796.667,243.792,796.677,244.561,797.155,244.606"/>
		<path fill="#D34E4E" d="M816.809,273.639c-6.717-1.858-13.297-4.169-19.705-6.943c-0.662-0.287-1.231,0.709-0.563,0.998
			c6.499,2.813,13.161,5.174,19.975,7.058C817.219,274.946,817.51,273.833,816.809,273.639"/>
		<path fill="#D34E4E" d="M931.289,273.965l-115.188,0.69l0.46-5.989c0.372-4.86,0.354-9.743-0.057-14.601l-0.591-6.146
			l115.182-1.617l0.114,0.378C933.89,255.569,933.917,265.067,931.289,273.965"/>
		<path fill="#474EBB" d="M934.938,224.379l-134.956,0.809c-0.158,0.001-0.288-0.13-0.29-0.292l-0.129-18.5
			c-0.001-0.162,0.126-0.294,0.285-0.295l134.957-0.809c0.158,0,0.287,0.13,0.289,0.292l0.129,18.5
			C935.225,224.246,935.096,224.378,934.938,224.379"/>
		<path fill="#8EC3CB" d="M913.288,205.475l-86.023,0.621l-0.31-37.702l86.023-0.622l0.329,2.097
			c1.745,11.093,1.838,22.388,0.276,33.503L913.288,205.475z"/>
		<polygon fill="#EBB044" points="853.867,205.653 836.798,205.777 836.492,168.575 853.562,168.452 		"/>
		<polygon fill="#8EC3CB" points="850.045,205.681 840.461,205.75 840.154,168.549 849.739,168.479 		"/>
		<g opacity="0.13">
			<g>
				<defs>
					<rect id="SVGID_1_" x="826.956" y="167.983" width="87.304" height="9.699"/>
				</defs>
				<clipPath id="SVGID_2_">
					<use xlink:href="#SVGID_1_"  overflow="visible"/>
				</clipPath>
				<polygon clip-path="url(#SVGID_2_)" fill="#000100" points="826.957,168.604 912.98,167.983 914.26,177.682 826.974,170.646 
									"/>
			</g>
		</g>
		<g opacity="0.64">
			<g>
				<defs>
					<rect id="SVGID_3_" x="863.619" y="114.493" width="11.649" height="11.889"/>
				</defs>
				<clipPath id="SVGID_4_">
					<use xlink:href="#SVGID_3_"  overflow="visible"/>
				</clipPath>
				<path clip-path="url(#SVGID_4_)" fill="#7FC5A3" d="M875.269,120.402c0.022,3.283-2.566,5.96-5.782,5.979
					c-3.217,0.019-5.844-2.627-5.867-5.91c-0.022-3.283,2.566-5.96,5.783-5.979C872.619,114.473,875.245,117.119,875.269,120.402"/>
			</g>
		</g>
		<path fill="#474EBB" d="M813.154,215.363c-1.171-1.459-2.511-2.695-4.033-3.763c-0.602-0.42-1.159,0.581-0.563,0.999
			c1.297,0.909,2.43,1.969,3.452,3.175c-1.086,1.293-2.249,2.5-3.509,3.622c-0.549,0.488,0.259,1.295,0.804,0.811
			c1.394-1.24,2.673-2.577,3.854-4.029C813.37,215.919,813.362,215.623,813.154,215.363"/>
		<path fill="#474EBB" d="M819.721,215.083c-0.777-1.187-2.219-2.199-3.238-3.176c-0.53-0.507-1.324,0.312-0.793,0.82
			c0.861,0.824,2.095,1.683,2.852,2.661c-0.426,0.533-1.148,1.032-1.6,1.46c-0.601,0.571-1.202,1.142-1.803,1.712
			c-0.532,0.506,0.273,1.314,0.805,0.81c0.721-0.685,1.442-1.37,2.163-2.055c0.533-0.507,1.263-0.995,1.618-1.651
			C819.82,215.491,819.834,215.255,819.721,215.083"/>
		<path fill="#474EBB" d="M823.219,210.62c-0.521-0.518-1.315,0.302-0.793,0.82c0.314,0.31,0.933,1.388,0.171,1.542
			c-0.712,0.145-0.402,1.254,0.308,1.11c0.711-0.145,1.146-0.804,1.169-1.519C824.098,211.832,823.729,211.125,823.219,210.62"/>
		<path fill="#474EBB" d="M829.531,213.516c-0.16-0.23-0.402-0.286-0.617-0.233c-0.948-0.482-2.148-0.286-2.838,0.567
			c-0.68,0.843-0.57,2.124,0.141,2.914c0.787,0.874,2.102,0.881,2.981,0.144C830.199,216.069,830.26,214.557,829.531,213.516
			 M828.52,215.99c-0.436,0.402-1.121,0.426-1.508-0.047c-0.798-0.978,0.357-2.197,1.391-1.64c0.108,0.058,0.214,0.075,0.313,0.067
			C828.975,214.904,828.993,215.553,828.52,215.99"/>
		
			<rect x="914.864" y="247.136" transform="matrix(1 -0.0056 0.0056 1 -1.4487 5.1512)" fill="#EBB044" width="1.303" height="26.247"/>
		
			<rect x="920.133" y="247.104" transform="matrix(1 -0.0056 0.0056 1 -1.4485 5.1808)" fill="#EBB044" width="1.303" height="26.247"/>
		<path fill="#7FC5A3" d="M928.079,243.169l-134.956,0.809c-0.159,0.001-0.288-0.13-0.29-0.292l-0.129-18.5
			c-0.001-0.162,0.126-0.294,0.285-0.295l134.956-0.808c0.159-0.001,0.288,0.13,0.289,0.292l0.13,18.5
			C928.365,243.036,928.237,243.168,928.079,243.169"/>
		<rect x="808.42" y="230.431" transform="matrix(1 -0.006 0.006 1 -1.3857 4.8406)" fill="#BCBEC0" width="2.043" height="7.809"/>
		
			<rect x="814.833" y="230.393" transform="matrix(1 -0.0057 0.0057 1 -1.3317 4.6881)" fill="#BCBEC0" width="2.041" height="7.809"/>
		<path fill="#7FC5A3" d="M935.445,224.026l-135.348,0.999c-0.397,0.005-0.696-0.369-0.613-0.766l135.609-2.069L935.445,224.026z"/>
		<path fill="#7FC5A3" d="M934.946,223.207l-135.348,0.999c-0.397,0.005-0.697-0.369-0.614-0.766l135.609-2.069L934.946,223.207z"/>
		<path fill="#CCD2D9" d="M820.831,171.484c0,0,4.231,23.876-0.474,33.792l6.907,0.819l-0.308-37.493L820.831,171.484z"/>
		<path fill="#EBB044" d="M749.962,45.001l-231.66,50.371l-237.043,3.776c-6.67,0.106-11.647,6.206-10.469,12.825l36.564,230.737
			c0.938,5.259,5.501,9.07,10.802,9.003c39.015-0.489,191.226-2.85,208.319-2.88c0.865-0.002,1.667,0.415,2.151,1.138
			c1.387,2.075,5.974,6.123,19.613,4.547s17.183-6.563,18.061-8.899c0.306-0.814,0.992-1.404,1.834-1.599
			c16.65-3.868,165.39-36.273,203.489-44.693c5.176-1.144,8.751-5.894,8.463-11.23L763.079,55.103
			C762.719,48.389,756.479,43.585,749.962,45.001"/>
		<path fill="#474EBB" d="M749.519,41.165l-231.66,50.37l-237.043,3.776c-6.67,0.106-11.647,6.206-10.468,12.825l36.564,230.737
			c0.938,5.26,5.501,9.07,10.802,9.004c39.015-0.489,191.226-2.85,208.319-2.881c0.865-0.001,1.667,0.416,2.151,1.138
			c1.387,2.075,5.974,6.123,19.613,4.547c13.64-1.575,17.183-6.563,18.061-8.899c0.306-0.814,0.993-1.404,1.834-1.599
			c16.65-3.868,165.39-36.272,203.489-44.693c5.176-1.144,8.751-5.894,8.464-11.23L762.636,51.266
			C762.274,44.552,756.037,39.748,749.519,41.165"/>
		<path fill="#FFFFFF" d="M518.546,89.744c-116.307-59.73-221.379-14.468-221.379-14.468l28.972,250.778
			c146.951-47.913,219.709,7.766,219.709,7.766S603.995,263.019,758,276.164L729.029,25.385
			C729.029,25.385,618.17,5.069,518.546,89.744"/>
		<path fill="#C2BCAD" d="M297.167,75.276c0,0-2.625,19.639-18.079,33.026l38.483,238.354c0,0,9.827-9.698,8.567-20.602
			L297.167,75.276z"/>
		<path fill="#C2BCAD" d="M729.029,25.386c0,0,7.033,18.523,25.133,28.034l16.877,240.85c0,0-11.779-7.202-13.038-18.106
			L729.029,25.386z"/>
		<path fill="#CCC6B6" d="M317.571,346.656c0,0,146.129-51.685,220.225,1.076l9.532-1.101l-1.48-12.812
			c0,0-75.172-56.505-219.709-7.766L317.571,346.656z"/>
		<path fill="#CCC6B6" d="M771.039,294.27c0,0-154.064-17.006-214.18,51.259l-9.531,1.102l-1.48-12.811
			c0,0,60.309-72.157,212.152-57.657L771.039,294.27z"/>
		<path fill="#F2F4F3" d="M399.476,47.906c-13.157,0.215-26.124,1.187-38.432,2.484c-5.673,0.599-52.071,7.76-51.887,9.346
			c0,0.005,8.191,70.908,8.191,70.908s20.92,181.092,20.96,181.435c-0.184-1.594,46.321-8.761,52.012-9.358
			c40.168-4.21,86.1-2.072,123.836,13.416c6.306,2.588,31.832,12.686,32.877,21.736L518.659,92.265
			c-0.579-5.006-3.003-9.626-6.857-12.902C481.537,53.646,439.627,47.251,399.476,47.906"/>
		<path fill="#FFFFFF" d="M624.589,21.9c12.858-2.791,25.707-4.801,37.985-6.344c5.661-0.71,52.469-4.317,52.652-2.73l8.191,70.908
			c0,0,20.92,181.093,20.96,181.435c-0.185-1.594-47.099,2.03-52.775,2.747c-40.07,5.06-84.304,17.613-117.516,41.298
			c-5.549,3.957-28.101,19.609-27.055,28.659L518.658,92.266c-0.578-5.007,0.729-10.058,3.735-14.125
			C545.999,46.199,585.346,30.416,624.589,21.9"/>
		<g opacity="0.05">
			<g>
				<defs>
					<rect id="SVGID_5_" x="518.525" y="12.426" width="225.853" height="325.446"/>
				</defs>
				<clipPath id="SVGID_6_">
					<use xlink:href="#SVGID_5_"  overflow="visible"/>
				</clipPath>
				<path clip-path="url(#SVGID_6_)" fill="#272525" d="M624.589,21.9c12.858-2.791,25.707-4.801,37.985-6.344
					c5.661-0.71,52.469-4.317,52.652-2.73l8.191,70.908c0,0,20.92,181.093,20.96,181.435c-0.185-1.594-47.099,2.03-52.775,2.747
					c-40.07,5.06-84.304,17.613-117.516,41.298c-5.549,3.957-28.101,19.609-27.055,28.659L518.658,92.266
					c-0.578-5.007,0.729-10.058,3.735-14.125C545.999,46.199,585.346,30.416,624.589,21.9"/>
			</g>
		</g>
		<g opacity="0.05">
			<g>
				<defs>
					<rect id="SVGID_7_" x="520.062" y="104.407" width="147.353" height="233.465"/>
				</defs>
				<clipPath id="SVGID_8_">
					<use xlink:href="#SVGID_7_"  overflow="visible"/>
				</clipPath>
				<path clip-path="url(#SVGID_8_)" fill="#272525" d="M520.062,104.407c5.718,49.494,26.971,233.465,26.971,233.465
					c-1.046-9.05,21.506-24.701,27.056-28.659c26.632-18.993,60.349-30.813,93.326-37.365v-0.009
					C559.66,239.127,526.898,132.373,520.062,104.407"/>
			</g>
		</g>
		<polygon fill="#EAC5B0" points="644.36,343.365 638.707,338.029 638.616,331.174 637.153,330.456 636.196,332.22 634.493,326.552 
			630.494,323.892 624.519,326.162 621.092,331.807 623.976,337.501 630.334,341.647 637.756,349.286 		"/>
		<polygon fill="#3B455A" points="643.815,336.934 633.646,348.979 672.561,405.438 682.713,408.715 725.962,374.226 
			714.395,350.612 682.14,378.024 		"/>
		<polygon fill="#1E232D" points="792.688,677.3 794.197,684.228 782.23,694.093 773.98,688.634 779.209,680.237 791.178,670.372 		
			"/>
		<polygon fill="#7FC5A3" points="750.834,464.282 764.188,495.077 765.447,581.719 792.906,674.913 780.139,680.575 
			724.105,572.363 717.728,538.089 715.192,465.903 		"/>
		<polygon fill="#7FC5A3" points="686.177,471.184 685.127,561.983 702.237,679.058 715.396,679.058 723.705,571.033 
			741.709,463.008 		"/>
		<polygon fill="#1E232D" points="715.319,677.492 715.319,684.605 701.092,691.72 693.978,684.605 701.092,677.492 		"/>
		<path fill="#3B455A" d="M712.086,348.232l34.949-1.294c0,0,20.908,18.344,31.712,66.014c11.003,48.54-2.031,118.417-2.031,118.417
			s-93.764-12.496-109.138-14.427l23.455-95.838L712.086,348.232z"/>
		<path fill="#EAC5B0" d="M724.61,351.803c4.081-0.399,8.163-0.798,12.243-1.196c0.045-3.271-0.173-6.544-0.649-9.78
			c3.403-1.19,7.336-2.979,7.933-6.535c0.188-1.119-0.003-2.265-0.195-3.384c-0.793-4.627-1.586-9.254-2.379-13.881
			c-0.274-1.6-0.566-3.247-1.435-4.619c-1.523-2.408-4.485-3.464-7.292-3.956c-7.162-1.253-14.97,0.289-20.53,4.972
			c-1.48,1.248-2.819,2.746-3.473,4.567c-1.009,2.808-0.262,5.907,0.492,8.794c0.695,2.665,1.392,5.329,2.087,7.993
			c0.801,3.065,1.958,6.549,4.907,7.702c1.567,0.612,3.418,0.436,4.835,1.34C723.655,345.417,723.313,349.137,724.61,351.803"/>
		<path fill="#3B455A" d="M684.738,305.558c-0.08-3.172,0.365-6.381,0.999-9.274c1.089-4.971,6.954-7.204,12.03-7.557
			c10.963-0.76,21.543-5.731,32.248-1.895c6.121,2.193,14.34,2.72,19.878,5.812c2.313,1.291,4.156,3.306,5.593,5.531
			c4.977,7.709,4.99,18.331,0.032,26.052c-1.112,1.732-2.442,3.315-3.84,4.827c-2.893,3.129-6.354,6.994-10.329,8.149
			c-0.089-3.554,3.164-14.759,0.438-17.676c-4.326-4.63-14.123-3.03-19.499-1.898c-5.864,1.233-11.095,5.377-16.908,6.256
			c-4.183,0.633-9.518-1.425-13.071-3.591C686.74,316.898,684.881,311.289,684.738,305.558"/>
		<path fill="#FFFFFF" d="M721.726,352.553l-36.74,146.964l-3.013,19.273l45.775,6.022c0,0-1.806-70.375-1.203-79.758
			c0.602-9.383,9.172-29.666,8.432-51.545c-0.419-12.37,4.208-35.255,1.807-42.765L721.726,352.553z"/>
		<polygon fill="#3B455A" points="901.56,481.341 901.472,499.551 876.809,578.342 882.48,660.315 867.29,663.276 843.497,563.005 
			844.569,533.542 856.072,473.5 		"/>
		<polygon fill="#3B455A" points="882.195,502.808 905.78,669.85 916.869,669.904 924.315,578.889 939.934,487.913 		"/>
		<polygon fill="#3B455A" points="869.793,665.37 858.149,677.574 861.466,683.805 885.423,672.448 881.065,663.344 		"/>
		<polygon fill="#3B455A" points="905.967,673.743 891.645,682.649 893.299,689.513 919.334,684.501 917.389,674.597 		"/>
		<path fill="#EAC5B0" d="M868.987,298.684c9.831,0.771,19.067-7.261,28.737-5.209c6.287,1.334,11.229,6.941,13.119,13.242
			c0.881,2.937,1.183,6.135,0.293,9.047c-0.578,1.889-1.636,3.59-2.878,5.1c-1.66,2.018-3.687,3.691-5.935,4.974
			c1.221,1.99,2.623,3.869,4.184,5.606c-4.545,1.715-9.089,3.429-13.633,5.145c-0.99-2.611-1.979-5.222-2.97-7.833
			c-1.363-0.082-2.722-0.283-4.052-0.635c-8.043-2.128-14.686-9.214-16.44-17.537C868.59,306.683,868.771,302.655,868.987,298.684"
			/>
		<polygon fill="#3B455A" points="871.456,301.664 901.885,298.197 907.674,321.456 916.295,314.683 912.055,276.651 
			869.141,275.519 850.504,286.33 851.238,297.258 867.8,308.524 		"/>
		<path fill="#EBB044" d="M883.073,340.138l36.191-14.154c0,0,16.7,35.739,31.046,86.887c14.346,51.147-5.306,121.985-5.306,121.985
			s-100.624-21.051-117.133-24.375l33.095-101.995L883.073,340.138z"/>
		<polygon fill="#EAC5B0" points="828.858,274.773 828.015,261.097 833.844,260.482 836.496,269.72 839.117,268.149 838.413,279.94 
			832.439,281.397 		"/>
		<polygon fill="#EBB044" points="909.595,352.37 859.086,334.505 839.99,276.028 828.285,279.525 835.529,353.564 892.413,389.313 
					"/>
		<polygon fill="#1E232D" points="404.451,683.729 404.256,685.762 403.607,692.507 389.951,698.357 384.095,691.163 
			391.247,684.865 391.906,684.583 391.986,685.423 		"/>
		<path fill="#CCD2D9" d="M379.764,565.327l1.332,5.379l10.811,113.877l0.08,0.839l12.464-1.693l0.694-0.094l9.213-117.909
			C402.123,565.629,389.981,565.476,379.764,565.327"/>
		<path fill="#CCD2D9" d="M459.755,565.666l-2.514,29.808l-25.212,77.281l-12.318-1.637l-0.201,1.51l-0.07-0.009l9.078-79.644
			l-7.773-27.206C435.043,565.858,449.027,565.855,459.755,565.666"/>
		<polygon fill="#1E232D" points="432.029,672.755 432.804,672.858 438.438,680.591 430.979,686.585 418.799,677.981 
			419.51,672.629 431.548,674.229 		"/>
		<polygon fill="#3B455A" points="432.029,672.755 431.548,674.229 419.51,672.629 419.711,671.118 		"/>
		<path fill="#D0CFD1" d="M374.319,392.349c-1.583,7.458-7.484,12.928-13.248,18.106c4.253-10.905,8.664-20.518,12.906-28.818
			C374.739,385.203,375.08,388.767,374.319,392.349"/>
		<path fill="#EAC5B0" d="M492.084,348.26c0.388-1.683,9.229-10.682,9.743-9.442c0.56,1.352,0.8,2.776,1.094,4.239
			c3.6-1.931,12.315-9.475,11.789-0.756c-0.229,3.777-6.854,10.308-10.171,11.453c-0.076,0.026-0.151,0.052-0.226,0.078
			l-12.175-2.122C491.827,350.756,491.758,349.673,492.084,348.26"/>
		<path fill="#474EBB" d="M451.068,429.58l-0.102-0.418c-0.29,0.211-0.575,0.428-0.862,0.641c0.288-0.213,0.572-0.43,0.862-0.641
			l-6.958-28.322l-10.144-41.294l-25.289-12.052c-2.695-0.432-5.129-1.659-7.218-3.439l-0.918-0.438
			c0.294,1.16,0.649,2.243,1.076,3.212c0.174,0.396,0.36,0.775,0.557,1.133c2.108,3.846,5.371,7.456,5.29,11.841
			c-0.016,0.813-0.153,1.61-0.354,2.395c-0.368,1.427-0.961,2.815-1.49,4.198c-5.613,14.702,0.559,31.3,9.688,43.722
			c4.676,6.363,10.851,11.879,13.514,19.313c0.457,1.276,0.744,2.639,0.872,4.026c1.648,1.436,3.439,2.749,5.437,3.34
			c-1.997-0.591-3.79-1.904-5.437-3.34c0.621,6.697-2.534,13.992-8.982,15.083c-1.518,0.257-3.13,0.156-4.527,0.806
			c-4.766,2.214-2.706,10.028-6.232,13.925c-2.28,2.516-6.134,2.604-9.528,2.508c-1.11-0.032-2.284-0.083-3.214-0.689
			c-1.983-1.294-1.792-4.176-2.377-6.469c-1.06-4.156-5.208-6.886-9.399-7.804c-4.189-0.918-8.539-0.432-12.828-0.424
			c-5.359,0.008-10.838-0.786-15.563-3.313c-1.855-0.991-3.578-2.285-5.045-3.805c-8.45,51.681,1.067,121.603,1.067,121.603
			s11.139,0.223,26.802,0.451c10.217,0.149,22.359,0.302,34.593,0.398c2.129,0.017,4.262,0.032,6.387,0.045
			c14.299,0.088,28.284,0.085,39.012-0.104c8.105-0.144,14.352-0.393,17.467-0.79L451.068,429.58z"/>
		<path fill="#474EBB" d="M504.312,353.831l-12.174-2.121l-0.156-0.027l-54.998,24.047l6.957,28.322
			c21.701-15.896,47.374-28.823,63.534-49.67L504.312,353.831z"/>
		<path fill="#EAC5B0" d="M400.313,343.09c-2.372-10.27,0.197-26.495,7.064-32.549c2.699-2.381,5.784-2.813,9.225-2.838
			c1.626-0.012,2.169,0.409,3.008,0.26c2.56,3.292,4.274,7.31,3.96,11.108c-0.266,3.198-2.106,5.635-2.255,9.069
			c-0.292,6.251-9.23,12.526-5.796,18.733c-2.454,0.8-4.783,0.967-6.944,0.621l-7.217-3.439
			C400.999,343.748,400.65,343.427,400.313,343.09"/>
		<path fill="#EAC5B0" d="M408.575,347.494c-2.695-0.433-5.128-1.659-7.218-3.439L408.575,347.494z"/>
		<path fill="#EAC5B0" d="M421.315,328.141c0.146-3.434,1.989-5.872,2.254-9.069c0.315-3.8-1.4-7.816-3.959-11.108
			c0.376-0.066,0.813-0.247,1.433-0.632c1.232-0.767,2.331-2.773,2.907-4.409c3.19,2.018,5.512,5.662,6.152,11.212
			c0.695,6.033,0.684,12.397-1.383,18.434c-2.069,6.037-6.481,11.713-12.207,13.953c-0.334,0.131-0.665,0.246-0.994,0.353
			C412.085,340.666,421.022,334.391,421.315,328.141"/>
		<polygon fill="#B77858" points="278.046,252.145 272.605,239.843 267.246,241.939 269.107,251.188 266.112,251.004 
			272.051,260.963 277.916,259.536 		"/>
		<polygon fill="#7FC5A3" points="237.471,347.222 278.671,317.862 268.909,258.265 280.692,256.028 307.812,323.836 
			249.437,375.563 		"/>
		<polygon fill="#3B455A" points="167.517,682.157 166.839,688.825 179.496,696.847 186.841,690.857 180.852,683.513 
			168.194,675.49 		"/>
		<polygon fill="#EBB044" points="167.027,478.771 164.969,499.02 183.048,589.507 167.037,679.938 179.993,683.928 
			221.886,576.406 224.183,543.536 218.509,475.444 		"/>
		<polygon fill="#EBB044" points="265.217,485.665 265.632,571.206 248.773,681.382 236.38,681.3 229.235,579.486 212.958,477.611 
					"/>
		<polygon fill="#3B455A" points="236.416,686.526 249.774,693.317 256.52,686.661 249.864,679.915 236.461,679.825 		"/>
		<path fill="#7FC5A3" d="M275.661,473.111c-8.94-27.697-9.894-56.78-12.494-85.633c-0.771-8.513-1.59-17.213-5.133-24.991
			c-4.069-8.932-10.796-13.647-18.633-16.222c-9.975-3.278-21.746-3.09-32.118-3.721c-9.841-0.311-18.546,36.682-28.583,54.616
			c-6.152,10.989-12.49,20.708-16.64,32.696c-3.983,11.506-7.807,23.213-10.124,35.184c-3.498,18.073-12.445,30.692-3.9,36.842
			c0.783,0.259,1.538,0.516,2.253,0.771c14.017,5.021,28.52,8.737,43.287,10.687c13.101,1.729,26.405,2.044,39.561,0.747
			c18.006-1.774,35.452-4.318,51.326-13.709C281.529,491.289,278.595,482.2,275.661,473.111"/>
		<polygon fill="#EAC5B0" points="397.948,499.991 406.796,510.121 411.291,506.529 406.768,498.249 409.682,497.536 
			401.054,489.79 395.877,492.895 		"/>
		<polygon fill="#474EBB" points="400.777,390.097 377.837,437.424 404.855,491.434 394.269,497.068 348.236,440.372 
			372.028,368.186 		"/>
		<path fill="#BABCBE" d="M699.643,389.122c-2.952-2.009-5.967-3.855-9.026-5.56c-2.694-1.5-6.095-0.665-7.83,1.884
			c-1.957,2.876-1.08,6.849,1.956,8.546c2.766,1.546,5.488,3.223,8.157,5.038c49.838,33.919,64.979,104.588,31.061,154.426
			c-33.917,49.838-104.053,59.975-153.892,26.056c-2.668-1.816-5.229-3.733-7.68-5.738c-2.692-2.202-6.711-1.561-8.668,1.314
			c-1.734,2.55-1.264,6.02,1.121,7.976c2.708,2.222,5.531,4.348,8.482,6.357c55.312,37.644,132.902,26.09,170.546-29.222
			C771.514,504.889,754.954,426.766,699.643,389.122"/>
		<path fill="#BABCBE" d="M686.729,410.123l-4.042-2.751l11.884-17.46c0.76-1.117,2.28-1.405,3.396-0.646
			c1.117,0.761,1.406,2.28,0.646,3.396L686.729,410.123z"/>
		<path fill="#BABCBE" d="M571.15,580.264l-4.041-2.751l11.883-17.46c0.76-1.116,2.279-1.405,3.396-0.646
			c1.117,0.76,1.405,2.279,0.646,3.396L571.15,580.264z"/>
		<path fill="#8EC3CB" d="M534.801,500.319c-5.037-54.723,35.242-103.167,89.965-108.204
			c54.722-5.035,103.166,35.243,108.203,89.965c5.036,54.724-35.242,103.168-89.965,108.204S539.836,555.042,534.801,500.319"/>
		<path fill="#80ADB2" d="M677.941,401.86c11.285,14.496,18.691,32.284,20.5,51.937c5.037,54.723-35.242,103.167-89.965,108.203
			c-19.006,1.749-37.252-1.972-53.187-9.861c20.14,25.871,52.632,41.256,87.703,38.028c54.722-5.036,95.001-53.48,89.965-108.204
			C729.67,446.246,707.889,416.687,677.941,401.86"/>
		<path fill="#8CABEF" d="M648.656,392.784c1.807,0.27,3.6,0.586,5.376,0.952"/>
		<path fill="#FFFFFF" d="M660.164,395.209c-2.658-0.104-5.408,0.137-8.403,0.897c1.153-0.978,1.878-1.758,2.271-2.369
			c-1.776-0.366-3.569-0.684-5.376-0.953c-0.124,0.052-0.247,0.104-0.367,0.159c-2.316,1.06-2.659,1.18-2.128,2.656
			c-0.965-0.289-1.896-0.641-2.761-1.068l-11.471,1.057c8.007,7.367-6.129,8.134-11.271,8.622c-0.941,0.09-1.334-1.775-0.843-2.319
			c0.233-0.26,6.458-0.595,4.821-0.443c4.839-0.445,4.201-0.718,3.757-5.535c-4.339,3.861-4.492,0.414-9.773,0.899
			c-4.953,0.456-7.356,0.952-11.521,3.305c1.525,1.075,3.051,2.15,4.576,3.225c-1.817-0.239-7.838-1.983-9.363-1.162
			c-0.71,0.384-0.72,2.371-1.634,2.455c-3.689,0.34-13.544,3.282-13.935-0.949c-0.001-0.02-0.069-0.03-0.187-0.036
			c-8.75,4.736-16.675,10.734-23.557,17.729c4.702-1.227,9.742-1.41,10.731-1.501c0.44-0.041,4.194,7.511,4.278,8.111
			c0.479,3.401-1.728,4.967-3.155,8.374c-2.601,6.203-3.276,14.076-2.313,20.686c0.034,0.239,4.31,3.429,4.439,4.837
			c0.542,5.896,1.168,5.935,5.618,9.905l-0.665-7.23c2.997,6.108,6.141,8.276,8.891,14.27c3.122,6.802,12.406,0.503,16.155,4.827
			c1.651,1.903,4.295,0.718,5.782,2.589l4.035,5.075c2.433,3.059,4.93,1.691,8.741,1.34c3.661-0.337,17.178,14.862,17.275,15.928
			c0.403,4.386-12.036,11.911-11.912,13.671c0.367,5.218,6.937,5.349,10.763,8.23c3.064,2.326,1.723,9.837,1.934,13.094
			c0.492,7.59,5.832,12.584,7.731,19.618c0.709,2.623-0.051,5.591,0.778,8.091c0.851,2.567,3.252,3.993,3.486,6.896
			c0.361,4.484,13.032,4.165,15.472,3.94c-0.012-0.005-9.633-3.922-9.58-3.351c-0.391-4.251,1.823-4.156,1.586-6.749
			c-0.282-3.081-3.313-5.359-1.967-9.879c1.454-4.886,1.254-4.723,6.36-5.193c-0.302-2.156-0.828-4.259-1.578-6.305
			c3.908-7.532,13.894-15.353,16.527-17.53c3.577-2.96,0.792-9.803,2.098-13.706c1.148-3.431,5.267-6.88,5.104-10.955
			c-0.122-3.11-2.927-3.614-5.181-3.329c-2.247,0.283-2.819-3.469-4.525-3.312c-4.74,0.436-9.735,0.082-14.122-2.582
			c-0.728-0.44-2.046-6.421-3.346-7.814c-1.862-1.994-6.836,2.267-9.173-0.464c-0.883-1.032-3.13-5.191-4.392-5.075
			c-1.719,0.158-11.355-0.813-13.18,1.172c0.28-0.305-3.354-1.053-3.857-1.006c0.216-0.021-11.575,7.532-11.882,4.202
			c-0.396-4.317,1.194-10.091-3.926-9.619c-8.23,0.758-1.425-2.027-1.772-5.799c-0.445-4.836-7.849,2.062-12.048,2.453
			c0.111-0.011-5.459-7.501-3.14-7.715c1.667-0.154,1.614-3.571,2.717-5.129c2.901-4.101,8.417-5.01,12.39-4.654
			c1.609,0.144,7.959,6.271,8.102,7.641c-0.035-0.326,2.17-2.039,2.441-2.553c0.971-1.839,0.263-2.528,0.386-4.29
			c0.412-5.916,0.546-7.092,4.87-11.063c3.178-2.918,7.678-6.346,10.049-9.961c1.81-2.76,3.601-4.271,6.438-6.006
			c-0.29,0.178,2.999,1.646,3.655,1.586c2.688-0.248,3.127-2.579,4.412-4.754l-4.669,0.43c4.899-4.514-4.83-5.726,5.732-6.698
			c5.188-0.478,5.674-0.45,8.507-4.429c-5.045,0.464-3.822,0.317-4.294-4.821c-0.079-0.855-1.794-3.862-3.033-2.398
			c-3.386,4.002-3.649-0.34-5.503-2.624c-2.396-2.953-4.372,0.495-5.076,2.484c-0.872,2.466-9.487,6.989-9.183,10.077
			c0.178,1.808-2.786,2.008-2.918-0.015c-0.196-3.037-10.93-4.967-11.211-6.135c-0.372-1.539,4.649-6.245,9.354-6.678
			c2.161-0.199,0.873-2.604,1.538-2.666c4.481-0.413,9.637-2.292,11.755-6.131c-0.612,0.057-6.362,0.627-6.368,0.557
			c-0.188-2.055-1.182-3.228,1.173-3.443c5.526-0.51,7.562,3.651,13.63,3.092c-2.023,1.776-4.048,3.552-6.071,5.327
			c3.046-0.28,8.073,4.358,10.27,2.573c4.056-3.295,0.898-5.676,4.438-6.604c0.423,0.369,0.976,0.71,1.864,0.935
			c1.16,0.293,5.273,0.644,6.055,1.608c0.942,1.16,3.722,8.295,2.234,9.074c-2.417,1.266-9.038,9.911-3.229,11.384
			c4.489,1.137,5.427-0.904,9.073-3.681c3.389-2.582,4.443-1.846,8.625-0.786c0.037,0.01,4.192-0.525,5.805-0.117
			c3.527,0.893,3.079-1.241,3.449-1.147c1.471,0.373,4.251,0.482,5.967-0.464C690.648,407.884,676.151,399.589,660.164,395.209"/>
		<path fill="#FFFFFF" d="M625.389,467.976c-0.607,0.732-1.215,1.465-1.822,2.198c6.242-0.574,10.228,1.089,15.766,0.579
			C635.079,465.272,632.331,467.336,625.389,467.976"/>
		<path fill="#FFFFFF" d="M646.452,471.121c-5.023,0.31-5.187,1.092-7.94,4.803c2.641-0.243,5.281-0.479,7.922-0.718
			C648.724,474.998,648.037,471.023,646.452,471.121"/>
		<path fill="#FFFFFF" d="M654.04,475.689C653.394,468.665,646.895,476.347,654.04,475.689"/>
		<path fill="#A3DCE2" d="M549.229,509.533c-4.676-50.807,32.72-95.784,83.526-100.46c29.697-2.733,57.399,8.912,76.229,29.204
			c-18.423-26.115-49.906-41.941-84.017-38.802c-50.807,4.676-88.203,49.653-83.526,100.46
			c1.942,21.109,10.847,39.899,24.231,54.322C556.655,541.476,550.766,526.229,549.229,509.533"/>
		<path fill="#92DDB6" d="M652.307,401.019c0.438,0.091,0.872,0.186,1.308,0.283c0.117-0.104,0.235-0.206,0.353-0.311
			C653.374,401.047,652.83,401.045,652.307,401.019"/>
		<path fill="#E1E5E5" d="M647.896,406.318c3.046-0.279,8.073,4.358,10.27,2.573c3.023-2.456,2.042-4.402,2.81-5.619
			c-2.416-0.756-4.871-1.414-7.361-1.971C651.708,402.974,649.801,404.646,647.896,406.318"/>
		<path fill="#92DDB6" d="M652.307,401.019c-0.989-0.207-1.984-0.397-2.984-0.571C650.217,400.748,651.195,400.961,652.307,401.019"
			/>
		<path fill="#E1E5E5" d="M692.751,420.649c-6.333-5.305-13.377-9.756-20.938-13.219c1.007,2.526,1.949,5.948,0.944,6.475
			c-0.098,0.051-0.205,0.119-0.315,0.193c4.994,1.797,9.801,4.017,14.372,6.617c0.138,0.035,0.269,0.069,0.413,0.106
			C687.262,420.831,690.987,420.354,692.751,420.649"/>
		<path fill="#E1E5E5" d="M633.335,409.028c0.508-0.772-0.044-2.066,0.442-2.112c4.48-0.412,9.637-2.291,11.754-6.13
			c-0.611,0.056-6.36,0.628-6.367,0.556c-0.079-0.854-0.295-1.555-0.353-2.099c-1.495-0.086-2.996-0.145-4.507-0.157
			c0.631,4.147-9.471,4.728-13.646,5.125c-0.941,0.089-1.334-1.776-0.844-2.32c0.234-0.26,6.459-0.594,4.821-0.443
			c3.343-0.308,4.071-0.535,4.057-2.233c-1.238,0.064-2.479,0.146-3.726,0.261c-5.158,0.476-10.176,1.373-15.029,2.643
			c0.58,0.408,1.158,0.815,1.738,1.225c-0.714-0.095-2.074-0.42-3.555-0.731c-12.662,3.593-24.131,9.782-33.861,17.913
			c1.157,1.832,3.681,6.973,3.751,7.464c0.479,3.401-1.729,4.968-3.156,8.374c-0.098,0.23-0.173,0.479-0.265,0.715
			c14.852-15.478,35.13-25.884,58.167-28.004C632.949,409.055,633.142,409.045,633.335,409.028"/>
		<path fill="#E1E5E5" d="M652.107,571.291c0.851,2.567,3.252,3.993,3.486,6.896c0.36,4.483,13.033,4.165,15.472,3.94
			c-0.012-0.005-9.632-3.922-9.58-3.351c-0.392-4.252,1.823-4.156,1.586-6.749c-0.282-3.081-3.312-5.359-1.967-9.879
			c1.454-4.886,1.254-4.723,6.36-5.193c-0.302-2.156-0.828-4.259-1.578-6.305c3.908-7.532,13.894-15.353,16.527-17.53
			c3.577-2.96,0.792-9.803,2.098-13.706c1.147-3.431,5.267-6.881,5.105-10.955c-0.037-0.914-0.309-1.597-0.725-2.105
			c-9.232,18.984-24.371,34.736-43.246,44.664c1.86,4.032,4.471,7.691,5.684,12.182
			C652.038,565.823,651.279,568.791,652.107,571.291"/>
		
			<rect x="639.464" y="609.136" transform="matrix(0.9958 -0.0917 0.0917 0.9958 -54.8752 61.9218)" fill="#BABCBE" width="14.059" height="38.126"/>
		<path fill="#BABCBE" d="M646.123,629.905c0,0-15.645,0.514-44.258,16.11l0.592,6.427l45.356-4.174l45.355-4.175l-0.591-6.427
			C661.6,627.555,646.123,629.905,646.123,629.905"/>
		<g opacity="0.1">
			<g>
				<defs>
					<rect id="SVGID_9_" x="553.359" y="384.895" width="194.005" height="219.317"/>
				</defs>
				<clipPath id="SVGID_10_">
					<use xlink:href="#SVGID_9_"  overflow="visible"/>
				</clipPath>
				<path clip-path="url(#SVGID_10_)" fill="#272525" d="M563.941,583.029c52.732,35.888,128.796,25.713,164.684-27.02
					c35.888-52.73,18.01-128.051-34.723-163.938c-2.823-1.922-5.703-3.696-8.63-5.331c-0.841-0.471-1.515-1.11-2.029-1.845
					c-0.156,0.18-0.32,0.351-0.457,0.551c-1.958,2.876-1.08,6.849,1.957,8.546c2.765,1.546,5.487,3.222,8.155,5.038
					c49.839,33.919,64.981,104.588,31.063,154.426s-104.055,59.975-153.893,26.056c-2.669-1.816-5.227-3.733-7.68-5.738
					c-2.693-2.202-6.709-1.561-8.667,1.314c-0.144,0.211-0.249,0.437-0.363,0.658c0.872,0.21,1.713,0.603,2.458,1.211
					C558.41,579.08,561.118,581.108,563.941,583.029"/>
			</g>
		</g>
		<g opacity="0.1">
			<g>
				<defs>
					<rect id="SVGID_11_" x="602.457" y="631.259" width="90.713" height="21.184"/>
				</defs>
				<clipPath id="SVGID_12_">
					<use xlink:href="#SVGID_11_"  overflow="visible"/>
				</clipPath>
				<path clip-path="url(#SVGID_12_)" fill="#272525" d="M667.291,631.259c-0.098,0.155-9.564,15.055-64.834,21.184l45.356-4.175
					l45.355-4.174l-0.591-6.427C682.498,634.377,674.089,632.42,667.291,631.259"/>
			</g>
		</g>
		<polygon fill="#EAC5B0" points="808.286,411.13 794.695,409.391 795.185,403.55 804.756,402.68 803.706,399.81 815.154,402.714 
			815.465,408.855 		"/>
		<polygon fill="#EBB044" points="899.657,346.392 872.63,392.648 811.607,400.431 812.846,412.584 886.929,419.364 
			932.719,370.202 		"/>
		<polygon fill="#EAC5B0" points="719.111,443.732 712.757,449.512 705.197,449.034 704.283,450.585 706.146,451.788 
			699.758,453.188 696.491,457.37 698.49,464.145 704.42,468.394 710.936,465.695 716.039,459.041 725.078,451.507 		"/>
		<path fill="#3B455A" d="M713.024,447.163c10.302-8.033,20.604-16.065,30.907-24.099c2.772-2.162,5.925-3.806,8.688-5.991
			c4.04-3.195,5.107-4.152,3.748-8.782c-3.939-13.419-12.303-25.373-16.11-38.626c4.354-2.556,8.259-5.668,12.944-7.752
			c7.651-3.405,9.403,2.131,12.517,7.761c3.694,6.68,7.192,13.475,10.435,20.383c2.688,5.727,16.065,29.765,8.468,35.475
			c-5.437,4.112-64.875,35.443-64.272,36.681C720.105,461.714,713.024,447.163,713.024,447.163"/>
		<path fill="#3B455A" d="M347.424,434.811c0.547,3.21,2.2,6.11,4.471,8.463c0.18-1.106,0.37-2.205,0.568-3.295
			c-0.198,1.09-0.386,2.188-0.568,3.295c1.468,1.52,3.189,2.813,5.044,3.805c4.726,2.527,10.205,3.322,15.564,3.313
			c4.289-0.007,8.639-0.494,12.829,0.425c4.189,0.918,8.339,3.646,9.398,7.803c0.584,2.295,0.394,5.175,2.377,6.469
			c0.93,0.607,2.104,0.658,3.215,0.689c3.394,0.098,7.248,0.009,9.527-2.508c3.528-3.896,1.466-11.71,6.232-13.924
			c1.397-0.648,3.01-0.549,4.528-0.806c6.448-1.091,9.602-8.386,8.982-15.083c-0.128-1.389-0.415-2.751-0.873-4.027
			c-2.664-7.432-8.838-12.948-13.514-19.311c-9.128-12.423-15.3-29.021-9.687-43.722c0.528-1.384,1.12-2.772,1.488-4.199
			c0.203-0.784,0.34-1.581,0.354-2.395c0.082-4.385-3.181-7.995-5.29-11.84c-0.197-0.359-0.382-0.738-0.557-1.134
			c-0.427-0.969-0.781-2.051-1.074-3.211c-0.044-0.174-0.087-0.35-0.128-0.528c-6.475-6.457-9.069-18.453-4.808-27.418
			c0.242-0.509,0.499-1.008,0.771-1.495c-0.271,0.487-0.528,0.986-0.771,1.495c-4.262,8.965-1.667,20.961,4.808,27.418
			c-2.372-10.269,0.197-26.495,7.064-32.549c2.699-2.38,5.784-2.813,9.225-2.837c1.626-0.013,2.17,0.408,3.009,0.261
			c0.377-0.066,0.812-0.247,1.433-0.633c1.231-0.767,2.33-2.773,2.906-4.408c3.191,2.018,5.512,5.662,6.152,11.211
			c0.696,6.034,0.685,12.398-1.383,18.435s-6.481,11.712-12.207,13.953c-0.333,0.131-0.665,0.245-0.993,0.353
			c0.284,0.515,0.643,1.028,1.111,1.542c3.135,3.449,8.165,4.25,12.787,4.846c0.561,0.073,1.149,0.142,1.676-0.063
			c0.867-0.338,1.313-1.341,1.32-2.272c0.006-0.931-0.328-1.824-0.585-2.718c-2.686-9.354,2.073-20.037,2.868-29.467
			c0.792-9.411-1.151-19.65-8.705-26.013c-1.282,0.352-2.526,0.834-3.715,1.429c-0.118-0.157-0.239-0.312-0.365-0.463
			c-10.934-13.129-26.371-1.906-34.676,8.121c-6.846,8.264-12.553,17.754-15.17,28.242c-2.448,9.808-3.266,24.223-2.229,34.249
			c0.604,5.854,2.919,11.597,4.143,17.328c0.762,3.568,1.102,7.131,0.342,10.713c-1.583,7.457-7.485,12.928-13.248,18.106
			c-0.524,1.346-1.047,2.71-1.567,4.094c-0.518,1.384-1.035,2.787-1.547,4.211c-0.33,0.918-0.649,1.851-0.96,2.798
			c0.311-0.947,0.63-1.88,0.96-2.798c0.513-1.424,1.029-2.827,1.547-4.211c0.52-1.384,1.042-2.748,1.567-4.094
			c-0.797,0.717-1.592,1.428-2.372,2.138C352.28,418.432,345.966,426.256,347.424,434.811 M404.915,304.855
			c0.852-0.564,1.726-1.071,2.612-1.517C406.641,303.784,405.767,304.291,404.915,304.855"/>
		<path fill="#D34E4E" d="M293.334,114.033c-16.087-11.068-32.705-8.093-44.387-3.187c-8.454,3.55-17.994,3.472-26.464-0.039
			c-11.784-4.883-28.755-7.914-44.961,3.599c-21.729,15.436-25.787,42.657-21.18,67.38c3.41,18.297,9.924,37.194,20.756,52.647
			c10.482,14.954,30.39,30.739,49.877,24.074c5.941-2.033,12.402-2.113,18.286,0.083c28.167,10.509,48.625-21.373,58.291-42.739
			c10.094-22.312,17.162-49.673,9.915-73.871C310.061,130.605,303.119,120.766,293.334,114.033"/>
		<path fill="#75BA96" d="M232.776,95.549c2.534-7.018,7.794-13.112,13.346-17.031c5.553-3.918,11.41-5.927,17.11-7.411
			c5.054-1.317,10.072-2.266,15.018-2.84c-1.07,4.607-2.897,9.194-4.812,13.708c-2.761,6.513-5.773,13.04-9.735,18.901
			c-3.961,5.861-8.987,11.06-14.375,13.631C238.23,119.801,227.444,110.317,232.776,95.549"/>
		
			<rect x="211.303" y="374.858" transform="matrix(0.6607 -0.7506 0.7506 0.6607 -182.508 359.3625)" fill="#D34E4E" width="189.956" height="13.435"/>
		
			<rect x="201.218" y="365.981" transform="matrix(0.6607 -0.7506 0.7506 0.6607 -179.2663 348.7807)" fill="#EBB044" width="189.956" height="13.435"/>
		
			<rect x="191.134" y="357.105" transform="matrix(0.6607 -0.7506 0.7506 0.6607 -176.0247 338.2007)" fill="#D34E4E" width="189.956" height="13.435"/>
		
			<rect x="230.433" y="425.199" transform="matrix(-0.6608 0.7506 -0.7506 -0.6608 719.9746 565.3332)" fill="#3B455A" width="3.624" height="40.306"/>
		
			<rect x="228.038" y="427.919" transform="matrix(-0.6608 0.7506 -0.7506 -0.6608 718.0391 571.6474)" fill="#DEDFDE" width="3.624" height="40.306"/>
		
			<rect x="225.645" y="430.639" transform="matrix(-0.6609 0.7504 -0.7504 -0.6609 716.0816 578.0483)" fill="#3B455A" width="3.623" height="40.306"/>
		<path fill="#F0F1F1" d="M223.05,486.299l15.941-18.112l-30.254-26.63l-15.942,18.11c-5.715,6.493-5.084,16.391,1.409,22.105
			l6.741,5.934C207.438,493.421,217.334,492.792,223.05,486.299"/>
		
			<rect x="223.25" y="433.36" transform="matrix(-0.6607 0.7507 -0.7507 -0.6607 714.1931 584.1898)" fill="#DEDFDE" width="3.624" height="40.305"/>
		<polygon fill="#F8E4B8" points="343.823,288.09 374.078,314.721 391.769,264.122 		"/>
		<polygon fill="#3B455A" points="380.563,269.724 387.635,275.948 391.769,264.122 		"/>
		<polygon fill="#B77858" points="212.76,480.352 221.608,490.482 226.103,486.89 221.579,478.61 224.494,477.897 215.866,470.15 
			210.689,473.255 		"/>
		<path fill="#7FC5A3" d="M209.786,382.43l-17.137,35.354l27.018,54.01l-10.587,5.635l-46.031-56.696l16.642-50.493
			c3.5-10.62,16.423-14.626,25.316-7.848C211.164,367.085,213.162,375.464,209.786,382.43"/>
		<path fill="#B77858" d="M202.469,315.011c5.605-16.924,30.304-22.817,36.046-3.148c1.725,5.912,2.764,12.182,1.591,18.227
			c-1.174,6.045-4.868,11.845-10.505,14.322c-0.032,0.015-0.064,0.026-0.097,0.04c0.22,1.569,0.44,3.138,0.66,4.707
			c0.047,0.337,0.088,0.71-0.102,0.991c-0.216,0.322-0.645,0.407-1.027,0.464c-1.874,0.279-3.746,0.559-5.619,0.838
			c-0.928,0.139-1.895,0.274-2.789-0.012c-1.957-0.626-2.77-2.971-2.856-5.023c-0.02-0.491-0.016-0.987-0.008-1.484
			C206.681,341.135,198.805,326.074,202.469,315.011"/>
		<path fill="#3B455A" d="M232.56,286.112c4.522-0.673,8.374,3.713,12.547,6.015c3.471,1.916,7.407,2.423,11.005,4.011
			c3.598,1.588,7.135,4.901,7.21,9.05c3.646-1.897,7.595-3.844,11.681-3.056c4.086,0.787,7.879,5.665,6.25,9.685
			c-1.458,3.601-6.154,4.449-7.717,7.993c-2.473,5.605,4.211,14.313-0.35,18.031c-1.097,0.894-2.589,1.109-3.666,2.03
			c-1.339,1.143-1.768,3.106-2.363,4.852c-2.7,7.911-10.676,13.079-18.553,12.022c-4.896-2.295-8.802-7.036-10.552-12.463
			c-2.109-6.541,1.391-8.825,1.981-14.965c0.646-6.71-1.488-13.818-5.713-19.029c-2.75-3.391-6.684-6.315-10.842-6.711
			c-1.69-0.161-1.158,1.249-3.059-0.059c-0.816-0.562-1.93-2.684-2.162-3.702C222.808,296.16,226.61,286.997,232.56,286.112"/>
		<path fill="#3B455A" d="M183.647,294.813c-2.333,0.65-4.866,0.554-7.089,1.529c-3.338,1.464-3.137,4.928-4.081,7.938
			c-1.046,3.333-2.567,7.806-4.765,10.397c-1.583,1.868-3.801,2.933-5.73,4.374c-1.93,1.442-3.704,3.569-3.663,6.167
			c0.04,2.461,1.694,4.672,1.936,7.13c0.295,3.666-0.339,5.542,0.792,9.288c0.583,1.933,1.235,3.98,2.686,5.297
			c1.912,1.737,4.636,1.704,7.027,1.305c2.391-0.4,4.862-1.063,7.221-0.271c5.114,1.721,4.159,6.893,5.521,11.228
			c2.071,6.597,9.721,10.447,15.573,8.102c4.962-1.989,7.834-7.751,7.61-13.438c-0.112-2.848-1.246-5.501-1.328-8.352
			c-0.079-2.748,1.47-6.555-1.021-8.736c-0.606-0.531-1.385-0.811-1.93-1.417c-0.44-0.49-0.686-1.146-0.838-1.801
			c-0.53-2.272-0.031-4.75,1.308-6.489c0.963-1.25,2.342-2.164,2.932-3.672c0.676-1.727,0.141-3.748,0.027-5.658
			c-0.277-4.616,2.248-9.143,6.093-10.925c2.534-1.175,4.817-1.868,7.032-3.655c0.337-0.271,5.377-4.725,5.507-3.763
			c-0.227-1.674-1.204-3.14-2.195-4.484c-1.628-2.209-3.437-4.361-5.731-5.685c-7.418-4.278-7.775,5.666-13.729,4.357
			c-1.436-0.315-2.518-1.632-3.811-2.417c-2.441-1.485-5.44-0.954-7.938,0.158C188.563,292.434,186.276,294.082,183.647,294.813"/>
	</g>
</g>
</svg>
